<svg id="_лой_1" data-name="‘лой_1" xmlns="http://www.w3.org/2000/svg" viewBox="0 0 3000 2000"><defs><style>.cls-1{fill:#fff;}.cls-2{fill:#ebf3fa;}.cls-17,.cls-3{fill:#f8fcff;}.cls-25,.cls-3{opacity:0.5;}.cls-4{fill:#f9ddbf;}.cls-5{fill:#eac3a2;}.cls-6{fill:#273f76;}.cls-7{fill:#ecf3fe;}.cls-8{fill:#d67330;}.cls-9{fill:#77a4e5;}.cls-10{fill:#9fc3f7;}.cls-11{fill:#b0d4ff;}.cls-12{fill:#82b378;}.cls-13{fill:#a8d29f;}.cls-14{fill:#ed7d2b;}.cls-15{fill:#f99746;}.cls-16{fill:#b5453c;}.cls-18{fill:#b5cffc;}.cls-19{fill:#233862;}.cls-20{fill:#e8945b;}.cls-21{fill:#ffb27d;}.cls-22{fill:#2e3552;}.cls-23{fill:#163560;}.cls-24,.cls-25{fill:#2b478b;}.cls-26{fill:#6bb7bf;}.cls-27{fill:#8ad8db;}.cls-28{fill:#ed9f4a;}.cls-29{fill:#ffb278;}</style></defs><title>bedroom</title><rect class="cls-1" width="3000" height="2000"/><path class="cls-2" d="M2764.82,1697.31l-2388.41-.72s-.86-.92-2.46-2.72c-24.81-28.06-227.25-269-131.39-557.37,16.7-50.26,42.47-102,79.83-154.21,235.5-329.46,510.06-306.93,711.5-173.24,85.79,57,333.16,7,543.7-328.22C1644.84,373.73,1751,307,1871.7,276.5q5.9-1.5,11.84-2.88l3.56-.8c2.16-.49,4.34-1,6.51-1.43a668.81,668.81,0,0,1,135.14-14.33q5.3,0,10.61,0,21.13.18,42.36,1.6a762.21,762.21,0,0,1,124.08,18.65q8.47,2,16.9,4.16,3,.76,5.92,1.56l.61.16q17.22,4.64,34.23,10.06c96.26,30.7,186.47,80.45,259.64,147.47,3.69,3.39,7.36,6.82,11,10.29s7.35,7.17,11,10.83c126.37,128.08,192.8,312.5,133.48,542.46C2590.67,1344.69,2945.76,1357.07,2764.82,1697.31Z"/><path class="cls-3" d="M2523.1,440.73c-73.17-67-163.38-116.77-259.64-147.47q-17-5.43-34.23-10.06l-.61-.16q-3-.8-5.92-1.56-8.43-2.18-16.9-4.16-11.27-2.65-22.6-5a759.91,759.91,0,0,0-101.48-13.69q-21.21-1.41-42.36-1.6-5.31,0-10.61,0a794.08,794.08,0,0,0-135.14,12c-2.17.38-4.35.78-6.51,1.19l-3.56.68V980h650.52V451C2530.46,447.55,2526.79,444.12,2523.1,440.73Z"/><path class="cls-4" d="M2043.74,1463.73,2079.1,1541h0l68.13,148.79a7.11,7.11,0,0,0,6.43,4.12h.56a7.57,7.57,0,0,0,7.28-9.59l-54.09-193.54-7.89-28.23Z"/><path class="cls-5" d="M2079.1,1541c-3.37-35.12,28.31-50.21,28.31-50.21l-7.89-28.23-55.78,1.22Z"/><path class="cls-4" d="M2409,1463.73l35.36,77.22h0l68.13,148.79a7.1,7.1,0,0,0,6.43,4.12h.56a7.55,7.55,0,0,0,7.27-9.59l-54.09-193.54-7.88-28.23Z"/><path class="cls-5" d="M2444.35,1541c-3.37-35.12,28.3-50.21,28.3-50.21l-7.88-28.23-55.78,1.22Z"/><rect class="cls-4" x="884.27" y="1311.62" width="1642.75" height="158.19" rx="14.6"/><path class="cls-5" d="M957.28,1462.51l-7.88,28.23-54.09,193.54a7.55,7.55,0,0,0,7.27,9.59h.56a7.1,7.1,0,0,0,6.43-4.12L977.7,1541h0l35.36-77.22Z"/><path class="cls-5" d="M1245.06,1462.51l-7.88,28.23-54.09,193.54a7.55,7.55,0,0,0,7.27,9.59h.56a7.1,7.1,0,0,0,6.43-4.12L1265.48,1541h0l35.36-77.22Z"/><rect class="cls-5" x="862.37" y="848.6" width="637.63" height="621.21" rx="16.77"/><path class="cls-4" d="M1521.91,865.09V1364c0,9.07-6.58,16.5-14.61,16.5H898.88c-8,0-14.61-7.43-14.61-16.5V865.09c0-9.07,6.57-16.49,14.61-16.49H1507.3C1515.33,848.6,1521.91,856,1521.91,865.09Z"/><path class="cls-5" d="M1000.2,1353.81s-112-8.93-115.93-11.68V1239.38c23.61-22.34,70-47.74,70-47.74Z"/><path class="cls-5" d="M1032.15,968.6c0-5.93,4.12-10.73,9.2-10.73s9.2,4.8,9.2,10.73-4.12,10.72-9.2,10.72S1032.15,974.52,1032.15,968.6Z"/><path class="cls-5" d="M1400.17,968.6c0-5.93,4.12-10.73,9.2-10.73s9.2,4.8,9.2,10.73-4.12,10.72-9.2,10.72S1400.17,974.52,1400.17,968.6Z"/><path class="cls-6" d="M1032.15,1170.91c0-5.93,4.12-10.73,9.2-10.73s9.2,4.8,9.2,10.73-4.12,10.73-9.2,10.73S1032.15,1176.83,1032.15,1170.91Z"/><path class="cls-5" d="M1400.17,1170.91c0-5.93,4.12-10.73,9.2-10.73s9.2,4.8,9.2,10.73-4.12,10.73-9.2,10.73S1400.17,1176.83,1400.17,1170.91Z"/><path class="cls-5" d="M1988,1326.22v129a14.75,14.75,0,0,1-14.81,14.6H883.39a14.75,14.75,0,0,1-14.81-14.6v-129a14.75,14.75,0,0,1,14.81-14.6H1973.15A14.75,14.75,0,0,1,1988,1326.22Z"/><path class="cls-7" d="M1239.34,1116.77s-41,119-19.48,195.89h70.82S1316.8,1172.53,1239.34,1116.77Z"/><path class="cls-1" d="M1239.34,1116.77s142.55-19.89,221.08,0l59,195.89H1290.68S1316.8,1195.43,1239.34,1116.77Z"/><path class="cls-8" d="M2025.86,1306.66c-1.41-.75-2.15-1.16-2.15-1.16A4.52,4.52,0,0,1,2025.86,1306.66Z"/><path class="cls-7" d="M961.73,1116.77s-41,119-19.49,195.89h70.82S1039.18,1172.53,961.73,1116.77Z"/><path class="cls-1" d="M961.73,1116.77s142.55-19.89,221.08,0l59,195.89H1013.06S1039.18,1195.43,961.73,1116.77Z"/><path class="cls-9" d="M790.43,1203.84v12.39c0,4.34-1.41,7.89-3.12,7.89H335c-1.71,0-3.12-3.55-3.12-7.89v-12.39c0-4.33,1.41-7.88,3.12-7.88h452.3C789,1196,790.43,1199.51,790.43,1203.84Z"/><path class="cls-10" d="M790.43,1203.84v12.39c0,4.34-1.29,7.89-2.87,7.89H428.49c-1.57,0-2.86-3.55-2.86-7.89v-12.39c0-4.33,1.29-7.88,2.86-7.88H787.56C789.14,1196,790.43,1199.51,790.43,1203.84Z"/><rect class="cls-9" x="354.85" y="1224.12" width="321.1" height="468.02"/><rect class="cls-11" x="444.83" y="1224.12" width="321.1" height="468.02"/><path class="cls-9" d="M748.69,1666.3H462.09v-429h286.6Zm-283.5-3.09h280.4V1240.43H465.19Z"/><rect class="cls-9" x="463.64" y="1379.24" width="283.5" height="3.09"/><rect class="cls-9" x="463.64" y="1523.91" width="283.5" height="3.09"/><path class="cls-9" d="M634.44,1265H581.83a4.65,4.65,0,0,1-4.64-4.64h0a4.66,4.66,0,0,1,4.64-4.64h52.61a4.66,4.66,0,0,1,4.64,4.64h0A4.65,4.65,0,0,1,634.44,1265Z"/><path class="cls-9" d="M634.44,1406.48H581.83a4.66,4.66,0,0,1-4.64-4.65h0a4.66,4.66,0,0,1,4.64-4.64h52.61a4.66,4.66,0,0,1,4.64,4.64h0A4.66,4.66,0,0,1,634.44,1406.48Z"/><path class="cls-9" d="M634.44,1554H581.83a4.66,4.66,0,0,1-4.64-4.64h0a4.65,4.65,0,0,1,4.64-4.64h52.61a4.65,4.65,0,0,1,4.64,4.64h0A4.66,4.66,0,0,1,634.44,1554Z"/><path class="cls-12" d="M483,1030.59s-26.46-30.87-1.63-50.48c0,0,18.13-11,32.92-10.09,0,0-21,35.14-14.18,38.64s20.53-40.84,20.53-40.84,41.27-4,54.55,2.38c0,0-35.28,28.87-27.85,30.59s45.54-26.62,45.54-26.62,38.41,6.54,36.36,30-15.29,30.67-21.1,30.05-39.85-13.62-40.59-8.85,19.74,20.34,34.09,21.07c0,0-27.08,29.87-45.08,21.25s-19.54-22.29-30.76-27.41-20.79-5.11-16.16.12,24.94,10.3,31.35,21.65,12.18,19-6.45,16.2-48.88-16.43-50.21-32Z"/><path class="cls-12" d="M610.39,1004.77s-104.32-4-127.36,25.82c0,0-5.1,15.26-20.78,29.16l-2.44,6.66s18.08-19.07,24.55-20.22C484.36,1046.19,474.24,1009.23,610.39,1004.77Z"/><path class="cls-12" d="M462.25,1059.75s-22.39,16.56-23.95,46.15l4.07.36s7.15-30.6,20.08-42.56S462.25,1059.75,462.25,1059.75Z"/><path class="cls-13" d="M390.52,991.77S432.61,968.2,413,936.21c0,0-15.71-19.64-32.55-24.7,0,0,9,47.71,0,48.83s-6.17-53.88-6.17-53.88-44.34-21.32-61.73-19.64c0,0,27.5,46.58,18.52,45.46S291.18,884,291.18,884s-45.46-8.42-52.75,18.52,4.49,40.4,11.22,42.09,50,1.12,48.83,6.73S268.17,966,251.9,960.9c0,0,18,44.34,41.53,42.09s30.86-16.83,45.45-18,25.26,2.81,18,6.74-32,1.29-43.77,11.3-21.33,16.2.56,20.69,61.17,1.68,69-15.16Z"/><path class="cls-12" d="M259.19,911s117.86,38.17,131.33,80.82c0,0-.57,19.08,11.22,41v8.41s-12.35-28.62-19.08-32.55C382.66,1008.6,409,971.56,259.19,911Z"/><path class="cls-12" d="M401.74,1032.74s18.17,27.6,7.81,61.19l-4.67-1.25s4.54-37-5-55.62S401.74,1032.74,401.74,1032.74Z"/><path class="cls-13" d="M457.48,959.26S402,928.19,427.89,886c0,0,20.71-25.89,42.9-32.55,0,0-11.83,62.88,0,64.36s8.14-71,8.14-71,58.44-28.11,81.38-25.89c0,0-36.25,61.4-24.41,59.92s52.52-63.62,52.52-63.62,59.92-11.09,69.54,24.41-5.92,53.27-14.8,55.49S577.32,898.6,578.8,906s40,19.23,61.4,12.57c0,0-23.67,58.45-54.74,55.49s-40.69-22.2-59.92-23.68-33.29,3.7-23.67,8.88,42.16,1.7,57.7,14.9,28.11,21.35-.74,27.27-80.64,2.22-91-20Z"/><path class="cls-12" d="M630.59,852.73S475.23,903,457.48,959.26c0,0,.74,25.15-14.8,54v11.1s16.28-37.73,25.16-42.91C467.84,981.45,433.07,932.63,630.59,852.73Z"/><path class="cls-12" d="M442.68,1013.26s-24,36.39-10.3,80.67l6.17-1.65s-6-48.78,6.55-73.32S442.68,1013.26,442.68,1013.26Z"/><path class="cls-14" d="M564.29,1081.29a108.68,108.68,0,1,1-217.36,0Z"/><path class="cls-15" d="M492.75,1081.29c0,40.72-9.75,82.19-42.9,100.8-5.51,3.1-24-.25-30,1.85a108.72,108.72,0,0,1-72.91-102.65Z"/><path class="cls-14" d="M565.79,1195.5H345.42a13.42,13.42,0,0,1,13.42-13.41H552.39A13.41,13.41,0,0,1,565.79,1195.5Z"/><path class="cls-15" d="M462.54,1195.5H345.42a13.42,13.42,0,0,1,13.42-13.41h90.29A13.41,13.41,0,0,1,462.54,1195.5Z"/><rect class="cls-16" x="343.35" y="1081.29" width="223.41" height="3.33"/><path class="cls-15" d="M614.39,1132.94a51.14,51.14,0,1,1,51.14,51.15A51.14,51.14,0,0,1,614.39,1132.94Z"/><path class="cls-15" d="M631.72,1170.54l-6,18.6a4.88,4.88,0,0,0,4.64,6.36h1.37a4.88,4.88,0,0,0,3.27-1.26l14-12.68a4.86,4.86,0,0,0-.67-7.73L639,1167.9A4.86,4.86,0,0,0,631.72,1170.54Z"/><path class="cls-15" d="M702.14,1170.54l6,18.6a4.88,4.88,0,0,1-4.64,6.36H702.1a4.88,4.88,0,0,1-3.27-1.26l-14-12.68a4.86,4.86,0,0,1,.67-7.73l9.42-5.93A4.86,4.86,0,0,1,702.14,1170.54Z"/><path class="cls-15" d="M615.32,1072.15a31.24,31.24,0,0,0-10.5,32.45,8.93,8.93,0,0,0,14.23,4.69l31.82-25.76a8.85,8.85,0,0,0-1.19-14.65A31.2,31.2,0,0,0,615.32,1072.15Z"/><path class="cls-15" d="M718.64,1076.46a31.22,31.22,0,0,0-33.33-7.19,8.93,8.93,0,0,0-3.24,14.63L710.88,1113a8.86,8.86,0,0,0,14.46-2.66A31.21,31.21,0,0,0,718.64,1076.46Z"/><path class="cls-1" d="M624,1132.94a41.52,41.52,0,1,1,41.52,41.52A41.52,41.52,0,0,1,624,1132.94Z"/><path class="cls-11" d="M695.17,1148.4a2.08,2.08,0,1,1-2.82.79A2.07,2.07,0,0,1,695.17,1148.4Z"/><path class="cls-11" d="M637.92,1116.13a2.08,2.08,0,1,1-2.82.79A2.07,2.07,0,0,1,637.92,1116.13Z"/><path class="cls-11" d="M663.45,1100.08a2.08,2.08,0,1,1,2.08,2.08A2.08,2.08,0,0,1,663.45,1100.08Z"/><path class="cls-11" d="M663.45,1165.8a2.08,2.08,0,1,1,2.08,2.08A2.08,2.08,0,0,1,663.45,1165.8Z"/><path class="cls-11" d="M681.18,1104a2.08,2.08,0,1,1,.67,2.86A2.08,2.08,0,0,1,681.18,1104Z"/><path class="cls-11" d="M646.35,1159.71a2.08,2.08,0,1,1,.66,2.86A2.08,2.08,0,0,1,646.35,1159.71Z"/><path class="cls-11" d="M693.16,1115a2.08,2.08,0,1,1-.79,2.83A2.08,2.08,0,0,1,693.16,1115Z"/><path class="cls-11" d="M635.86,1147.22a2.08,2.08,0,1,1-.79,2.83A2.08,2.08,0,0,1,635.86,1147.22Z"/><path class="cls-11" d="M698.39,1130.87a2.08,2.08,0,1,1-2.08,2.07A2.08,2.08,0,0,1,698.39,1130.87Z"/><path class="cls-11" d="M632.67,1130.87a2.08,2.08,0,1,1-2.08,2.07A2.07,2.07,0,0,1,632.67,1130.87Z"/><path class="cls-11" d="M683.37,1159.74a2.08,2.08,0,1,1-2.83-.8A2.08,2.08,0,0,1,683.37,1159.74Z"/><path class="cls-11" d="M651.32,1102.37a2.08,2.08,0,1,1-2.83-.8A2.08,2.08,0,0,1,651.32,1102.37Z"/><path class="cls-15" d="M662.25,1132.94a3.28,3.28,0,1,1,3.28,3.29A3.28,3.28,0,0,1,662.25,1132.94Z"/><path class="cls-15" d="M644.37,1132.06l19.61-1.19v3.54l-19.62-1.78A.29.29,0,1,1,644.37,1132.06Z"/><path class="cls-15" d="M666.3,1109.69c.42,9.84,1,23.25,1,23.25h-3.54l1.48-23.28C665.3,1108.61,666.26,1108.63,666.3,1109.69Z"/><path class="cls-1" d="M2083.41,504.18a24,24,0,1,1,24,24A24,24,0,0,1,2083.41,504.18Z"/><path class="cls-17" d="M1927.07,707.31s18.93-28.48,64.2-25.32c0,0,65.72-47.46,135.8-6.32,0,0,74.5-10.2,129.67,8.82,36.78,12.68,48.93,26,48.93,26Z"/><path class="cls-13" d="M2146.19,962.23s-17.94-102.32,71-143.09,124.63-31.77,160.29-118.64,145.6-35.91,145.6-35.91V961.74Z"/><path class="cls-10" d="M2440.82,1313.33s-226.36-103-267.12-103.29-225.89,50.69-268.35,42.19-276.84-81.12-309.11-81.32-533.42,53.21-608.15,141.75c-13.73,16.26,218.78,324.2,355.43,306.75,90.75-11.59,293-309.84,318.29-313.91s511.81,6.12,511.81,6.12C2282.89,1311.62,2440.82,1313.33,2440.82,1313.33Z"/><path class="cls-13" d="M2180.49,299.44c-9.93,25.58-66.24,54.34-113,59.44s-28,44.16-67,72.42-106.85,24-106.85,24V269.05a794.08,794.08,0,0,1,135.14-12q5.3,0,10.61,0,21.13.18,42.36,1.6a759.91,759.91,0,0,1,101.48,13.69C2184.13,281.49,2183.73,291.1,2180.49,299.44Z"/><path class="cls-18" d="M2534.06,451c-3.6-3.47-7.27-6.9-11-10.29v521H1893.61V271.39c-2.17.47-4.35.94-6.51,1.43l-3.56.8q-5.94,1.38-11.84,2.88v725.43H2545V461.85Q2539.61,456.36,2534.06,451Z"/><path class="cls-18" d="M2604.61,1001.93H1807a39.69,39.69,0,0,1,39.7-39.7h718.21a39.7,39.7,0,0,1,39.7,39.7Z"/><path class="cls-18" d="M2228.62,283V980H2205.8V277.32q8.47,2,16.9,4.16Q2225.67,282.25,2228.62,283Z"/><path class="cls-19" d="M1700.19,598.78s-39.12,2.85-54.07,40.57-38,65.67-25.87,82.53,26.9,27,23.34,34.85-27.36,7.88-45.86,27.1-52.36,74.69,1,85.48c40.78,8.24,10.45,59.56,37.25,79.58,34.28,25.62,152,51,190.59,20.69s24.68-91.15,12.17-112.13,27.88-50.83,34-61.24c24.91-42.33-55.11-47.46-43.42-71.29s23.8-46.83-14.78-68.67C1795.61,645.53,1784.51,583.07,1700.19,598.78Z"/><path class="cls-20" d="M2120.9,1239.74c-6.89,73.53-56.29,74.1-242,72-60.1-.7-116.79-1.55-165.91-2.61-102.65-2.22-57.6-32.38-47.63-30.24a101.35,101.35,0,0,0,56.13-.94c54-16.44,131.69-54.25,166.88-52.41,54.44,2.84,125.11-1.63,125.11-1.63s-192-24.74-198.88-57.47-110.1-84.63-87.66-88.75,104.49,7.14,104.49,7.14a775,775,0,0,0,99.67,39.51C2017,1151.25,2126.13,1183.93,2120.9,1239.74Z"/><path class="cls-21" d="M1770.64,841.82c-16.52,7.66-49,6.57-63.16-4.87-7.36-5.94-10.68-8.68-6.16-14.2,7.53-5.22,15.5-33.22,7.66-77.71l3.56.09,59.88,1.47s1.83,18.46,4.74,35.63c2.44,14.31,5.72,28.73,9.26,29.88C1795.81,816.07,1805.75,825.55,1770.64,841.82Z"/><path class="cls-20" d="M1772.42,746.6s1.83,18.45,4.75,35.62c-32.56,4.68-54.79-21.92-64.63-37.1Z"/><path class="cls-21" d="M1790.76,752.45s-72.68,27.79-89.29-17.73-37.17-72.6,8.53-92.27,61.1-5.6,70.34,8.25S1809.23,744.05,1790.76,752.45Z"/><path class="cls-19" d="M1742.89,629.23s-.59,60.71-28.44,79.78-44.17,15.68-44.17,15.68,16.76-27.28,9.77-61.74C1680.05,663,1718.54,609.29,1742.89,629.23Z"/><path class="cls-19" d="M1739.51,635.37s19.28,6.5,27.14,16.77,19.28,19.66,24.85,30.2c0,0,1.88-41.79-22.54-56.18C1743.06,610.92,1739.51,635.37,1739.51,635.37Z"/><path class="cls-19" d="M1742.94,636.17s6.08,61.13-26.17,93.15c0,0,26.27-48.47,16.13-86.6S1742.94,636.17,1742.94,636.17Z"/><path class="cls-1" d="M1765.5,733.18s24-10.39,24.55-11.21.06,4.56,1.25,7.25-7.39,6.93-11.61,8.86S1769.17,739.77,1765.5,733.18Z"/><path class="cls-21" d="M1773.27,806.75s32.27,6.44,77.34-31.69c17.7-15,92.93-63.41,115.3-78.73s94.48-44.58,94.48-44.58L2074,665.67s-82.67,70.37-90.52,73.46-83.5,73.32-86.35,80-33.07,33.49-30.19,67.17C1868.61,906,1773.27,806.75,1773.27,806.75Z"/><path class="cls-21" d="M1706.83,812.51s-25.47,2.58-45.64-19.27c-15.72-17-92.93-63.41-115.29-78.73s-115.06-47.4-115.06-47.4L1422.6,680s97.89,74.18,105.74,77.27,66,58.06,75.54,74.86c9,15.85,35.71,54.65,45.56,71.84C1664.72,930.71,1706.83,812.51,1706.83,812.51Z"/><path class="cls-21" d="M1821.19,806.75s48.4,76.87,51.25,94-20.88,96.79-21.83,108.18-19.93,75.91-19.93,75.91H1687.39s-7.34-103.71-17.9-131.09-34.29-84-34.29-84l76.54-50Z"/><path class="cls-21" d="M2238.79,1589.35l-37.45,6.63c-3.47-6.66-7.22-13.31-11.13-19.9-32-53.63-77.41-104.14-107.26-142.07-88.48-112.39,27.62-152.19-162.39-148.75s-263.76-28.88-264.63-84.89c-.34-21.54,32.25-115.57,32.25-115.57h143.3s-14.49,10.79-8.54,24.13,204.49,70.37,232,78.83c47.92,14.7,53.34,54.36,89.67,142.18,18.92,45.72,63.58,172.11,83.84,229.89C2234.83,1578,2238.79,1589.35,2238.79,1589.35Z"/><path class="cls-21" d="M1442.42,671.9S1420,656.47,1408,654.28s-24.64-4.38-22.45,0,16.43,4.63,15.33,9.71-45.46-2.41-41.62,7.91,31.45,18,41.47,18,38.41-5.21,38.41-5.21Z"/><path class="cls-21" d="M2058.91,652.83s22.38-15.42,34.43-17.61,24.64-4.38,22.45,0-16.43,4.63-15.33,9.71,45.46-2.42,41.62,7.9-31.45,18-41.46,18-38.42-5.21-38.42-5.21Z"/><path class="cls-1" d="M1696.09,811.81s42.08,89.82-36.92,114l22.47,89.92s44.51,34.72,168.34,1c0,0,27.27-83.34,22.46-116.06-4.49-30.5-74-96.13-74-96.13l-8.91,1s34.16,46.74,32.26,60-52.15,24.91-84.69,4.51c-9.37-5.87-31.79-57.53-31.79-57.53Z"/><path class="cls-14" d="M1833.18,1082.51l85.13,37.62s-7.12,19.5-44.84,22.35c-28.29,2.13-69.88-32.06-72.85-49Z"/><path class="cls-14" d="M1688.19,1084.79s-2.65-3.09-.61-8c0,0,65.44,27.63,146,1,0,0,2,2.73-2,7C1831.48,1084.79,1763.15,1113.7,1688.19,1084.79Z"/><path class="cls-1" d="M2292.67,1687.65c-5,7.83-39.86,9.25-45.55,0s-10.68-29.18-24.91-39.15-31.32-14.94-24.91-30.6,4-21.92,4-21.92c-3.47-6.66-7.22-13.31-11.13-19.9,11.58-3.27,26.49-8.53,38.26-16.25,6.36,18.13,10.32,29.52,10.32,29.52s25.41,42.32,30.15,62.24S2297.65,1679.82,2292.67,1687.65Z"/><path class="cls-1" d="M1762.58,1310.06c-102.65-2.22-177-6.31-175.67-10.81,1.89-6.63,7.56-19,40.91-21.82s39-19.93,56.82-20.64,15.66,19.93,25.62,22.07c3.53.75,25.64-6,55.16-15C1766.23,1276.85,1770,1294.56,1762.58,1310.06Z"/><path class="cls-15" d="M1688.19,1084.79c8.54-1.62,46.26,25.9,135.25,2.4,0,0,27.5,24.83,44.1,35.36a272.18,272.18,0,0,0,31.81,17.48s9.4,110.34-159.51,139.76c0,0-90.09-8.73-92-80.85C1645.92,1125.38,1688.19,1084.79,1688.19,1084.79Z"/><path class="cls-10" d="M2228.62,1311.62s123.91,57.71,136.36,52.05,75.84-50.34,75.84-50.34L2336.58,1298Z"/><path class="cls-10" d="M1343.52,1619.41s-9.32,14.46,0,32.2c0,0,12.34,0,21.77-8.68C1365.29,1642.93,1361.75,1620.42,1343.52,1619.41Z"/><path class="cls-10" d="M2362.72,1361.83s-5.66,8.68-1.89,23c0,0,12.83,1.89,19.25-2.64C2380.08,1382.21,2374.06,1362.9,2362.72,1361.83Z"/><rect class="cls-22" x="155.75" y="1692.86" width="2688.5" height="7.13" rx="3.05"/><path class="cls-14" d="M1475.54,1635.51s-66.79,20.2-70,57.35H1614s-1.63-9.56-7.6-9.56-89.46-1.09-89.46-1.09S1500,1635,1475.54,1635.51Z"/><path class="cls-15" d="M1733.93,1635.51s-66.79,20.2-70,57.35h208.53s-1.63-9.56-7.61-9.56-89.45-1.09-89.45-1.09S1758.37,1635,1733.93,1635.51Z"/><path class="cls-23" d="M2385.8,1603.14s17.44,74.68,8.07,79.68c0,0-8.06-2.75-10.92,4.1a9.69,9.69,0,0,0-.79,5.94H2404s3.5-10,8.16-14.47c2.56-2.46,20.65-69.36,20.65-69.36Z"/><path class="cls-24" d="M2360.49,1603.14s17.43,74.68,8.06,79.68c0,0-8.06-2.75-10.91,4.1-.75,1.79-.16,3.46.27,5.94h19.62s4.64-10,9.29-14.47c2.57-2.46,20.65-69.36,20.65-69.36Z"/><path class="cls-19" d="M2360.72,1485.85s20.55,25.45,15.05,35.87l-25.36-12S2348.28,1501.28,2360.72,1485.85Z"/><path class="cls-24" d="M2386.77,1548.15c6.53-17.79-4.47-37.52-22.94-41.77-8.5-2-19.74-3-28.16,10.38-1.91,3-8.83,6.8-12.43,7.19-2,.21-4.06,10.88-3.92,12.24,2,19.4,12,23.93,27.79,31.42C2363.76,1575.53,2380.26,1565.88,2386.77,1548.15Z"/><path class="cls-24" d="M2356,1512.36l25.37,12a10.4,10.4,0,0,0,.82-6.06c-1.43-11.92-15.88-29.81-15.88-29.81C2353.84,1503.92,2356,1512.36,2356,1512.36Z"/><path class="cls-24" d="M2382.15,1518.31s10.09,8.27,10.91,21.19a9.65,9.65,0,0,0-2.18-3.3s2.86,7.71-.56,12.17a7.58,7.58,0,0,0-.73-3.22s.75,6.28-6,11.86l.19-2.17a29.37,29.37,0,0,0-3,5.67c-.64,2.16-4.31,1.21-4.38.82s3.28-25.57,3.28-25.57l-3.93-14Z"/><path class="cls-23" d="M2322.64,1524.18a2.62,2.62,0,0,1,2.4-.78s.83,4.93-3.84,6.36C2321.2,1529.76,2321.56,1525.23,2322.64,1524.18Z"/><path class="cls-23" d="M2333.94,1533c.19,0,19.52,2.39,35.73,14h0c-16.49-11.78-35.48-14.57-35.68-14.59Z"/><path class="cls-23" d="M2332.58,1534.62c.22.07,21.85,8.28,37.27,26.21h0c-15.69-18.25-36.81-26.85-37-26.92Z"/><path class="cls-23" d="M2331,1536.58c.17.1,16.52,10.68,26.06,28.16h0c-9.7-17.79-25.57-28.59-25.74-28.7Z"/><path class="cls-25" d="M2366.28,1488.5s6.32,22,9.48,25.55a13.08,13.08,0,0,0,6.4,4.26C2380.73,1506.39,2366.28,1488.5,2366.28,1488.5Z"/><path class="cls-23" d="M2556.3,1596.73c8.61-21.7-.23-68.4-42.49-50.21-9,2.72-19.77,9.21-32.71,21.06,0,0-18.57,43.74,54.65,72.68,0,0,7.26,3.14,8.29,9.81s2.18,36.77-.3,37.68-6.16-2.54-8.84,1.26-1.74,10.07-1.74,10.07h26.61s12.71-67.57,12-72.94S2551.79,1608.1,2556.3,1596.73Z"/><path class="cls-24" d="M2374.22,1619.91c69.81,45.76,145.33,6,145.33,6l8.26-82.77c-20-.13-24.9,3.34-37.08,7.12-6,1.87-11.07,4.19-15.55,5.4-31,8.36-56.45,5.19-67.27,5.19-16.38,0-33.69-26.92-33.69-26.92l-22.42,29.38S2352.94,1606,2374.22,1619.91Z"/><path class="cls-24" d="M2550.75,1553.7l4.34,18.43s78.43-24.79,58.31-61.28c-5.75-10.41-14.36-27.83-3-34.93,9.68-6.06,6-18.69.38-21.71-11.79-6.36-23.77,1.68-29.39,9.54-10.68,15,3.51,38.34,3.51,38.34C2602.29,1539.52,2550.75,1553.7,2550.75,1553.7Z"/><path class="cls-24" d="M2548.54,1606.16c8.43-6,25.21-67.89-20.73-65.34-14.22,1.59-26.85,4.7-43.07,11.38,0,0-29.27,35.43,29.54,87.77,0,0,5.73,5.44,4.41,12.06s-10.59,35.28-13.23,35.28-11.47-3.82-15.29-1.17,1.47,12.94,1.47,12.94h26.91s33.23-54.7,34.4-60S2538.54,1613.21,2548.54,1606.16Z"/><path class="cls-26" d="M2346.46,883.57s-27.37,11.1-46.82-16.8C2299.64,866.77,2331.21,861.41,2346.46,883.57Z"/><path class="cls-26" d="M2348.39,872.12s1.91-9.78,13.39-10.12C2361.78,862,2357.46,871.9,2348.39,872.12Z"/><path class="cls-26" d="M2342.61,814.88s-13.26,1.41-18.23-13.12C2324.38,801.76,2338.75,803.36,2342.61,814.88Z"/><path class="cls-26" d="M2311.13,622.65c26.77-5.74,27.23-27.64,27.23-27.64C2306.82,605,2311.13,622.65,2311.13,622.65Z"/><path class="cls-26" d="M2309.29,617.65s-16.7,6.78-28.58-10.25C2280.71,607.4,2300,604.13,2309.29,617.65Z"/><path class="cls-26" d="M2345.94,947.8l3.46,4a.87.87,0,0,0,1.52-.58c-.2-112.72-14.51-212.87-26.53-272-13.12-64.49-26.43-102.62-26.56-103h0c.13.38,12.14,39.12,25.21,103.42,12,59.19,25.82,136.54,22.33,266.6A2.29,2.29,0,0,0,2345.94,947.8Z"/><path class="cls-15" d="M2298.06,560.89c4.27,3.43,20.62,18.06,4.76,29.33,0,0-12.16,3.86-16.19-5.51a59.65,59.65,0,0,1-4.12-18.49,1.61,1.61,0,0,1,1.48-1.71,12.43,12.43,0,0,0,3.43-.78c1.51-.58,2.27-2.85,4.31-3.35a12.1,12.1,0,0,1,4.05-.45A4.22,4.22,0,0,1,2298.06,560.89Z"/><path class="cls-26" d="M2307.14,586.14a9.84,9.84,0,0,0-3,10.08l0,2.3a10.84,10.84,0,0,0-7.23-7.51S2302.26,591.6,2307.14,586.14Z"/><path class="cls-27" d="M2311.13,622.65c26.77-5.74,27.23-27.64,27.23-27.64S2317.15,606.65,2311.13,622.65Z"/><path class="cls-26" d="M2336.85,607.65s16.84,6.44,28.37-10.83C2365.22,596.82,2345.88,593.94,2336.85,607.65Z"/><path class="cls-26" d="M2306.82,938.46l-3.37,4a.88.88,0,0,1-1.54-.55c-2.06-112.7,10.24-213.11,21.08-272.43,11.82-64.74,24.36-103.12,24.49-103.5h0c-.13.37-11.35,39.34-23.14,103.9-10.85,59.41-23.07,137-17,267A2.24,2.24,0,0,1,2306.82,938.46Z"/><path class="cls-15" d="M2346.94,550.67c-4.2,3.52-20.25,18.46-4.17,29.42,0,0,12.23,3.61,16.07-5.83a59.5,59.5,0,0,0,3.75-18.58,1.6,1.6,0,0,0-1.51-1.67,13,13,0,0,1-3.45-.71c-1.51-.55-2.32-2.81-4.37-3.27a12,12,0,0,0-4.06-.37A4.31,4.31,0,0,0,2346.94,550.67Z"/><path class="cls-26" d="M2338.37,576.1a9.83,9.83,0,0,1,3.25,10v2.29a10.83,10.83,0,0,1,7.08-7.65S2343.35,581.46,2338.37,576.1Z"/><path class="cls-26" d="M2329.71,587.91s-17.78,3-25.65-16.25C2304.06,571.66,2323.58,572.68,2329.71,587.91Z"/><path class="cls-26" d="M2293.48,918.09l2.51,4.64a.87.87,0,0,0,1.61-.22c24.39-110.06,32.26-210.92,33.42-271.2,1.26-65.8-3.41-105.91-3.46-106.31h0c.05.4,3.31,40.82,2.05,106.43-1.16,60.39-4.58,138.88-36.35,265.05A2.25,2.25,0,0,0,2293.48,918.09Z"/><path class="cls-15" d="M2331.13,530.06c3.42,4.28,16.19,22.12-1.75,29.67,0,0-12.71,1.1-14.59-8.92a59.63,59.63,0,0,1,0-18.94,1.61,1.61,0,0,1,1.82-1.34,12.58,12.58,0,0,0,3.52,0c1.6-.24,2.84-2.29,4.93-2.33a12,12,0,0,1,4.06.44A4.27,4.27,0,0,1,2331.13,530.06Z"/><path class="cls-26" d="M2334.48,556.68a9.85,9.85,0,0,0-5.17,9.18l-.45,2.25a10.86,10.86,0,0,0-5.42-8.91S2328.54,561,2334.48,556.68Z"/><path class="cls-26" d="M2315,568.11s0-14.08-12.13-18.5C2302.91,549.61,2300.24,561.35,2315,568.11Z"/><path class="cls-28" d="M2343.53,545.48s-.35-10.74,9.58-13.84C2353.11,531.64,2355.51,541.64,2343.53,545.48Z"/><path class="cls-28" d="M2310.93,610.11c-.36.31-5.18-10.45,4.63-19.1C2315.56,591,2319.66,602.53,2310.93,610.11Z"/><path class="cls-26" d="M2304.06,609.27c.27.07.08-5.36-5-6.13C2299,603.14,2298.17,607.66,2304.06,609.27Z"/><path class="cls-26" d="M2354.88,591s4.3-8.91,18.07-7.36C2373,583.65,2370.88,593.2,2354.88,591Z"/><path class="cls-15" d="M2278.78,961H2367a9.73,9.73,0,0,0,9.63-11.13l-41.09-283.14a5.36,5.36,0,0,0-5.31-4.6h-13.12a5.73,5.73,0,0,0-5.67,4.89l-42.06,283.13A9.46,9.46,0,0,0,2278.78,961Z"/><path class="cls-29" d="M2347.49,952.43l-21.81-290.25a5.37,5.37,0,0,1,4.6,4.54l41.08,283.14a9.72,9.72,0,0,1-9.62,11.13h-17.65A10.44,10.44,0,0,0,2347.49,952.43Z"/></svg>