<svg id="_лой_1" data-name="‘лой_1" xmlns="http://www.w3.org/2000/svg" viewBox="0 0 3200 2000"><defs><style>.cls-1{fill:#fff;}.cls-2{fill:#ebf3fa;}.cls-17,.cls-3{fill:#f8fcff;}.cls-25,.cls-3{opacity:0.5;}.cls-4{fill:#f9ddbf;}.cls-5{fill:#eac3a2;}.cls-6{fill:#273f76;}.cls-7{fill:#ecf3fe;}.cls-8{fill:#d67330;}.cls-9{fill:#77a4e5;}.cls-10{fill:#9fc3f7;}.cls-11{fill:#b0d4ff;}.cls-12{fill:#82b378;}.cls-13{fill:#a8d29f;}.cls-14{fill:#ed7d2b;}.cls-15{fill:#f99746;}.cls-16{fill:#b5453c;}.cls-18{fill:#b5cffc;}.cls-19{fill:#233862;}.cls-20{fill:#e8945b;}.cls-21{fill:#ffb27d;}.cls-22{fill:#2e3552;}.cls-23{fill:#163560;}.cls-24,.cls-25{fill:#2b478b;}.cls-26{fill:#6bb7bf;}.cls-27{fill:#8ad8db;}.cls-28{fill:#ed9f4a;}.cls-29{fill:#ffb278;}</style></defs><title>bedroom1</title><rect class="cls-1" width="3200" height="2000"/><path class="cls-2" d="M3027.23,1883.25,338,1882.48s-1-1-2.76-3c-27.94-30.57-255.88-293.11-147.95-607.23,18.81-54.76,47.83-111.08,89.89-168,265.16-359,574.31-334.4,801.12-188.75,96.6,62,375.13,7.65,612.19-357.59,75.72-116.68,195.21-189.44,331.15-222.61q6.64-1.63,13.34-3.14c1.34-.28,2.66-.58,4-.87,2.44-.53,4.89-1.05,7.33-1.56a778,778,0,0,1,152.17-15.61c4,0,7.95,0,11.94,0q23.79.19,47.7,1.74a885.78,885.78,0,0,1,139.71,20.32q9.54,2.16,19,4.54,3.34.83,6.67,1.7l.69.17q19.38,5.06,38.54,11c108.38,33.44,210,87.65,292.34,160.67,4.16,3.68,8.29,7.42,12.34,11.21s8.28,7.81,12.33,11.79C2922,676.78,2996.81,877.7,2930,1128.24,2831.14,1499.09,3231,1512.57,3027.23,1883.25Z"/><path class="cls-3" d="M2755.05,514.24c-82.38-73-184-127.23-292.34-160.67q-19.14-5.93-38.54-11l-.69-.17q-3.33-.87-6.67-1.7-9.48-2.37-19-4.54-12.67-2.9-25.45-5.41a883,883,0,0,0-114.26-14.91q-23.88-1.54-47.7-1.74c-4,0-8,0-11.94,0a923,923,0,0,0-152.17,13.06c-2.44.42-4.89.85-7.33,1.3l-4,.74v772.55h732.45V525.45C2763.34,521.66,2759.21,517.92,2755.05,514.24Z"/><path class="cls-4" d="M2215.31,1628.77l39.82,84.13v0L2331.84,1875a8,8,0,0,0,7.24,4.5h.63a8.29,8.29,0,0,0,8.19-10.45L2287,1658.2l-8.88-30.75Z"/><path class="cls-5" d="M2255.13,1712.9c-3.79-38.26,31.87-54.7,31.87-54.7l-8.88-30.75-62.81,1.32Z"/><path class="cls-4" d="M2626.57,1628.77l39.82,84.13v0L2743.1,1875a8,8,0,0,0,7.23,4.5h.63a8.3,8.3,0,0,0,8.2-10.45l-60.9-210.86-8.88-30.75Z"/><path class="cls-5" d="M2666.39,1712.9c-3.8-38.26,31.87-54.7,31.87-54.7l-8.88-30.75-62.81,1.32Z"/><path class="cls-4" d="M2759.47,1479v140.53c0,8.75-7.4,15.91-16.44,15.91H926.24c-9,0-16.44-7.16-16.44-15.91V1479c0-8.75,7.39-15.91,16.44-15.91H2743C2752.07,1463.05,2759.47,1470.21,2759.47,1479Z"/><path class="cls-5" d="M992,1627.45l-8.87,30.75-60.91,210.86a8.3,8.3,0,0,0,8.2,10.45h.63a8,8,0,0,0,7.23-4.5L1015,1712.92v0l39.82-84.13Z"/><path class="cls-5" d="M1316,1627.45l-8.88,30.75-60.9,210.86a8.3,8.3,0,0,0,8.2,10.45h.63a8,8,0,0,0,7.23-4.5L1339,1712.92v0l39.82-84.13Z"/><rect class="cls-5" x="885.13" y="958.6" width="717.95" height="676.8" rx="16.77"/><path class="cls-4" d="M1627.75,976.57V1520.1c0,9.89-7.4,18-16.44,18H926.24c-9,0-16.44-8.08-16.44-18V976.57c0-9.89,7.4-18,16.44-18h685.07C1620.35,958.6,1627.75,966.68,1627.75,976.57Z"/><path class="cls-5" d="M1040.33,1509s-126-9.73-130.53-12.73v-112c26.58-24.32,78.77-52,78.77-52Z"/><path class="cls-5" d="M1076.3,1089.34c0-6.46,4.64-11.69,10.36-11.69s10.36,5.23,10.36,11.69-4.64,11.68-10.36,11.68S1076.3,1095.79,1076.3,1089.34Z"/><path class="cls-5" d="M1490.68,1089.34c0-6.46,4.64-11.69,10.36-11.69s10.36,5.23,10.36,11.69S1506.76,1101,1501,1101,1490.68,1095.79,1490.68,1089.34Z"/><path class="cls-6" d="M1076.3,1309.75c0-6.45,4.64-11.69,10.36-11.69s10.36,5.24,10.36,11.69-4.64,11.69-10.36,11.69S1076.3,1316.21,1076.3,1309.75Z"/><path class="cls-5" d="M1490.68,1309.75c0-6.45,4.64-11.69,10.36-11.69s10.36,5.24,10.36,11.69-4.64,11.69-10.36,11.69S1490.68,1316.21,1490.68,1309.75Z"/><path class="cls-5" d="M2152.51,1479v140.53c0,8.75-7.51,15.91-16.68,15.91H908.8c-9.17,0-16.68-7.16-16.68-15.91V1479c0-8.75,7.51-15.91,16.68-15.91h1227C2145,1463.05,2152.51,1470.21,2152.51,1479Z"/><path class="cls-7" d="M1309.6,1250.77s-46.13,129.71-21.95,213.41h79.75S1396.81,1311.52,1309.6,1250.77Z"/><path class="cls-1" d="M1309.6,1250.77s160.5-21.67,248.92,0L1625,1464.18H1367.4S1396.81,1336.46,1309.6,1250.77Z"/><path class="cls-8" d="M2195.18,1457.65l-2.42-1.27A5.07,5.07,0,0,1,2195.18,1457.65Z"/><path class="cls-7" d="M997,1250.77s-46.13,129.71-21.94,213.41h79.74S1084.22,1311.52,997,1250.77Z"/><path class="cls-1" d="M997,1250.77s160.5-21.67,248.93,0l66.45,213.41H1054.81S1084.22,1336.46,997,1250.77Z"/><path class="cls-9" d="M804.13,1345.63v13.5c0,4.73-1.58,8.59-3.51,8.59H291.35c-1.93,0-3.51-3.86-3.51-8.59v-13.5c0-4.72,1.58-8.59,3.51-8.59H800.62C802.55,1337,804.13,1340.91,804.13,1345.63Z"/><path class="cls-10" d="M804.13,1345.63v13.5c0,4.73-1.45,8.59-3.22,8.59H396.6c-1.77,0-3.22-3.86-3.22-8.59v-13.5c0-4.72,1.45-8.59,3.22-8.59H800.91C802.68,1337,804.13,1340.91,804.13,1345.63Z"/><rect class="cls-9" x="313.69" y="1367.72" width="361.55" height="509.9"/><rect class="cls-11" x="415.01" y="1367.72" width="361.55" height="509.9"/><path class="cls-9" d="M757.13,1849.47H434.44V1382.13H757.13Zm-319.21-3.37H753.65V1385.5H437.92Z"/><rect class="cls-9" x="436.18" y="1536.73" width="319.21" height="3.37"/><rect class="cls-9" x="436.18" y="1694.34" width="319.21" height="3.37"/><path class="cls-9" d="M628.5,1412.27H569.26a5.16,5.16,0,0,1-5.22-5.06h0a5.16,5.16,0,0,1,5.22-5.06H628.5a5.16,5.16,0,0,1,5.22,5.06h0A5.16,5.16,0,0,1,628.5,1412.27Z"/><path class="cls-9" d="M628.5,1566.4H569.26a5.16,5.16,0,0,1-5.22-5.06h0a5.16,5.16,0,0,1,5.22-5.06H628.5a5.16,5.16,0,0,1,5.22,5.06h0A5.16,5.16,0,0,1,628.5,1566.4Z"/><path class="cls-9" d="M628.5,1727.07H569.26A5.16,5.16,0,0,1,564,1722h0a5.16,5.16,0,0,1,5.22-5.06H628.5a5.16,5.16,0,0,1,5.22,5.06h0A5.16,5.16,0,0,1,628.5,1727.07Z"/><path class="cls-12" d="M458,1156.88s-29.79-33.64-1.83-55c0,0,20.42-12,37.07-11,0,0-23.6,38.28-16,42.09s23.11-44.49,23.11-44.49,46.46-4.36,61.41,2.59c0,0-39.72,31.46-31.36,33.33s51.28-29,51.28-29,43.25,7.12,40.94,32.65-17.2,33.41-23.76,32.73-44.86-14.83-45.69-9.63,22.23,22.16,38.38,22.95c0,0-30.5,32.54-50.76,23.15s-22-24.28-34.63-29.86-23.41-5.57-18.2.13,28.08,11.22,35.3,23.59,13.71,20.7-7.26,17.65-55-17.9-56.54-34.9Z"/><path class="cls-12" d="M601.42,1128.75S484,1124.37,458,1156.88c0,0-5.74,16.62-23.39,31.76l-2.75,7.26s20.35-20.77,27.64-22C459.51,1173.87,448.12,1133.6,601.42,1128.75Z"/><path class="cls-12" d="M434.62,1188.64s-25.21,18-27,50.28l4.57.4s8-33.34,22.61-46.37S434.62,1188.64,434.62,1188.64Z"/><path class="cls-13" d="M353.85,1114.58s47.39-25.68,25.27-60.53c0,0-17.69-21.4-36.65-26.9,0,0,10.11,52,0,53.19s-7-58.7-7-58.7-49.92-23.23-69.51-21.4c0,0,31,50.75,20.85,49.53S242,997.19,242,997.19s-51.18-9.18-59.4,20.17,5.06,44,12.64,45.86,56.24,1.22,55,7.34-34.12,15.89-52.44,10.39c0,0,20.22,48.3,46.76,45.86s34.75-18.34,51.18-19.57,28.44,3.06,20.22,7.34-36,1.4-49.29,12.32-24,17.64.64,22.53,68.87,1.84,77.72-16.51Z"/><path class="cls-12" d="M206,1026.53s132.7,41.58,147.87,88c0,0-.64,20.79,12.63,44.63v9.18s-13.9-31.19-21.48-35.47C345,1132.92,374.7,1092.57,206,1026.53Z"/><path class="cls-12" d="M366.48,1159.21s20.47,30.07,8.8,66.68l-5.26-1.37s5.11-40.32-5.6-60.59S366.48,1159.21,366.48,1159.21Z"/><path class="cls-13" d="M429.24,1079.16s-62.47-33.85-33.31-79.79c0,0,23.32-28.21,48.31-35.46,0,0-13.33,68.51,0,70.12s9.16-77.38,9.16-77.38S519.2,926,545,928.45c0,0-40.82,66.89-27.49,65.28s59.14-69.31,59.14-69.31S644.15,912.33,655,951s-6.67,58-16.66,60.45-74.14,1.61-72.47,9.67,45,21,69.14,13.7c0,0-26.66,63.68-61.64,60.45s-45.82-24.18-67.47-25.79-37.49,4-26.66,9.67,47.48,1.85,65,16.24,31.66,23.26-.83,29.7-90.79,2.42-102.45-21.76Z"/><path class="cls-12" d="M624.16,963.1s-174.92,54.81-194.92,116.06c0,0,.84,27.41-16.65,58.84v12.09s18.32-41.1,28.32-46.75C440.91,1103.34,401.76,1050.15,624.16,963.1Z"/><path class="cls-12" d="M412.59,1138s-27,39.64-11.6,87.89l6.94-1.81s-6.74-53.14,7.38-79.87S412.59,1138,412.59,1138Z"/><path class="cls-14" d="M549.51,1212.11c0,65.39-54.79,118.41-122.37,118.41a125.63,125.63,0,0,1-40.27-6.57c-47.8-16.11-82.1-60.1-82.1-111.84Z"/><path class="cls-15" d="M469,1212.11c0,44.36-11,89.55-48.3,109.82-6.21,3.38-27-.27-33.79,2-47.8-16.11-82.1-60.1-82.1-111.84Z"/><path class="cls-14" d="M551.2,1336.55H303.08a14.36,14.36,0,0,1,4.42-10.34,15.33,15.33,0,0,1,10.68-4.28H536.11A14.87,14.87,0,0,1,551.2,1336.55Z"/><path class="cls-15" d="M435,1336.55H303.08a14.36,14.36,0,0,1,4.42-10.34,15.33,15.33,0,0,1,10.68-4.28H419.85A14.87,14.87,0,0,1,435,1336.55Z"/><rect class="cls-16" x="300.74" y="1212.11" width="251.55" height="3.63"/><path class="cls-15" d="M605.92,1268.39c0-30.78,25.78-55.72,57.58-55.72s57.59,24.94,57.59,55.72-25.78,55.72-57.59,55.72S605.92,1299.16,605.92,1268.39Z"/><path class="cls-15" d="M625.43,1309.34l-6.71,20.28a5.34,5.34,0,0,0,5.22,6.93h1.54a5.56,5.56,0,0,0,3.68-1.38l15.78-13.81a5.2,5.2,0,0,0-.76-8.43l-10.6-6.46A5.56,5.56,0,0,0,625.43,1309.34Z"/><path class="cls-15" d="M704.73,1309.34l6.71,20.28a5.34,5.34,0,0,1-5.22,6.93h-1.54a5.56,5.56,0,0,1-3.68-1.38l-15.78-13.81a5.2,5.2,0,0,1,.76-8.43l10.6-6.46A5.56,5.56,0,0,1,704.73,1309.34Z"/><path class="cls-15" d="M607,1202.16a33.38,33.38,0,0,0-11.81,35.35,10.17,10.17,0,0,0,16,5.11L647,1214.55a9.48,9.48,0,0,0-1.34-16A36.12,36.12,0,0,0,607,1202.16Z"/><path class="cls-15" d="M723.31,1206.85a36,36,0,0,0-37.53-7.84,9.59,9.59,0,0,0-3.66,15.94l32.45,31.69c5,4.84,13.6,3.42,16.28-2.89A33.23,33.23,0,0,0,723.31,1206.85Z"/><path class="cls-1" d="M616.75,1268.39c0-25,20.93-45.24,46.75-45.24s46.75,20.26,46.75,45.24-20.93,45.23-46.75,45.23S616.75,1293.37,616.75,1268.39Z"/><path class="cls-11" d="M696.88,1285.23a2.22,2.22,0,0,1,.89,3.08,2.37,2.37,0,0,1-3.18.86,2.21,2.21,0,0,1-.89-3.08A2.38,2.38,0,0,1,696.88,1285.23Z"/><path class="cls-11" d="M632.42,1250.07a2.23,2.23,0,0,1,.89,3.08,2.39,2.39,0,0,1-3.19.86,2.22,2.22,0,0,1-.88-3.08A2.37,2.37,0,0,1,632.42,1250.07Z"/><path class="cls-11" d="M661.16,1232.59a2.34,2.34,0,1,1,2.34,2.26A2.31,2.31,0,0,1,661.16,1232.59Z"/><path class="cls-11" d="M661.16,1304.19a2.34,2.34,0,1,1,2.34,2.26A2.3,2.3,0,0,1,661.16,1304.19Z"/><path class="cls-11" d="M681.13,1236.83a2.38,2.38,0,0,1,3.22-.72,2.21,2.21,0,0,1,.74,3.12,2.38,2.38,0,0,1-3.22.72A2.23,2.23,0,0,1,681.13,1236.83Z"/><path class="cls-11" d="M641.91,1297.55a2.38,2.38,0,0,1,3.22-.72,2.21,2.21,0,0,1,.74,3.12,2.38,2.38,0,0,1-3.22.72A2.23,2.23,0,0,1,641.91,1297.55Z"/><path class="cls-11" d="M694.62,1248.89a2.37,2.37,0,0,1,3.18.86,2.23,2.23,0,0,1-.89,3.08,2.4,2.4,0,0,1-3.19-.86A2.22,2.22,0,0,1,694.62,1248.89Z"/><path class="cls-11" d="M630.1,1284a2.37,2.37,0,0,1,3.18.86,2.23,2.23,0,0,1-.89,3.08,2.4,2.4,0,0,1-3.19-.86A2.22,2.22,0,0,1,630.1,1284Z"/><path class="cls-11" d="M700.5,1266.13a2.26,2.26,0,1,1-2.33,2.26A2.3,2.3,0,0,1,700.5,1266.13Z"/><path class="cls-11" d="M626.5,1266.13a2.26,2.26,0,1,1-2.34,2.26A2.3,2.3,0,0,1,626.5,1266.13Z"/><path class="cls-11" d="M683.59,1297.59a2.22,2.22,0,0,1-.9,3.07,2.38,2.38,0,0,1-3.18-.87,2.21,2.21,0,0,1,.9-3.07A2.38,2.38,0,0,1,683.59,1297.59Z"/><path class="cls-11" d="M647.5,1235.08a2.22,2.22,0,0,1-.9,3.07,2.38,2.38,0,0,1-3.18-.87,2.22,2.22,0,0,1,.9-3.08A2.39,2.39,0,0,1,647.5,1235.08Z"/><path class="cls-15" d="M659.81,1268.39a3.7,3.7,0,1,1,3.69,3.57A3.63,3.63,0,0,1,659.81,1268.39Z"/><path class="cls-15" d="M639.68,1267.43l22.08-1.3V1270l-22.09-1.93A.31.31,0,1,1,639.68,1267.43Z"/><path class="cls-15" d="M664.37,1243.05c.47,10.73,1.12,25.34,1.12,25.34h-4l1.66-25.37C663.25,1241.87,664.32,1241.9,664.37,1243.05Z"/><path class="cls-1" d="M2260,583.36c0-14.44,12.09-26.14,27-26.14s27,11.7,27,26.14-12.09,26.14-27,26.14S2260,597.8,2260,583.36Z"/><path class="cls-17" d="M2084,804.66s21.31-31,72.28-27.57c0,0,74-51.71,152.91-6.9,0,0,83.88-11.1,146,9.62,41.42,13.81,55.1,28.3,55.1,28.3Z"/><path class="cls-13" d="M2330.67,1082.4s-20.2-111.48,80-155.89S2551,891.89,2591.12,797.25s163.93-39.12,163.93-39.12v323.74Z"/><path class="cls-10" d="M2662.41,1464.92s-254.87-112.26-300.77-112.54-254.34,55.23-302.15,46-311.7-88.38-348-88.6-600.62,58-684.76,154.43c-15.46,17.72,246.34,353.21,400.2,334.2,102.19-12.62,329.91-337.56,358.39-342s576.27,6.67,576.27,6.67C2484.59,1463.05,2662.41,1464.92,2662.41,1464.92Z"/><path class="cls-13" d="M2369.29,360.3c-11.18,27.87-74.58,59.2-127.22,64.76s-31.51,48.11-75.49,78.9-120.31,26.14-120.31,26.14V327.19a923,923,0,0,1,152.17-13.06c4,0,7.95,0,11.94,0q23.79.19,47.7,1.74a883,883,0,0,1,114.26,14.91C2373.39,340.75,2372.94,351.21,2369.29,360.3Z"/><path class="cls-18" d="M2767.39,525.45c-4-3.79-8.18-7.53-12.34-11.21v567.63H2046.27V329.74c-2.44.51-4.89,1-7.33,1.56-1.34.29-2.66.59-4,.87q-6.69,1.5-13.34,3.14v790.34h758.12V537.24Q2773.65,531.27,2767.39,525.45Z"/><path class="cls-18" d="M2846.83,1125.65H1948.75c0-23.89,20-43.25,44.7-43.25h808.68c24.69,0,44.7,19.36,44.7,43.25Z"/><path class="cls-18" d="M2423.48,342.44v759.34h-25.69V336.2q9.54,2.16,19,4.54Q2420.15,341.57,2423.48,342.44Z"/><path class="cls-19" d="M1828.5,686.43s-44.06,3.1-60.89,44.19-42.75,71.56-29.13,89.93,30.28,29.43,26.28,38-30.8,8.58-51.64,29.52-58.95,81.38,1.15,93.14c45.92,9,11.77,64.89,41.94,86.7,38.61,27.91,171.2,55.5,214.6,22.54s27.79-99.31,13.71-122.17,31.38-55.38,38.27-66.71c28.05-46.12-62-51.71-48.88-77.67s26.8-51-16.64-74.82C1935.93,737.36,1923.43,669.32,1828.5,686.43Z"/><path class="cls-20" d="M2302.2,1384.74c-7.76,80.12-63.39,80.74-272.43,78.41-67.67-.76-131.51-1.69-186.82-2.84-115.57-2.42-64.84-35.28-53.62-33a117.77,117.77,0,0,0,63.2-1c60.74-17.91,148.28-59.11,187.89-57.11,61.31,3.11,140.88-1.76,140.88-1.76s-216.17-27-223.93-62.62-124-92.2-98.71-96.7,117.66,7.79,117.66,7.79a889.62,889.62,0,0,0,112.22,43C2185.21,1288.33,2308.09,1323.93,2302.2,1384.74Z"/><path class="cls-21" d="M1907.82,951.22c-18.61,8.34-55.16,7.15-71.12-5.31-8.29-6.47-12-9.45-6.94-15.47,8.48-5.69,17.46-36.19,8.63-84.67l4,.1,67.43,1.6s2.06,20.11,5.34,38.82c2.74,15.6,6.43,31.3,10.42,32.56C1936.15,923.16,1947.35,933.48,1907.82,951.22Z"/><path class="cls-20" d="M1909.82,847.47s2,20.11,5.34,38.81c-36.66,5.1-61.68-23.88-72.77-40.41Z"/><path class="cls-21" d="M1930.46,853.85s-81.82,30.27-100.52-19.32-41.86-79.09,9.59-100.52,68.8-6.11,79.2,9S1951.27,844.69,1930.46,853.85Z"/><path class="cls-19" d="M1876.57,719.6s-.67,66.14-32,86.92-49.73,17.09-49.73,17.09,18.87-29.73,11-67.27C1805.81,756.34,1849.16,697.88,1876.57,719.6Z"/><path class="cls-19" d="M1872.76,726.29s21.71,7.08,30.57,18.27,21.7,21.42,28,32.91c0,0,2.11-45.54-25.38-61.21C1876.77,699.65,1872.76,726.29,1872.76,726.29Z"/><path class="cls-19" d="M1876.62,727.16s6.85,66.61-29.46,101.48c0,0,29.57-52.8,18.16-94.35S1876.62,727.16,1876.62,727.16Z"/><path class="cls-1" d="M1902,832.86s27-11.33,27.64-12.22.07,5,1.4,7.89-8.31,7.56-13.07,9.66S1906.15,840,1902,832.86Z"/><path class="cls-21" d="M1910.78,913s36.32,7,87.08-34.53c19.93-16.32,104.64-69.08,129.82-85.77s106.38-48.57,106.38-48.57l15.3,15.16s-93.08,76.67-101.92,80-94,79.87-97.23,87.11-37.23,36.49-34,73.18C2018.12,1021.14,1910.78,913,1910.78,913Z"/><path class="cls-21" d="M1836,919.28s-28.67,2.81-51.38-21c-17.71-18.56-104.64-69.08-129.82-85.76s-129.55-51.65-129.55-51.65L1515.93,775s110.23,80.82,119.07,84.18,74.34,63.25,85,81.56c10.11,17.27,40.21,59.54,51.29,78.27C1788.55,1048.06,1836,919.28,1836,919.28Z"/><path class="cls-21" d="M1964.73,913s54.5,83.74,57.7,102.35-23.5,105.46-24.57,117.86-22.44,82.71-22.44,82.71H1814.08s-8.26-113-20.16-142.83-38.61-91.46-38.61-91.46l86.19-54.42Z"/><path class="cls-21" d="M2434.93,1765.63l-42.16,7.23c-3.91-7.26-8.13-14.5-12.54-21.68-36.07-58.43-87.15-113.46-120.76-154.79-99.63-122.45,31.09-165.81-182.86-162.05s-297-31.47-298-92.49c-.38-23.47,36.32-125.91,36.32-125.91h161.35s-16.32,11.75-9.62,26.28,230.25,76.68,261.24,85.89c54,16,60.07,59.22,101,154.91,21.3,49.81,71.6,187.5,94.4,250.45C2430.48,1753.23,2434.93,1765.63,2434.93,1765.63Z"/><path class="cls-21" d="M1538.25,766.08s-25.2-16.8-38.76-19.19-27.75-4.77-25.29,0,18.5,5.05,17.27,10.58-51.18-2.63-46.87,8.61,35.42,19.6,46.69,19.6,43.26-5.67,43.26-5.67Z"/><path class="cls-21" d="M2232.4,745.31s25.19-16.8,38.76-19.19,27.75-4.77,25.28,0-18.5,5-17.26,10.58,51.18-2.63,46.86,8.61-35.41,19.6-46.69,19.6-43.25-5.67-43.25-5.67Z"/><path class="cls-1" d="M1823.87,918.52s47.39,97.86-41.57,124.22l25.3,98s50.12,37.83,189.55,1.1c0,0,30.7-90.8,25.28-126.45-5-33.23-83.36-104.72-83.36-104.72l-10,1.12s38.46,50.91,36.32,65.39-58.71,27.14-95.36,4.91c-10.55-6.4-35.79-62.68-35.79-62.68Z"/><path class="cls-14" d="M1978.24,1213.45l95.85,41s-8,21.25-50.49,24.35c-31.86,2.32-78.69-34.93-82-53.34Z"/><path class="cls-14" d="M1815,1215.93s-3-3.37-.69-8.77c0,0,73.68,30.1,164.33,1.1,0,0,2.24,3-2.3,7.67C1976.32,1215.93,1899.39,1247.43,1815,1215.93Z"/><path class="cls-1" d="M2495.6,1872.73c-5.61,8.53-44.88,10.08-51.29,0s-12-31.79-28-42.65-35.26-16.28-28.05-33.34,4.56-23.88,4.56-23.88c-3.91-7.26-8.13-14.5-12.54-21.68,13.05-3.57,29.83-9.29,43.08-17.71,7.17,19.76,11.62,32.16,11.62,32.16s28.61,46.11,34,67.82S2501.21,1864.2,2495.6,1872.73Z"/><path class="cls-1" d="M1898.73,1461.35c-115.57-2.42-199.25-6.87-197.79-11.77,2.13-7.23,8.51-20.67,46.06-23.77s44-21.71,64-22.49,17.63,21.71,28.85,24c4,.82,28.87-6.59,62.11-16.38C1902.85,1425.17,1907.07,1444.46,1898.73,1461.35Z"/><path class="cls-15" d="M1815,1215.93c9.61-1.77,52.08,28.21,152.28,2.61,0,0,31,27,49.66,38.53a310.34,310.34,0,0,0,35.82,19s10.58,120.21-179.61,152.26c0,0-101.43-9.51-103.56-88.08C1767.39,1260.15,1815,1215.93,1815,1215.93Z"/><path class="cls-10" d="M2423.48,1463.05S2563,1525.93,2577,1519.76s85.39-54.84,85.39-54.84L2545,1448.21Z"/><path class="cls-10" d="M1426.89,1798.38s-10.49,15.76,0,35.08c0,0,13.89,0,24.52-9.45C1451.41,1824,1447.42,1799.49,1426.89,1798.38Z"/><path class="cls-10" d="M2574.47,1517.76s-6.37,9.46-2.12,25.08c0,0,14.45,2.06,21.67-2.88C2594,1540,2587.24,1518.92,2574.47,1517.76Z"/><rect class="cls-22" x="89.51" y="1878.4" width="3027.15" height="7.77" rx="3.05"/><path class="cls-14" d="M1575.55,1815.93s-75.21,22-78.88,62.47h234.79s-1.83-10.41-8.56-10.41-100.72-1.18-100.72-1.18S1603.06,1815.34,1575.55,1815.93Z"/><path class="cls-15" d="M1866.48,1815.93s-75.2,22-78.87,62.47H2022.4s-1.84-10.41-8.56-10.41-100.72-1.18-100.72-1.18S1894,1815.34,1866.48,1815.93Z"/><path class="cls-23" d="M2600.46,1780.66s19.64,81.36,9.09,86.8c0,0-9.08-3-12.29,4.48a10.2,10.2,0,0,0-.9,6.46h24.57s3.94-10.9,9.18-15.76c2.89-2.68,23.26-75.57,23.26-75.57Z"/><path class="cls-24" d="M2572,1780.66s19.63,81.36,9.08,86.8c0,0-9.07-3-12.29,4.48-.84,1.94-.18,3.76.3,6.46h22.1s5.22-10.9,10.46-15.76c2.89-2.68,23.25-75.57,23.25-75.57Z"/><path class="cls-19" d="M2572.22,1652.88s23.15,27.73,17,39.08l-28.56-13.08S2558.22,1669.69,2572.22,1652.88Z"/><path class="cls-24" d="M2601.55,1720.75c7.35-19.38-5-40.88-25.82-45.51-9.58-2.13-22.23-3.3-31.71,11.32-2.15,3.31-9.95,7.4-14,7.82-2.23.23-4.57,11.86-4.41,13.34,2.28,21.14,13.53,26.07,31.28,34.23C2575.65,1750.58,2594.22,1740.06,2601.55,1720.75Z"/><path class="cls-24" d="M2566.87,1681.76l28.57,13.08a11,11,0,0,0,.92-6.6c-1.61-13-17.88-32.48-17.88-32.48C2564.48,1672.56,2566.87,1681.76,2566.87,1681.76Z"/><path class="cls-24" d="M2596.35,1688.24s11.36,9,12.28,23.08a10.53,10.53,0,0,0-2.44-3.59s3.22,8.4-.64,13.26a8,8,0,0,0-.83-3.5s.86,6.83-6.73,12.91l.21-2.37a31.59,31.59,0,0,0-3.37,6.19c-.72,2.35-4.85,1.31-4.94.89s3.7-27.86,3.7-27.86l-4.42-15.29Z"/><path class="cls-23" d="M2529.34,1694.63a3,3,0,0,1,2.71-.84s.93,5.36-4.33,6.92C2527.72,1700.71,2528.13,1695.78,2529.34,1694.63Z"/><path class="cls-23" d="M2542.07,1704.21c.21,0,22,2.61,40.23,15.21h0c-18.57-12.83-40-15.88-40.18-15.89Z"/><path class="cls-23" d="M2540.54,1706c.24.08,24.6,9,42,28.57h0c-17.67-19.89-41.45-29.25-41.7-29.34Z"/><path class="cls-23" d="M2538.79,1708.15c.19.11,18.61,11.63,29.34,30.68h0c-10.92-19.39-28.78-31.16-29-31.27Z"/><path class="cls-25" d="M2578.48,1655.76s7.12,23.92,10.68,27.83a14.76,14.76,0,0,0,7.2,4.65C2594.75,1675.25,2578.48,1655.76,2578.48,1655.76Z"/><path class="cls-23" d="M2792.44,1773.67c9.69-23.63-.26-74.51-47.84-54.69-10.11,3-22.27,10-36.83,22.94,0,0-20.91,47.66,61.53,79.18,0,0,8.17,3.42,9.33,10.69s2.46,40.06-.33,41-6.94-2.77-10,1.37-2,11-2,11h30s14.32-73.61,13.51-79.46S2787.36,1786.07,2792.44,1773.67Z"/><path class="cls-24" d="M2587.42,1798.93c78.6,49.85,163.64,6.52,163.64,6.52l9.3-90.18c-22.56-.14-28,3.64-41.75,7.75-6.8,2-12.46,4.58-17.51,5.89-34.87,9.11-63.57,5.66-75.75,5.66-18.44,0-37.93-29.34-37.93-29.34l-25.24,32S2563.46,1783.75,2587.42,1798.93Z"/><path class="cls-24" d="M2786.19,1726.79l4.88,20.08s88.31-27,65.65-66.76c-6.46-11.34-16.16-30.31-3.37-38.06,10.91-6.6,6.73-20.36.42-23.65-13.27-6.93-26.76,1.84-33.08,10.4-12,16.3,3.95,41.76,3.95,41.76C2844.21,1711.34,2786.19,1726.79,2786.19,1726.79Z"/><path class="cls-24" d="M2783.7,1784c9.49-6.48,28.39-74-23.34-71.19-16,1.73-30.24,5.12-48.5,12.4,0,0-33,38.6,33.26,95.63,0,0,6.46,5.93,5,13.13s-11.92,38.45-14.9,38.45-12.91-4.17-17.22-1.28,1.66,14.09,1.66,14.09h30.3s37.41-59.59,38.74-65.35S2772.45,1791.64,2783.7,1784Z"/><path class="cls-26" d="M2556.16,996.7s-30.81,12.1-52.71-18.31C2503.45,978.39,2539,972.56,2556.16,996.7Z"/><path class="cls-26" d="M2558.33,984.22s2.16-10.65,15.08-11C2573.41,973.2,2568.55,984,2558.33,984.22Z"/><path class="cls-26" d="M2551.84,921.86s-14.94,1.55-20.54-14.29C2531.3,907.57,2547.49,909.31,2551.84,921.86Z"/><path class="cls-26" d="M2516.38,712.43c30.15-6.25,30.66-30.11,30.66-30.11C2511.54,693.17,2516.38,712.43,2516.38,712.43Z"/><path class="cls-26" d="M2514.31,707s-18.8,7.39-32.17-11.17C2482.14,695.82,2503.84,692.25,2514.31,707Z"/><path class="cls-26" d="M2555.58,1066.67l3.89,4.34a1,1,0,0,0,1.71-.62c-.21-122.81-16.33-231.92-29.87-296.3-14.77-70.26-29.75-111.79-29.9-112.2h0c.15.41,13.67,42.61,28.39,112.67,13.55,64.48,29.06,148.76,25.14,290.45A2.4,2.4,0,0,0,2555.58,1066.67Z"/><path class="cls-15" d="M2501.67,645.15c4.81,3.73,23.22,19.67,5.36,32,0,0-13.69,4.19-18.23-6-3.46-7.79-4.39-16.47-4.64-20.15a1.78,1.78,0,0,1,1.67-1.86,14.66,14.66,0,0,0,3.86-.85c1.7-.63,2.56-3.11,4.85-3.65a14,14,0,0,1,4.56-.49A4.87,4.87,0,0,1,2501.67,645.15Z"/><path class="cls-26" d="M2511.89,672.66s-5.45,4.23-3.44,11l.06,2.5a11.93,11.93,0,0,0-8.14-8.18S2506.4,678.61,2511.89,672.66Z"/><path class="cls-27" d="M2516.38,712.43c30.15-6.25,30.66-30.11,30.66-30.11S2523.16,695,2516.38,712.43Z"/><path class="cls-26" d="M2545.34,696.09s19,7,31.94-11.8C2577.28,684.29,2555.52,681.15,2545.34,696.09Z"/><path class="cls-26" d="M2511.54,1056.5l-3.81,4.41a1,1,0,0,1-1.72-.59c-2.33-122.79,11.53-232.19,23.73-296.81,13.31-70.54,27.43-112.35,27.57-112.77h0c-.14.41-12.78,42.87-26,113.2-12.21,64.73-26,149.29-19.12,290.89A2.41,2.41,0,0,1,2511.54,1056.5Z"/><path class="cls-15" d="M2556.71,634c-4.73,3.83-22.81,20.12-4.7,32.06,0,0,13.77,3.93,18.1-6.36,3.29-7.86,4-16.56,4.22-20.24a1.77,1.77,0,0,0-1.7-1.82,14.72,14.72,0,0,1-3.88-.77c-1.71-.61-2.62-3.07-4.92-3.56a14,14,0,0,0-4.58-.41A4.86,4.86,0,0,0,2556.71,634Z"/><path class="cls-26" d="M2547.06,661.72s5.54,4.12,3.66,10.91v2.5a11.91,11.91,0,0,1,8-8.34S2552.67,667.56,2547.06,661.72Z"/><path class="cls-26" d="M2537.31,674.58s-20,3.24-28.89-17.69C2508.42,656.89,2530.41,658,2537.31,674.58Z"/><path class="cls-26" d="M2496.52,1034.31l2.82,5.06a1,1,0,0,0,1.81-.25c27.47-119.9,36.33-229.78,37.63-295.47,1.42-71.68-3.84-115.38-3.9-115.81h0c.06.43,3.73,44.47,2.31,115.95-1.3,65.79-5.16,151.31-40.92,288.77A2.33,2.33,0,0,0,2496.52,1034.31Z"/><path class="cls-15" d="M2538.91,611.56c3.85,4.66,18.22,24.09-2,32.32,0,0-14.3,1.2-16.43-9.71-1.62-8.33-.58-17,0-20.64a1.8,1.8,0,0,1,2-1.46,15,15,0,0,0,4,0c1.8-.26,3.2-2.5,5.55-2.54a14,14,0,0,1,4.57.48A4.87,4.87,0,0,1,2538.91,611.56Z"/><path class="cls-26" d="M2542.68,640.56s-6.27,3-5.83,10l-.51,2.45a11.72,11.72,0,0,0-6.09-9.7S2536,645.21,2542.68,640.56Z"/><path class="cls-26" d="M2520.79,653s0-15.34-13.66-20.15C2507.13,632.86,2504.12,645.65,2520.79,653Z"/><path class="cls-28" d="M2552.87,628.36s-.4-11.7,10.79-15.08C2563.66,613.28,2566.35,624.18,2552.87,628.36Z"/><path class="cls-28" d="M2516.16,698.77c-.41.34-5.83-11.39,5.21-20.81C2521.37,678,2526,690.51,2516.16,698.77Z"/><path class="cls-26" d="M2508.42,697.85c.31.09.09-5.83-5.65-6.67C2502.77,691.18,2501.8,696.1,2508.42,697.85Z"/><path class="cls-26" d="M2565.64,678s4.85-9.7,20.35-8C2586,669.94,2583.66,680.35,2565.64,678Z"/><path class="cls-15" d="M2480,1081.05h99.37a10.73,10.73,0,0,0,10.85-12.13l-46.26-308.47a6,6,0,0,0-6-5h-14.76a6.4,6.4,0,0,0-6.4,5.34l-47.35,308.45A10.43,10.43,0,0,0,2480,1081.05Z"/><path class="cls-29" d="M2557.32,1071.72,2532.77,755.5a6,6,0,0,1,5.18,5l46.26,308.47a10.73,10.73,0,0,1-10.85,12.13H2553.5A11.19,11.19,0,0,0,2557.32,1071.72Z"/></svg>