<svg id="_Layer_" data-name="&lt;Layer&gt;" xmlns="http://www.w3.org/2000/svg" viewBox="0 0 3140.1 1660"><defs><style>.cls-1{fill:#fff;}.cls-2{fill:#eff8ff;}.cls-3{fill:#ebf3fa;}.cls-4{fill:#ff556f;}.cls-5{fill:#1d3b54;}.cls-6{fill:#385369;}.cls-7{fill:#d88a51;}.cls-8{fill:#ffc05c;}.cls-9{fill:#eea886;}.cls-10{fill:#eea987;}.cls-11{fill:#a77860;}.cls-12{fill:#fa7126;}.cls-13{fill:#ab3434;}.cls-14{fill:#853c14;}.cls-15{fill:#1c4154;}.cls-16{fill:#eb4747;}.cls-17{fill:#db9c7c;}.cls-18{fill:#bbd9a7;}.cls-19{fill:#8878ff;}.cls-20{fill:#88bf63;}.cls-21{fill:#dbdff0;}.cls-22{fill:#754836;}.cls-23{fill:#fab546;}.cls-24{fill:#163342;}.cls-25{fill:#cf8c6c;}.cls-26{fill:#bf561d;}.cls-27{fill:#ffa35f;}.cls-28{fill:#202338;}.cls-29{fill:#cf5c20;}.cls-30{fill:#2f6b8c;}.cls-31{fill:#4f7594;}.cls-32{fill:#bcc0cf;}.cls-33{fill:#8a664d;}.cls-34{fill:#c78d71;}.cls-35{fill:#d99d3d;}.cls-36{fill:#877373;}.cls-37{fill:#e3dddd;}.cls-38{fill:#323657;}.cls-39{fill:#3b3f66;}.cls-40{fill:#555c94;}.cls-41{fill:#21303d;}.cls-42{fill:#b5b0b0;}.cls-43{fill:#b8b8b8;}.cls-44{fill:#ebebeb;}.cls-45{fill:#d1d1d1;}.cls-46{fill:#5f6069;}</style></defs><title>21465</title><rect class="cls-1" width="3140.1" height="1660"/><path class="cls-2" d="M1774.25,421h-61.17V395.73h61.17Zm-58.64-2.53h56.11V398.26h-56.11Z"/><path class="cls-2" d="M1803.57,443.73H1742.4V418.47h61.17Zm-58.64-2.53H1801V421h-56.11Z"/><rect class="cls-3" x="308.01" y="358.66" width="1569.35" height="931.19"/><path class="cls-2" d="M599,1035.1H537.84v-25.26H599Zm-58.64-2.53h56.11v-20.2H540.37Z"/><path class="cls-2" d="M628.33,1057.84H567.16v-25.27h61.17Zm-58.64-2.53H625.8V1035.1H569.69Z"/><path class="cls-2" d="M969.38,477.84H908.21V452.57h61.17Zm-58.65-2.53h56.12V455.1H910.73Z"/><path class="cls-2" d="M985,455.1H923.86V429.84H985Zm-58.64-2.53H982.5V432.36H926.39Z"/><path class="cls-2" d="M998.7,500.57H937.53V475.31H998.7ZM940.05,498h56.12v-20.2H940.05Z"/><ellipse class="cls-4" cx="1332.83" cy="1334.22" rx="67.4" ry="8.45"/><ellipse class="cls-4" cx="1361.96" cy="1343.57" rx="44.29" ry="5.55"/><polygon class="cls-4" points="1339.01 1331.55 1284.38 1331.88 1283.98 1267.67 1285.22 1267.66 1287.51 1267.65 1335.07 1267.35 1337.37 1267.34 1338.6 1267.33 1339.01 1331.55"/><rect class="cls-1" x="1284.24" y="1285.5" width="54.62" height="46.21" transform="translate(-8.19 8.26) rotate(-0.36)"/><path class="cls-5" d="M1335.07,1267.35c-1.57,12-11.54,21.37-23.65,21.45s-22.19-9.14-23.91-21.15h-2.29a26.24,26.24,0,0,0,52.15-.32Z"/><rect class="cls-3" x="1812.99" y="946.81" width="425.63" height="345.61"/><rect class="cls-6" x="2355.55" y="872.35" width="22.97" height="24.42" transform="translate(-107.03 1398.69) rotate(-32.23)"/><rect class="cls-7" x="2361.83" y="892.53" width="25.3" height="7.67" transform="translate(-112.17 1404.49) rotate(-32.23)"/><path class="cls-8" d="M2357.68,891.26s1.59-8.26,7.1-12.43a84.68,84.68,0,0,1,8.52-5.87l-3.06-4.85-19.43,12.25Z"/><path class="cls-9" d="M2366.58,919.69s3.65-10.06,3.93-11.14,2.61-3.15,5.5-5.29,7.74-3.74,8.33-3.53a3.14,3.14,0,0,1,2.19,1.45,6.07,6.07,0,0,1,1,2.9,3.66,3.66,0,0,1,1.81,3,3.21,3.21,0,0,1,1.28,3.33s1.66,1.11,1.19,2.7c0,0-2,2.1-3,3.1a88.35,88.35,0,0,1-11.66,7.5S2369.46,930.87,2366.58,919.69Z"/><path class="cls-10" d="M2338.34,1148.91c-2.94,6.29-44.41,63.12-46.92,69.55s-19.64,33.5-19.64,33.5l-10.52-7.39s27.34-77.23,35.88-87.9h0a6.18,6.18,0,0,1,.56-.63c1.07-1,2.21-2.16,3.36-3.31h0c7.26-7.24,9.78-13.84,4.36-21.32-6.28-8.66-27.13-58.18-28.1-63.06s-37.71-71.36,40.77-44.13c0,0,13.26,41.47,15.22,72S2341.27,1142.63,2338.34,1148.91Z"/><path class="cls-11" d="M2301.06,1152.73s0,20.34-.87,26.69a147.11,147.11,0,0,0-.86,15.34s-8.56-25.52-2.19-38.09h0a6.18,6.18,0,0,1,.56-.63C2298.77,1155,2299.91,1153.88,2301.06,1152.73Z"/><path class="cls-12" d="M2377.86,925.11c0,2.4-37.16,50.24-40.11,50.28-4.58.06-10.26-6.81-14.6-13.32,0,0,.22-1.07,1.6-12.85s-3.66-19.54-3.66-19.54-3.84,16.52-2.39,25.17c-1.39-2.44-2.23-4.08-2.23-4.08s-35.65-38.48-12.76-48.76c0,0,11.74,4,17,13.24s7.45,19.2,9.25,24.83c0,0,5.44,11.69,6.94,10.64s8.8-11.23,14.79-16S2365.19,918,2365.19,918,2377.84,922.4,2377.86,925.11Z"/><path class="cls-13" d="M2324.75,949.22c-1.38,11.78-1.6,12.85-1.6,12.85-1.76-2.62-3.29-5.19-4.45-7.21h0c-1.45-8.65,2.39-25.17,2.39-25.17S2326.14,937.45,2324.75,949.22Z"/><path class="cls-10" d="M2291.91,1286.84c0,3.25.21,5-9,5.16s-18.1-11.7-24.3-20-14.27-12.28-9.2-17.92c.63-.69,1.29-1.39,2-2.09,4.81-5,10.52-9.91,11.27-10.91s9.14,10.9,9.14,10.9-.7,6,.78,9.57,3.83,16.32,8.2,18.44h0C2285.14,1282.09,2291.91,1286.13,2291.91,1286.84Z"/><path class="cls-10" d="M2347.37,1303.18c-6.61-.13-25.32-1.09-35.71,0s-14.43-.49-13.7-8c0-.4.09-.81.14-1.23.94-7.3,3.85-16.46,4.05-19.51.22-3.23,13.37-1.44,13.37-1.44s6.9,10.19,10.69,12.28,15.27,6.31,19.67,8.27c.32.14.67.27,1,.4h0c4.65,1.57,12.52,1.79,13.65,4.29C2361.8,1301,2354,1303.3,2347.37,1303.18Z"/><path class="cls-10" d="M2255.48,1021.28s-18.69,29-14.08,55.41,21.53,55.19,24.47,66.29,2.24,22.79,2.26,31.6c0,14,8.25,40.43,14.59,53.42,6.17,12.65,20,48.82,20,48.82l13.19-1.88s-19.05-89.23-19.26-95.72,1.46-25.77-.42-34.14-10.06-65.14-12.78-75.62S2290.11,1003.68,2255.48,1021.28Z"/><path class="cls-12" d="M2339.13,1119.27s-16.79,27-77.87,26c0,0-22.68-55.92-22.11-75.85.68-23.19,12.31-54.17,19.8-59.91,6.67-5.11,58.44,5.52,58.44,5.52s2.78,10.23,4.3,15.14c.18.61.35,1.13.49,1.55.93,2.75,7.05,29,12.12,57C2336.16,1099,2337.87,1109.55,2339.13,1119.27Z"/><path class="cls-14" d="M2324.75,949.22c-1.38,11.78-1.6,12.85-1.6,12.85-1.76-2.62-3.29-5.19-4.45-7.21h0c-1.45-8.65,2.39-25.17,2.39-25.17S2326.14,937.45,2324.75,949.22Z"/><path class="cls-12" d="M2250.69,952.29c4.1,8,6.44,20.94,8.8,24,4.46,5.8,3.14,14,3.13,16.57,0,7.59-9.75,26.2-9.75,26.2,4.69,2.51,65.61,4.65,64.53-4.06s.48-39.45,1.11-45.91-.21-12.86.36-15.68,3.6-7.88,3.87-15.64-5.45-14.49-7.76-20c-2.79-6.67-8.3-15.82-12.6-16s-10.37-2.84-10.37-2.84l-17-1.31a52.43,52.43,0,0,1-12,2.17c-7.25.55-11.19,1.33-18.49,5.34s-3.84,31.4-3.84,31.4A87.5,87.5,0,0,1,2250.69,952.29Z"/><path class="cls-9" d="M2293,880.73s-.31,2-.57,4.94c-.14,1.5-.26,3.25-.31,5.1-.15,5.11.18,11,2,14.71,0,0-9.3,6-19.85-7.74,0,0,.49-17.52-5.61-26.64S2293,880.73,2293,880.73Z"/><path class="cls-9" d="M2270.13,898.84s4.79,24.69,19.71,21.45,3-21.1,3-21.1S2286.82,895.25,2270.13,898.84Z"/><path class="cls-9" d="M2246.1,967.15a73.53,73.53,0,0,0,10.25,4.5c3,.89,9.44,5.27,10.36,7.73s.77,16.09,1.46,17.3-1.68,1.88-3.11.15c0,0-4.16,3.8-7.39-.15s-4-9.28-5.83-11.11-12.69-11.94-12.69-11.94S2243.44,964.28,2246.1,967.15Z"/><path class="cls-15" d="M2304.09,859.88s-2.92,28.86,2.41,36.1c0,0-14.12-3.07-17.39-7.93S2304.09,859.88,2304.09,859.88Z"/><path class="cls-9" d="M2285,827.4s17.26-.44,20.43,20-4.16,38.38-7,41.25-20.13.7-24.2-9.91-10-18.35-9.12-27.48S2263.73,827.05,2285,827.4Z"/><path class="cls-15" d="M2306.12,855.12s4.62-25.49-18.29-30-30.95,11.11-33.13,20.43.4,35.61.4,35.61,15.27,13.39,24.4,16.86c0,0-7.64-28-4.76-48,0,0,18.61,2.93,31-.12C2305.71,849.84,2306.08,854,2306.12,855.12Z"/><path class="cls-11" d="M2292.46,889.77s-6,0-14.15-5.34c0,0,5.74,7.2,13.74,9.84C2292.05,894.27,2292.52,890.68,2292.46,889.77Z"/><path class="cls-16" d="M2347.37,1303.18c-6.61-.13-25.32-1.09-35.71,0s-14.43-.49-13.7-8c0-.4.09-.81.14-1.23,2.51-1.74,20.53-.69,31.19.69s17.63-.69,17.63-.69h0c4.65,1.57,12.52,1.79,13.65,4.29C2361.8,1301,2354,1303.3,2347.37,1303.18Z"/><path class="cls-16" d="M2292.2,1286.73c0,3.24-.08,5.15-9.3,5.27s-18.1-11.7-24.3-20-14.27-12.28-9.2-17.92c.63-.69,1.29-1.39,2-2.09.28.24,12.2,11,16,18.54,6.32,12.49,13.08,9.41,13.38,9.46h0C2285.14,1282.09,2292.2,1286,2292.2,1286.73Z"/><path class="cls-12" d="M2268.08,909c-1.51-3.84-13.68-9.65-24-3.66s-18.32,12.55-24.4,15.18-27.41,18.77-29.64,22.59c-2,3.38-3.39,5.54,5.33,11.11,8.91,5.69,43.89,21.71,43.89,21.71l7.82-9.41s-9.37-6-16.3-10.44-4.29-3.12-12.16-7.43c0,0,13.1-7.94,18.06-9.67S2274.86,926.31,2268.08,909Z"/><rect class="cls-7" x="2365.15" y="906.78" width="36.01" height="6.69" transform="translate(1882.1 -1591.21) rotate(57.77)"/><path class="cls-17" d="M2383.56,900.26s-7.18,5.61-6.43,6.88a2.3,2.3,0,0,0,1.81,1.27l-1.91,3.65s.1,3.13,3.48,2.11c0,0-.21,2.93,2.94,1.55,0,0,.72,2,2.29,1.62s6-4.18,6-4.18,1-1.35-.8-2.83a3.35,3.35,0,0,0-1.42-3.3,3.63,3.63,0,0,0-1.83-3.16s-.13-3.75-3.39-4.14C2384.34,899.73,2383.86,900,2383.56,900.26Z"/><path class="cls-9" d="M2370.71,908.35s6.15-1.17,9.78-.34c.82.19,1.58.52,1.72,1.35s-.9,2.09-3.54,2.74a22.75,22.75,0,0,0-5.74,2.68S2370,914.65,2370.71,908.35Z"/><path class="cls-8" d="M2334.3,1088.73c-14.87.77-14.62-19.37-31.29-19.69s-19.55-16.67-2-18.42,20.62-20.48,20.62-20.48h0c.18.61.35,1.13.49,1.55C2323.11,1034.45,2329.23,1060.66,2334.3,1088.73Z"/><path class="cls-8" d="M2297.46,1076.05s-13.2,11.71-18.6,18.89-7.18.24,1.86-7.21A123,123,0,0,1,2297.46,1076.05Z"/><rect class="cls-1" x="396.24" y="358.66" width="232.09" height="702.31"/><rect class="cls-1" x="625.8" y="358.66" width="232.09" height="438.5"/><path class="cls-18" d="M1868.65,1375.87c0,6.43-41.58,11.64-92.88,11.64s-92.89-5.21-92.89-11.64,41.59-11.65,92.89-11.65S1868.65,1369.44,1868.65,1375.87Z"/><path class="cls-18" d="M1877,1388.76c0,4.22-27.33,7.65-61,7.65s-61-3.43-61-7.65,27.33-7.66,61-7.66S1877,1384.53,1877,1388.76Z"/><path class="cls-19" d="M1731.46,1405.93c0,1.8-11.65,3.26-26,3.26s-26-1.46-26-3.26,11.65-3.26,26-3.26S1731.46,1404.13,1731.46,1405.93Z"/><path class="cls-19" d="M1705.44,1392.08c0,3.69-23.88,6.69-53.35,6.69s-53.34-3-53.34-6.69,23.88-6.69,53.34-6.69S1705.44,1388.39,1705.44,1392.08Z"/><path class="cls-5" d="M1806.59,1311.27c-21.8.13-39.65-17.83-39.79-40s17.49-40.41,39.28-40.55,39.65,17.83,39.79,40S1828.39,1311.13,1806.59,1311.27Zm-.49-77.56c-19.91.13-36,16.94-35.87,37.49s16.43,37.15,36.34,37,36-16.93,35.87-37.48S1826,1233.59,1806.1,1233.71Z"/><rect class="cls-20" x="1765.62" y="1276.21" width="82.11" height="96.53" transform="translate(-8.28 11.37) rotate(-0.36)"/><rect class="cls-1" x="1765.7" y="1303.27" width="82.11" height="69.47" transform="translate(-8.37 11.37) rotate(-0.36)"/><polygon class="cls-19" points="1721.1 1389.37 1645.82 1389.84 1645.27 1301.35 1646.97 1301.34 1650.14 1301.32 1715.67 1300.9 1718.85 1300.89 1720.54 1300.88 1721.1 1389.37"/><rect class="cls-1" x="1645.62" y="1325.92" width="75.27" height="63.69" transform="translate(-8.48 10.57) rotate(-0.36)"/><path class="cls-5" d="M1715.67,1300.9c-2.16,16.59-15.9,29.45-32.58,29.56s-30.59-12.59-32.95-29.14l-3.17,0c2.42,18.09,17.75,32,36.14,31.91s33.53-14.24,35.74-32.36Z"/><path class="cls-9" d="M2514,1181.21s-4.45-8.12-5.16-9.34-4.29-2.92-8.55-4.53-10.73-1.85-11.36-1.39a3.93,3.93,0,0,0-2.16,2.53,7.55,7.55,0,0,0-.18,3.87,4.68,4.68,0,0,0-1.15,4.35,4,4,0,0,0-.39,4.49s-1.63,1.92-.51,3.7a30.91,30.91,0,0,1,4.7,2.73c1.14,1,8.8,4.08,16.6,5.88C2505.83,1193.5,2514.37,1195.83,2514,1181.21Z"/><path class="cls-9" d="M2516.49,1184.35a28.26,28.26,0,0,1-4.57-5.59c-1.39-2.59-7.71,11.09-7.71,11.09s7.88.32,11.34,2.76S2516.49,1184.35,2516.49,1184.35Z"/><path class="cls-21" d="M2597.43,1130.12l-22.83,57.71s-1.14,8-17.81,2.6c-17-5.52-44.3-12.78-44.3-12.78s-8.72,17.62-6.71,18.79c5.82,3.4,54.15,19.35,73.72,24.69,15.53,4.23,45.07-74.89,45.07-74.89Z"/><path class="cls-12" d="M2589.39,1201.2c1,1.88,2,3.83,3,5.89.47.94.93,1.93,1.38,3,6.44,14.69,5.8,39.68-1.84,61.48,0,0,26.51,2.12,88.41-.72-14-74.75-43.95-141-43.95-141-6.17-15.73-15.17-22.9-34-26.8,0,0-2.67.65-18.75,17.41-1.12,1.17-4.68,14.12-5.64,27.93C2576.28,1172.74,2580.65,1184.32,2589.39,1201.2Z"/><path class="cls-21" d="M2601.51,1177.19a40.64,40.64,0,0,0,5.64,5c5.66,4.12,12,6.6,17.2,6.91a11.32,11.32,0,0,0,6.86-1.38c.17-.1.3-.24.47-.32,18.33-8.61,9-71.69-10.56-77.7,0,0-11.34-6-18.75-1.15-6.28,4.13-11.38,28.55-10.13,44.1.14,1.79.34,3.64.6,5.53.14,1.09.31,2.19.49,3.32A30.38,30.38,0,0,0,2601.51,1177.19Z"/><path class="cls-9" d="M2560,1056s-6,11.22-3,13c2.48,1.44-2.86,12.44-3.56,14.23s4.49,3.09,5.59,4.25,4.4,15.36,8.67,15.78,23.49-6.32,28.72-11.77,9.46-30.07,5.94-40.44S2570.64,1036.45,2560,1056Z"/><path class="cls-22" d="M2558.76,1058.33s-1.6-5.3,9.57-14.3,27.35,0,29.68.65,13.26,10.9,8.93,24.67c-7.25,23-7.56,22.06-7.56,22.06s-1.45-13.6-5.65-14.57c-4.55-1-12.08-2.06-12.08-2.06s3.93-10.49-2.25-12S2565,1056,2558.76,1058.33Z"/><path class="cls-9" d="M2584.32,1075.54c.3-1.23,1.7-6.73,6-5.91s2.87,7.58-.46,11.53S2582.62,1082.39,2584.32,1075.54Z"/><path class="cls-23" d="M2558.25,1055.37a48.45,48.45,0,0,0-7.87,1.27c-9.24,2.74,20.78,5,23.4,5.94C2598.16,1071.4,2558.25,1055.37,2558.25,1055.37Z"/><path class="cls-24" d="M2551.28,1478.56s-9.26-3.76-13.07-5.37-4.37-5.15-6-2.79-9.55,9.6-13.83,10.52-32.12,5.14-32.67,11.45,12.43,8.52,30.74,9.48,18.76,5.68,31,2.56C2551.25,1503.44,2551.28,1478.56,2551.28,1478.56Z"/><path class="cls-24" d="M2821.21,1375.83s-4.59,8.54-6.54,12.05-5.44,3.7-3.32,5.49,8.28,10.23,8.73,14.47,1.62,31.61,7.67,32.79,9.54-11.13,12.37-28.74,7.46-17.55,5.71-29.69C2845.29,1378.42,2821.21,1375.83,2821.21,1375.83Z"/><polygon class="cls-9" points="2553.26 1472.8 2550.9 1479.69 2534.08 1472.58 2536.26 1465.88 2553.26 1472.8"/><polygon class="cls-9" points="2814.57 1372.95 2821.21 1375.83 2812.88 1391.93 2806.41 1389.25 2814.57 1372.95"/><path class="cls-25" d="M2501.24,1178s.46,4.62,1.25,5.86-8.87,5.32-8.87,5.32S2495.63,1178.71,2501.24,1178Z"/><path class="cls-12" d="M2619.36,1300.3s2.34,2.53,6.46,6.59c2.08,2,4.61,4.49,7.52,7.18l.92.85h0c2.24,2.06,4.67,4.25,7.29,6.52,2.24,2,4.62,4,7.1,6h0s49.69,43,62.77,48.39c25.79,10.69,95,32.44,95,32.44l19-37.89s-54.9-15.94-71.73-22.34c-20.72-7.87-32.75-6.58-42.41-21-6.43-9.6-23.34-43.84-23.5-44.15-7.1-17.48-17.28-39.85-24.86-45.56C2656.59,1232.53,2619.36,1300.3,2619.36,1300.3Z"/><path class="cls-12" d="M2557,1357.26c-.35-9.64,10.5-36.85,18.68-53.35h0c12.82-26.37,25.85-53.81,25.85-53.81s74.42,0,74.3,7.93c-.25,15.11-33.45,46-39.21,52.68l-5.68,5.76s-13.78,13.24-19.39,23.41c-8.18,14.83-12.25,25.12-17.62,44.49-4.82,17.35-28.26,102.37-28.26,102.37l-40.49-14S2557.56,1372.22,2557,1357.26Z"/><path class="cls-9" d="M2579.34,1097.45s.26,1.14.62,2.91c.28,1.29.61,2.93.94,4.71.9,4.81,2.82,10.53,2.57,13.27-.46,5.13,17.92-18.24,17.92-18.24a248.37,248.37,0,0,1-4.61-34.8C2595.74,1046.74,2579.34,1097.45,2579.34,1097.45Z"/><path class="cls-11" d="M2580,1100.36c.28,1.29.61,2.93.94,4.71a92.86,92.86,0,0,0,13-15.84C2591.07,1093.07,2580,1100.36,2580,1100.36Z"/><path class="cls-23" d="M2557.31,1058.34s6.74-29.19,36.62-20.12,10.24,41.75,10.24,41.75S2594.44,1065.83,2557.31,1058.34Z"/><rect class="cls-6" x="2656.61" y="846.18" width="10.14" height="596.42" transform="translate(3966.37 -1442.5) rotate(93.5)"/><rect class="cls-6" x="2650.67" y="943.35" width="10.14" height="596.42" transform="translate(4056.81 -1333.6) rotate(93.49)"/><rect class="cls-6" x="2362.74" y="1171.55" width="102.54" height="10.98" transform="translate(1091.84 3514.71) rotate(-86.5)"/><rect class="cls-6" x="2442.97" y="1176.46" width="102.54" height="10.98" transform="translate(1162.3 3599.42) rotate(-86.5)"/><rect class="cls-6" x="2523.21" y="1181.36" width="102.54" height="10.98" transform="translate(1232.72 3684.1) rotate(-86.5)"/><rect class="cls-6" x="2603.44" y="1186.27" width="102.54" height="10.98" transform="translate(1302.94 3768.67) rotate(-86.5)"/><rect class="cls-6" x="2683.68" y="1191.17" width="102.54" height="10.98" transform="translate(1373.38 3853.37) rotate(-86.5)"/><rect class="cls-6" x="2763.92" y="1196.08" width="102.54" height="10.98" transform="translate(1444.05 3938.17) rotate(-86.5)"/><rect class="cls-6" x="2844.15" y="1200.99" width="102.54" height="10.98" transform="translate(1514.75 4023) rotate(-86.51)"/><path class="cls-9" d="M2659.09,1254.18a10.79,10.79,0,0,0,2.21-2.57s.66-2,1.22-3.32a8.32,8.32,0,0,1,.48-1,19.58,19.58,0,0,0,2.71-5.58c.67-2.67.6-15,.6-15l-6.65-1.85-6-2.62s-12,11.91-12.89,14.33c-.08.24-.16.48-.22.7-.57,2.13-.11,4-.28,5.1-.07.42-.4,4.66.52,5.54a4.15,4.15,0,0,0,3.82,1.31s2.58,2.3,4.91,2.39a6.16,6.16,0,0,0,5.24,1.48S2657.38,1255.07,2659.09,1254.18Z"/><path class="cls-21" d="M2604.22,1135.83s-13.53-1-6.51-20.44c7.92-21.9,34.49.33,89,22.65,0,0,15.27,6.17,10.9,22.49s-23.72,68.16-25,73.37l-21.85-12s9.95-25.73,12.61-39.2,4.54-26,4.54-26Z"/><path class="cls-17" d="M2490.05,1166.32s10.7,4.33,10.22,6.14a3,3,0,0,1-1.76,2.18l3.59,3.77s1,3.85-3.5,3.78c0,0,1.28,3.5-3,2.92,0,0-.19,2.68-2.23,2.76s-8.81-3-8.81-3-1.72-1.31-.08-3.73a4.24,4.24,0,0,1,.62-4.49,4.7,4.7,0,0,1,1.14-4.53s-1.13-4.59,2.71-6.19C2488.92,1166,2489.6,1166.14,2490.05,1166.32Z"/><path class="cls-9" d="M2508.5,1171.7s-7.88.71-12,3c-.93.52-1.75,1.19-1.62,2.25s1.82,2.23,5.25,2.1a29,29,0,0,1,7.93,1.27S2511.53,1179.13,2508.5,1171.7Z"/><polygon class="cls-21" points="2602.36 1102.97 2601.4 1100.43 2582.52 1116.94 2583.62 1120.38 2602.36 1102.97"/><path class="cls-26" d="M2633.34,1314.07h0l.92.85h0c2.24,2.06,4.67,4.25,7.29,6.52,10.49-15.65,22.54-40.69,22.76-41.15C2659.12,1287.43,2633.34,1314.07,2633.34,1314.07Z"/><path class="cls-9" d="M1456.3,1084.24s.17,1.17.46,3c.21,1.32.49,3,.82,4.79.89,4.87,2.13,10.68,3.36,13.18,2.3,4.67-24.5-10.46-24.5-10.46a250.11,250.11,0,0,0-8.24-34.52C1422.47,1042.29,1456.3,1084.24,1456.3,1084.24Z"/><rect class="cls-7" x="1490.37" y="1147.35" width="115.34" height="115.34" transform="matrix(0.95, -0.3, 0.3, 0.95, -290.22, 519.98)"/><rect class="cls-27" x="1499.88" y="1156.86" width="96.33" height="96.33" transform="translate(-290.21 519.94) rotate(-17.46)"/><rect class="cls-7" x="1477.64" y="1086.93" width="67.53" height="67.53" transform="translate(-266.61 505.11) rotate(-17.46)"/><rect class="cls-27" x="1483.21" y="1092.49" width="56.4" height="56.4" transform="translate(-266.61 505.08) rotate(-17.46)"/><path class="cls-9" d="M1605.46,1200a10.57,10.57,0,0,1-3.21.82s-1.89-.28-3.26-.4a8.41,8.41,0,0,0-1.07,0,17.49,17.49,0,0,1-5.84-.07c-2.46-.6-12.07-6.14-12.07-6.14l2.12-6.75,1.14-6.49s15.77-5.37,18.17-5.11a6.66,6.66,0,0,1,.67.12c2,.43,3.16,1.66,4.15,2,.37.13,3.88,1.73,4.08,2.93a4.63,4.63,0,0,1-1,4s.42,3.33-.76,5.44a6.88,6.88,0,0,1-1.64,5.34S1607.07,1198.87,1605.46,1200Z"/><path class="cls-28" d="M1350.35,1435.33s7.88,5.81,11.19,8.18,6.56,1,5.41,3.58-3.14,12.94-1.71,17,12.2,29.58,7.19,33.28-13.54-6-23.76-20.91-14.4-12.81-18.06-24.65C1329.47,1448.12,1350.35,1435.33,1350.35,1435.33Z"/><path class="cls-28" d="M1559.63,1475s9.28-4,13.09-5.73,4.3-5.3,6-3,9.87,9.49,14.22,10.32,32.58,4.46,33.28,10.82-12.37,8.9-30.86,10.29-18.83,6.18-31.24,3.3C1560.23,1500.14,1559.63,1475,1559.63,1475Z"/><polygon class="cls-9" points="1557.49 1469.21 1560.05 1476.12 1576.88 1468.55 1574.52 1461.83 1557.49 1469.21"/><polygon class="cls-9" points="1355.17 1429.82 1350.35 1435.33 1364.93 1446.43 1369.68 1441.18 1355.17 1429.82"/><path class="cls-12" d="M1502.09,1278.93s-1,3.33-3,8.82c-1.12,3.06-2.53,6.79-4.23,11h0c-2.13,5.29-4.72,11.31-7.73,17.67h0s-.9,2-2.44,5.25c-1.38,2.91-3.27,6.86-5.49,11.38-9.15,18.63-24,46.9-31.84,52.11-23.54,15.52-77.62,66.84-77.62,66.84L1345,1433.72s42.36-39.87,55-53c15.52-16.16,27.07-20.19,29.65-37.55,1.71-11.51,2.35-49.88,2.36-50.51-1.07-19.05-1.45-43.89,3-52.4C1438.74,1233.12,1502.09,1278.93,1502.09,1278.93Z"/><path class="cls-12" d="M1551.05,1352.5c.31-10.61-11.47-37-20.11-53.5h0c-13.56-26.36-32.89-59.49-32.89-59.49s-66.48-2.58-66.17,5.47c.59,15.19,38.38,61.59,43.59,67.92l-.11.06s19.3,18,27.65,26.26c13.32,13.13,9.77,16.27,15.64,35.73,5.26,17.43,36.68,105.67,36.68,105.67l27.31-13.87S1550.63,1366.81,1551.05,1352.5Z"/><path class="cls-12" d="M1489.49,1181.78c-.07,2.17-.14,4.44-.18,6.8,0,1.09,0,2.21,0,3.37.46,16.54,2,24.87,10.19,50.09,0,0-10.59,9.66-67.87,32.36-19.39-76.51-15.34-141-15.34-141,1.84-20.64,7.82-25.82,19.32-39.32,0,0,2.69-.49,24.44,8.8,1.52.65,10.29,11.45,17.08,24.13C1489.16,1149.45,1490.17,1162.21,1489.49,1181.78Z"/><path class="cls-6" d="M1429.35,1115.09s9.07-6.59,17.88-5,14.89,7.15,20.54,27.62-10.89,32.46-21.38,29.78S1414.22,1128.84,1429.35,1115.09Z"/><path class="cls-11" d="M1456.76,1087.21c.21,1.32.49,3,.82,4.79a92.76,92.76,0,0,1-18-10.25C1443.64,1084.35,1456.76,1087.21,1456.76,1087.21Z"/><path class="cls-9" d="M1470.45,1040.09s7,11,4.11,13c-2.42,1.67,3.91,12.5,4.77,14.28s-4.35,3.51-5.39,4.78-3.29,16.06-7.62,16.83-24.52-4.61-30.3-9.78-12-30-9.27-40.89S1458.05,1020.9,1470.45,1040.09Z"/><path class="cls-22" d="M1471.93,1042.34s1.22-5.55-10.92-13.87-28,2.21-30.3,3-12.7,12.19-7.18,25.94c9.22,23,9.94,22.23,9.94,22.23s-.06-14.3,4.15-15.62c4.58-1.43,12.2-3.06,12.2-3.06s-4.85-10.42,1.35-12.42S1465.36,1040.45,1471.93,1042.34Z"/><path class="cls-9" d="M1447.15,1062c-.41-1.24-2.27-6.75-6.61-5.58s-2.34,8,1.37,11.77S1449.43,1068.83,1447.15,1062Z"/><path class="cls-23" d="M1473.41,1042.24s-12.79-34-41.09-19c-32.91,17.47-4.46,44.84-4.46,44.84S1436,1052.83,1473.41,1042.24Z"/><path class="cls-23" d="M1472.22,1039.27a48.88,48.88,0,0,1,8.14.68c9.67,2.08-20.85,6.75-23.46,7.92C1432.66,1058.81,1472.22,1039.27,1472.22,1039.27Z"/><path class="cls-6" d="M1460.07,1115.49s-21.3-19.27-32.52,1.56c-10.11,18.75,14.27,26.61,55.64,59.84,0,0,13.31,9.32,23.77,11.57,16.71,3.58,72.38,8,77.61,9.43l-.77-18.74s-27.62-3.86-40.83-8.13-35.73-8.39-35.73-8.39Z"/><path class="cls-29" d="M1489.49,1181.78h0c-.07,2.17-.14,4.44-.18,6.8,0,1.09,0,2.21,0,3.37-15.32-11.8-24.47-29.06-24.74-29.4C1470,1166.47,1489.49,1181.78,1489.49,1181.78Z"/><path class="cls-29" d="M1484.63,1321.66c-1.38,2.91-3.27,6.86-5.49,11.38-17.84-24.58-25-47.49-25.1-47.85C1464.94,1301.08,1484.63,1321.66,1484.63,1321.66Z"/><polygon class="cls-6" points="1435.63 1094.09 1435.7 1090.44 1459.59 1099.18 1460.07 1102.89 1435.63 1094.09"/><path class="cls-9" d="M990.14,1007.77s2.68-8.32,3.13-9.58,3.45-3.47,7.11-5.71,9.62-3.62,10.29-3.31a3.72,3.72,0,0,1,2.45,2,7.18,7.18,0,0,1,.86,3.56,4.38,4.38,0,0,1,1.83,3.82,3.83,3.83,0,0,1,1.16,4.1s1.86,1.49,1.13,3.34a28.46,28.46,0,0,0-3.87,3.37c-.87,1.14-7.77,4.64-14.68,7.69C999.55,1017,992.39,1021.38,990.14,1007.77Z"/><path class="cls-25" d="M1001.39,1002.53s.39,4.37-.12,5.65,9.17,3.36,9.17,3.36S1006.72,1002.19,1001.39,1002.53Z"/><path class="cls-9" d="M991.49,1013.74a26.42,26.42,0,0,0,.78-6.77c-.21-2.77,13.35,5.87,13.35,5.87s-4.78,4.6-8.44,8C994.26,1023.59,991.49,1013.74,991.49,1013.74Z"/><path class="cls-24" d="M826.22,1352.91s-2.62,6.31-4.83,8.81-10.66,7-10.71,14.41c0,8.06,14.25,5.82,19.85,5.53s6-4.6,8.37-9.16,4.73-3.79,5.17-7.47-1.81-11.92-1.81-11.92Z"/><path class="cls-30" d="M826,1350.58l.44,4.14a25.65,25.65,0,0,0,15.85,0l0-5.21Z"/><path class="cls-24" d="M910.57,1352.91s2.62,6.31,4.83,8.81,10.66,7,10.7,14.41c0,8.06-14.25,5.82-19.84,5.53s-6-4.6-8.37-9.16-4.73-3.79-5.17-7.47,1.8-11.92,1.8-11.92Z"/><path class="cls-30" d="M910.81,1350.58l-.43,4.14a25.68,25.68,0,0,1-15.86,0l.05-5.21Z"/><path class="cls-6" d="M922.67,1247.26c0,9.93-7.67,103.94-7.67,103.94-1,3.31-19.61,3.66-22.92,2s.28-95.75-.33-105.76-15.77-84.64-18.67-84.31-12.56,82.94-14.88,90.56-14.07,99-14.07,99c-7.29,4.31-22.59,0-22.59,0s2.85-94.92,3.26-97.72c.62-4.14,0-15.31,1.66-40.09,1.51-22.16,7-70.43,10.41-96.56.12-.93.24-1.83.35-2.68.68-5.09,1.19-8.82,1.43-10.62.11-.77.16-1.19.16-1.19.93-.42,1.91-.82,2.92-1.18,24.26-8.72,71,.51,71,.51s0,.23.08.66.15,1.35.28,2.41c.27,2.31.67,5.74,1.13,9.72,0,0,0,.06,0,.09s0,.24,0,.36c1.64,14.18,3.94,34.93,3.73,37.09C917.71,1156.85,922.67,1237.32,922.67,1247.26Z"/><path class="cls-31" d="M890.23,1342.13l1.17,11.1s1,1.56,11.8,1.87,12.51-3.51,12.51-3.51l.47-10S906.72,1346.12,890.23,1342.13Z"/><path class="cls-31" d="M846.47,1342.13l-1.18,11.1s-1,1.56-11.79,1.87-12.51-3.51-12.51-3.51l-.47-10S830,1346.12,846.47,1342.13Z"/><rect class="cls-32" x="835.16" y="1157.42" width="7.43" height="8.87" transform="translate(2244.07 880.69) rotate(114.52)"/><rect class="cls-32" x="836.36" y="1148.18" width="13.87" height="7.97" transform="translate(2241.52 863.03) rotate(114.52)"/><path class="cls-32" d="M849.8,1147.51l.37-16.42a.78.78,0,0,0-1.49-.34l-6.13,13.45Z"/><rect class="cls-32" x="826.99" y="1129.5" width="6.19" height="33.27" transform="translate(2217.4 866.82) rotate(114.53)"/><rect class="cls-33" x="790.08" y="1103.16" width="6.72" height="52.54" transform="translate(2150.35 876.49) rotate(114.53)"/><path class="cls-9" d="M791.19,1140.49a9.48,9.48,0,0,1-.31-3s.51-1.68.8-2.9a8,8,0,0,0,.18-1,15.71,15.71,0,0,1,.86-5.27c.87-2.15,7.18-10.08,7.18-10.08l5.82,2.83,5.72,1.92s2.7,15,2.13,17.12a4.54,4.54,0,0,1-.19.59c-.66,1.73-1.93,2.63-2.39,3.48-.17.31-2.09,3.27-3.21,3.29a4.28,4.28,0,0,1-3.47-1.47,9.67,9.67,0,0,1-4.81-1.42,6.31,6.31,0,0,1-4.6-2.21S792,1142.11,791.19,1140.49Z"/><path class="cls-12" d="M1000.66,1018.29s-26.71,44-36.27,41.7c-4.43-1.09-19.08-12.39-24.62-19.57-1.82-2.36-3.61-4.84-5.31-7.3h0c-6.79-9.81-12.11-19.21-12.11-19.21s-20.07-23.52-4-34c0,0,7.73-.51,13.1,5.24s9.79,16.12,11.2,19.19,20,25.2,21,25.84,8.05-3.16,12.67-8.32c6.81-7.61,14.21-17.87,14.21-17.87Z"/><path class="cls-10" d="M895.36,968s4.22.9-13.44,17.83c0,0-12.53-13.86-12.12-16.18S895.36,968,895.36,968Z"/><path class="cls-12" d="M914,1113.7s-1.3-33.83-.87-43.15a178.71,178.71,0,0,1,5.11-34.09s0,0,0,0l0-.08c.53-2.11,1-3.92,1.44-5.39l12.12-45.4c-8.51-9.56-36.77-17.63-36.77-17.63H875S839.93,978.73,831.32,982s-28.06,68.48-28.35,72.23c-.3,4-8.36,67.46-8.36,67.46,10.46.74,19.5,1.61,19.5,1.61s8-52.41,9-57.83c.81-4,12.7-37,13.58-36.56s6.94,34.08.86,84C837.59,1113,861.91,1122.1,914,1113.7Z"/><path class="cls-10" d="M886,902.92s18.71,3,15.86,32.21S882.48,962,881.37,962s-16.57.54-17.78-35.2C863.59,926.77,863.07,900.35,886,902.92Z"/><path class="cls-10" d="M894.71,953.35s-.51,12,.65,14.65-15.44,10.87-25.57,1.54c0,0,2.45-13,1.77-17.61S894.71,953.35,894.71,953.35Z"/><path class="cls-10" d="M902.13,926.87s2-2.19,2.8,0S901.75,939,902,939.45c0,0-.37.86-.86.39S902.13,926.87,902.13,926.87Z"/><path class="cls-10" d="M863.8,926.5s-2-2.23-2.8,0,2.3,12,2.68,12.61c0,0,.66,1,1.16.54S863.8,926.5,863.8,926.5Z"/><path class="cls-6" d="M903.29,924.37c-.6,4-1.17,7-1.17,7l-2.68,3.58s.07-7.85-.36-9.08c-.16-.47-.35-1.29-.55-2.19-.33-1.47-.67-3.14-.89-3.69-.36-.89-16.07-5.29-29.94,1.28,0,0,.13,1.21.14,2.56,0,1.56-.14,3.32-.86,3.59-1.33.5-.68,9.19-.68,9.19l-2.2-2.48s-.68-4.54-1.35-9.75v0c-.15-1.21-.31-2.46-.46-3.71-.36-5.24.05-14.79,6.83-20.46,4.59-2,12.08-2.62,24.4,1a15.83,15.83,0,0,1,3.48-.26C904.73,909.24,903.29,924.37,903.29,924.37Z"/><path class="cls-34" d="M872.91,958.16s3,4.1,10,3.87,9.89-3.87,9.89-3.87-3.2,6.89-9.89,6.89S872.91,958.16,872.91,958.16Z"/><path class="cls-23" d="M903.29,924.37s-1.63-.35-4.76-.7a151.7,151.7,0,0,0-30.69.15c-1.65.15-3.34.34-5.09.55v0a32,32,0,0,1-.46-3.71c-.36-5.24-1-14.87,5.76-20.54,2.89-2.43,8-4.42,13.6-4.46,9.54-.07,13.49,2.29,16.73,5.79C906.11,909.74,903.29,924.37,903.29,924.37Z"/><path class="cls-35" d="M903.29,924.37s-7.34,3.14-20.36,3.06-20.18-3.06-20.18-3.06,7.48-2.57,20.61-2.57S903.29,924.37,903.29,924.37Z"/><path class="cls-32" d="M1087.1,892.93V913h-76.66V892.93h-9.19V1376h9.19v-23.13h76.66V1376h9.18V892.93Zm0,29.24v44.65h-76.66V922.17ZM1010.44,1236v-44.65h76.66V1236Zm76.66,9.19v44.65h-76.66V1245.2Zm-76.66-63v-44.65h76.66v44.65Zm0-53.84v-44.65h76.66v44.65Zm0-53.83v-44.66h76.66v44.66Zm0-53.84V976h76.66v44.66Zm0,323V1299h76.66v44.66Z"/><path class="cls-17" d="M1009.69,989.72s-9.15,5.91-8.38,7.5a2.78,2.78,0,0,0,2,1.71l-2.67,4.13s-.21,3.74,3.92,2.88c0,0-.56,3.47,3.33,2.17,0,0,.65,2.45,2.56,2.17s7.63-4.33,7.63-4.33,1.09-1.48-.86-3.43a3.91,3.91,0,0,0-1.17-4.19,4,4,0,0,0-1.79-3.8s.24-4.55-3.61-5.36C1010.67,989.17,1010.07,989.47,1009.69,989.72Z"/><path class="cls-9" d="M993.54,998s7.44-.75,11.67.63c1,.31,1.83.79,1.91,1.8s-1.3,2.39-4.5,2.87a27.34,27.34,0,0,0-7.13,2.59S992.05,1005.4,993.54,998Z"/><polygon class="cls-36" points="472.99 1059.6 474.41 1059.61 474.48 1053.34 442.69 1048.12 442.86 1033.45 448.35 1033.52 448.37 1032.1 441.46 1032.02 441.26 1049.32 473.05 1054.54 472.99 1059.6"/><rect class="cls-37" x="451.65" y="1024.98" width="47.72" height="16.26" transform="translate(938.88 2071.71) rotate(-179.33)"/><rect class="cls-36" x="470.15" y="1058.45" width="7.08" height="42.99" transform="translate(947.37 2159.88) rotate(180)"/><path class="cls-9" d="M481.72,1088.61a9.81,9.81,0,0,1-2.53,1.63s-1.72.3-2.94.6a7.85,7.85,0,0,0-.93.28,16.07,16.07,0,0,1-5.07,1.62c-2.29.19-12.19-1.82-12.19-1.82l-.12-6.44-1.19-5.8s12.39-9.33,14.53-9.79a4.83,4.83,0,0,1,.61-.1c1.84-.19,3.21.53,4.18.55.35,0,3.84.37,4.37,1.36a4.22,4.22,0,0,1,.26,3.74,9.75,9.75,0,0,1,.92,4.92,6.32,6.32,0,0,1,.12,5.09S482.79,1087.16,481.72,1088.61Z"/><path class="cls-1" d="M344.29,1054.83s-15,44.7-13.21,46.12,41.7,12,41.7,12-5.29,36.52-7.5,36.2c-3.1-.45-58.53-30.65-60.13-34.49s11-25.4,11-25.4S334.8,1048.06,344.29,1054.83Z"/><path class="cls-38" d="M401.55,1415.48s12.44-2.64,12.87-3,3-5.37,5-4.54,2.08,6.83,4,7.81,17,10.79,18.86,12.59,13.13.53,14.48,3.69,1.59,10.69-15.28,9.21-36.05,1.61-39.71-.32S400.48,1420.34,401.55,1415.48Z"/><path class="cls-38" d="M300.91,1408.54s12.71-.62,13.19-.93,3.85-4.81,5.63-3.69,1,7.08,2.68,8.35,15,13.37,16.6,15.45,12.88,2.61,13.71,6-.14,10.81-16.56,6.65-35.84-4.18-39.15-6.67S299.07,1413.17,300.91,1408.54Z"/><path class="cls-9" d="M378.68,1028.78c-.1.24-.18.49-.26.73-.48,1.42-.89,2.85-1.24,4.23a66.23,66.23,0,0,0-1.9,14.29c1.12,4.6-18.44-14-18.44-14a229,229,0,0,0-.54-32.33C354.73,984.63,378.68,1028.78,378.68,1028.78Z"/><path class="cls-6" d="M386.9,1121.87c-.49,1.92-1,3.92-1.5,6-.23,1-.45,2-.64,3-2.85,14.81-1.36,36.2,1,60.25,0,0-10.46,3.28-65.87,12.21-2.2-71.87,11.42-138.88,11.42-138.88,5.73-18.54,12-21.43,24.92-31.17,0,0,2.49.1,20,12.63,1.22.87,6.9,12.21,10.44,24.82C393,1093.05,391.36,1104.6,386.9,1121.87Z"/><path class="cls-1" d="M371.48,1101.83a38.11,38.11,0,0,1-4,5.67c-4.22,4.89-9.39,8.39-13.9,9.66a9.88,9.88,0,0,1-6.35,0l-.48-.21c-8.8-4.44-16.36-57-.19-66.21,0,0,7.72-3.92,15.25-.77s12.88,16.39,13.87,35.7A29.38,29.38,0,0,1,371.48,1101.83Z"/><path class="cls-9" d="M390.18,986s6.6,9.89,4,11.77c-2.17,1.55,3.78,11.31,4.59,12.92s-3.9,3.27-4.82,4.44-2.72,14.69-6.66,15.46-22.41-3.78-27.76-8.39S348,995,350.35,985.08,378.56,968.68,390.18,986Z"/><path class="cls-22" d="M391.56,988s1-5.07-10.17-12.44S356,978,353.84,978.79s-11.36,11.32-6.09,23.74c8.79,20.76,9.42,20.11,9.42,20.11s.89-12.95,4.71-14.22c4.14-1.39,9.86-3.09,9.86-3.09s-4.59-9.42,1-11.34S385.55,986.37,391.56,988Z"/><path class="cls-9" d="M369.33,1006.26c-.39-1.11-2.18-6.1-6.11-5s-2,7.31,1.45,10.69S371.53,1012.49,369.33,1006.26Z"/><path class="cls-23" d="M392.92,987.86s-12.24-30.79-37.75-16.64c-29.68,16.47-3.3,40.92-3.3,40.92S359.05,998.14,392.92,987.86Z"/><path class="cls-23" d="M391.78,985.18a44.83,44.83,0,0,1,7.43.47c8.84,1.73-18.88,6.51-21.23,7.62C356.09,1003.65,391.78,985.18,391.78,985.18Z"/><path class="cls-1" d="M366,1053.29s-13.1-12.32-24.9,3.57c-6.49,8.74-.2,19.79,35.77,49.51,0,0,14.41,14.65,18.63,15.5,15.27,3,60.19-23.55,64.25-26.93l-3-16.69s-17,8.36-28.25,11.35a185,185,0,0,0-22.44,7.6Z"/><polygon class="cls-6" points="356.24 1033.29 356.6 1030.76 376.55 1042.53 376.25 1045.92 356.24 1033.29"/><polygon class="cls-39" points="300.91 1408.54 304.28 1397.34 319.44 1399.52 317.36 1409.59 300.91 1408.54"/><polygon class="cls-40" points="400.59 1409.38 401.55 1415.48 418.05 1412.43 417 1403.31 400.59 1409.38"/><path class="cls-6" d="M361.73,1213.76s-2.56,21.87-5.37,44.28c-.64,5.09-1.29,10.22-1.93,15.13-2.1,16.1-4,29.8-4.87,32.2-2.23,6.47-25.12,105.4-25.12,105.4s-27.67,3.06-28.48.41c0,0,21.46-111,21.16-114.7s3.3-107.09,3.3-107.09S360.5,1207.82,361.73,1213.76Z"/><path class="cls-6" d="M383.89,1182.36s21.62,101.15,23.45,108.89,19.55,124.23,19.55,124.23a40.74,40.74,0,0,1-28.41,4.79s-25.18-122.65-27.13-126.36c-7.6-14.4-33.9-85.8-37.57-95.79S320,1178.06,320,1178.06,346.47,1162.55,383.89,1182.36Z"/><path class="cls-41" d="M356.36,1258c-.64,5.09-1.29,10.22-1.93,15.13h0c-7.78-19.68-17.89-67.22-18-68C337.47,1208.13,356.36,1258,356.36,1258Z"/><path class="cls-37" d="M456.75,1032.83c0,4.49-2.29,8.13-5.11,8.13s-5.1-3.64-5.1-8.13,2.29-8.13,5.1-8.13S456.75,1028.34,456.75,1032.83Z"/><path class="cls-42" d="M504.42,1033.38c0,4.5-2.28,8.14-5.1,8.14s-5.11-3.64-5.11-8.14,2.29-8.13,5.11-8.13S504.42,1028.89,504.42,1033.38Z"/><path class="cls-43" d="M371.48,1101.83a38.11,38.11,0,0,1-4,5.67c-12.08-12.47-21.07-29.31-21.35-29.83C349.75,1082.52,371.48,1101.83,371.48,1101.83Z"/><rect class="cls-12" x="488.43" y="1333.85" width="46.91" height="62.2"/><rect class="cls-44" x="488.43" y="1351.28" width="46.91" height="44.76"/><rect class="cls-45" x="488.43" y="1393.62" width="46.91" height="2.42"/><path class="cls-46" d="M501.72,1368.38c-5.74,0-10-1.89-12.76-5.63-7.09-9.7-.78-28.12-.53-28.9h1.05c-.06.18-6.46,19,.32,28.29,2.53,3.45,6.53,5.2,11.92,5.2A30.6,30.6,0,0,0,527,1354.45a39.26,39.26,0,0,0,7.46-20.6h.84a39.3,39.3,0,0,1-7.46,21.22A31.62,31.62,0,0,1,501.72,1368.38Z"/><path class="cls-11" d="M378.42,1029.51c-.48,1.42-.89,2.85-1.24,4.23-9.48-2.25-15.57-10.13-15.57-10.13C368,1027.12,378.42,1029.51,378.42,1029.51Z"/></svg>