<svg id="_лой_1" data-name="‘лой_1" xmlns="http://www.w3.org/2000/svg" viewBox="0 0 3200 2000"><defs><style>.cls-1{fill:#fff;}.cls-2{fill:#ebf3fa;}.cls-3{fill:#ec6272;}.cls-4{fill:#243b52;}.cls-5{fill:#c0d6ab;}.cls-6{fill:#837cf6;}.cls-7{fill:#93bc6e;}.cls-8{fill:#e3a98a;}.cls-9{fill:#cd8c5b;}.cls-10{fill:#f2a56b;}.cls-11{fill:#202336;}.cls-12{fill:#e9783d;}.cls-13{fill:#3d5367;}.cls-14{fill:#9f7a64;}.cls-15{fill:#6f4a39;}.cls-16{fill:#f0b65b;}.cls-17{fill:#c16232;}.cls-18{fill:#c58d71;}.cls-19{fill:#1d3341;}.cls-20{fill:#3e6a88;}.cls-21{fill:#567590;}.cls-22{fill:#bcbfcd;}.cls-23{fill:#846751;}.cls-24{fill:#e3aa8b;}.cls-25{fill:#be8e75;}.cls-26{fill:#d09e4f;}.cls-27{fill:#d19d80;}.cls-28{fill:#837473;}.cls-29{fill:#e1dcdc;}.cls-30{fill:#323755;}.cls-31{fill:#3b4063;}.cls-32{fill:#555d8f;}.cls-33{fill:#24303c;}.cls-34{fill:#b3afaf;}.cls-35{fill:#b7b7b7;}.cls-36{fill:#eaeaea;}.cls-37{fill:#d0d0d0;}.cls-38{fill:#5f6068;}.cls-39{fill:#dbdeed;}.cls-40{fill:#b25c2e;}</style></defs><title>civil1</title><rect class="cls-1" width="3200" height="2000"/><rect class="cls-2" x="520.89" y="316.07" width="1866.29" height="1107.37"/><ellipse class="cls-3" cx="1739.61" cy="1476.2" rx="80.16" ry="10.05"/><ellipse class="cls-3" cx="1774.25" cy="1487.32" rx="52.68" ry="6.6"/><polygon class="cls-3" points="1746.96 1473.03 1682 1473.43 1681.52 1397.07 1682.99 1397.06 1685.72 1397.04 1742.27 1396.68 1745.02 1396.67 1746.48 1396.66 1746.96 1473.03"/><rect class="cls-1" x="1681.83" y="1418.27" width="64.96" height="54.96" transform="translate(-9.04 10.79) rotate(-0.36)"/><path class="cls-4" d="M1742.27,1396.68c-1.86,14.32-13.72,25.42-28.11,25.51s-26.39-10.87-28.44-25.15l-2.73,0c2.09,15.61,15.31,27.64,31.19,27.54s28.93-12.29,30.83-27.93Z"/><rect class="cls-2" x="2310.62" y="1015.5" width="506.17" height="411"/><path class="cls-5" d="M2376.82,1525.74c0,7.64-49.46,13.84-110.46,13.84s-110.46-6.2-110.46-13.84,49.45-13.85,110.46-13.85S2376.82,1518.09,2376.82,1525.74Z"/><path class="cls-5" d="M2386.69,1541.06c0,5-32.5,9.1-72.59,9.1s-72.6-4.07-72.6-9.1,32.51-9.1,72.6-9.1S2386.69,1536,2386.69,1541.06Z"/><path class="cls-6" d="M2213.67,1561.49c0,2.14-13.85,3.88-30.94,3.88s-30.95-1.74-30.95-3.88,13.85-3.88,30.95-3.88S2213.67,1559.34,2213.67,1561.49Z"/><path class="cls-6" d="M2182.73,1545c0,4.4-28.41,8-63.45,8s-63.44-3.56-63.44-8,28.41-8,63.44-8S2182.73,1540.62,2182.73,1545Z"/><path class="cls-4" d="M2303,1448.91c-25.92.16-47.15-21.2-47.31-47.63s20.79-48,46.71-48.21,47.15,21.2,47.31,47.62S2328.94,1448.75,2303,1448.91Zm-.58-92.23c-23.67.15-42.81,20.15-42.65,44.58s19.53,44.18,43.21,44,42.81-20.14,42.66-44.57S2326.11,1356.54,2302.43,1356.68Z"/><rect class="cls-7" x="2254.29" y="1407.22" width="97.65" height="114.8" transform="translate(-9.15 14.49) rotate(-0.36)"/><rect class="cls-1" x="2254.39" y="1439.4" width="97.65" height="82.62" transform="translate(-9.25 14.49) rotate(-0.36)"/><polygon class="cls-6" points="2201.34 1541.79 2111.83 1542.35 2111.16 1437.12 2113.19 1437.1 2116.96 1437.08 2194.89 1436.59 2198.67 1436.57 2200.68 1436.55 2201.34 1541.79"/><rect class="cls-1" x="2111.59" y="1466.34" width="89.52" height="75.74" transform="translate(-9.38 13.54) rotate(-0.36)"/><path class="cls-4" d="M2194.89,1436.59c-2.57,19.72-18.91,35-38.75,35.15s-36.37-15-39.18-34.66l-3.77,0c2.88,21.52,21.1,38.09,43,38s39.87-16.93,42.5-38.48Z"/><path class="cls-8" d="M1886.45,1178.93s.2,1.39.54,3.53c.26,1.58.59,3.56,1,5.69,1.06,5.79,2.53,12.71,4,15.68,2.73,5.56-29.13-12.44-29.13-12.44a298.36,298.36,0,0,0-9.8-41.05C1846.22,1129.05,1886.45,1178.93,1886.45,1178.93Z"/><rect class="cls-9" x="1926.97" y="1253.98" width="137.16" height="137.17" transform="translate(-304.87 659.66) rotate(-17.46)"/><rect class="cls-10" x="1938.27" y="1265.29" width="114.56" height="114.56" transform="translate(-304.86 659.61) rotate(-17.46)"/><rect class="cls-9" x="1911.82" y="1182.12" width="80.31" height="80.31" transform="translate(-276.8 641.98) rotate(-17.46)"/><rect class="cls-10" x="1918.44" y="1188.74" width="67.07" height="67.07" transform="translate(-276.79 641.94) rotate(-17.46)"/><path class="cls-8" d="M2063.82,1316.6a12.57,12.57,0,0,1-3.8,1s-2.26-.34-3.89-.47a10.33,10.33,0,0,0-1.27,0,20.56,20.56,0,0,1-6.94-.08c-2.93-.71-14.36-7.29-14.36-7.29l2.52-8,1.36-7.73s18.76-6.38,21.6-6.06a6.36,6.36,0,0,1,.8.13c2.35.52,3.76,2,4.94,2.4.44.16,4.61,2.06,4.85,3.49a5.57,5.57,0,0,1-1.21,4.75s.49,3.95-.9,6.47a8.21,8.21,0,0,1-1.95,6.34S2065.74,1315.25,2063.82,1316.6Z"/><path class="cls-11" d="M1760.44,1596.44s9.38,6.92,13.32,9.73,7.8,1.22,6.43,4.26-3.74,15.39-2,20.22,14.5,35.18,8.54,39.58-16.09-7.18-28.24-24.87-17.14-15.23-21.49-29.31C1735.61,1611.66,1760.44,1596.44,1760.44,1596.44Z"/><path class="cls-11" d="M2009.33,1643.61s11-4.77,15.56-6.81,5.12-6.31,7.11-3.52,11.74,11.28,16.91,12.27,38.75,5.3,39.58,12.87-14.71,10.59-36.7,12.24-22.39,7.34-37.15,3.92C2010,1673.52,2009.33,1643.61,2009.33,1643.61Z"/><polygon class="cls-8" points="2006.79 1636.74 2009.82 1644.95 2029.84 1635.95 2027.04 1627.96 2006.79 1636.74"/><polygon class="cls-8" points="1766.18 1589.9 1760.44 1596.44 1777.79 1609.65 1783.43 1603.41 1766.18 1589.9"/><path class="cls-12" d="M1940.9,1410.46s-1.24,4-3.62,10.48c-1.34,3.64-3,8.08-5,13.08h0c-2.54,6.28-5.61,13.44-9.19,21h0s-1.07,2.34-2.91,6.23c-1.64,3.47-3.88,8.17-6.52,13.54-10.89,22.15-28.49,55.78-37.87,62-28,18.46-92.3,79.49-92.3,79.49l-29.33-21.73s50.37-47.41,65.37-63c18.46-19.22,32.2-24,35.26-44.66,2-13.69,2.8-59.32,2.81-60.07-1.28-22.65-1.73-52.2,3.56-62.31C1865.56,1356,1940.9,1410.46,1940.9,1410.46Z"/><path class="cls-12" d="M1999.12,1498c.37-12.62-13.64-44-23.91-63.63h0c-16.13-31.35-39.12-70.74-39.12-70.74s-79.06-3.07-78.68,6.5c.7,18.07,45.63,73.24,51.83,80.77l-.13.08s23,21.42,32.89,31.22c15.84,15.62,11.61,19.35,18.59,42.5,6.26,20.72,43.62,125.66,43.62,125.66l32.48-16.5S1998.62,1515,1999.12,1498Z"/><path class="cls-12" d="M1925.92,1294.92c-.09,2.59-.17,5.28-.22,8.1,0,1.29,0,2.62,0,4,.55,19.68,2.32,29.58,12.12,59.58,0,0-12.59,11.49-80.71,38.48-23.06-91-18.24-167.67-18.24-167.67,2.19-24.54,9.3-30.71,23-46.76,0,0,3.2-.57,29.07,10.46,1.8.77,12.23,13.62,20.31,28.7C1925.53,1256.48,1926.73,1271.65,1925.92,1294.92Z"/><path class="cls-13" d="M1854.4,1215.61s10.79-7.83,21.26-5.94,17.71,8.5,24.42,32.84-12.94,38.6-25.42,35.42S1836.4,1232,1854.4,1215.61Z"/><path class="cls-14" d="M1887,1182.46c.26,1.58.59,3.56,1,5.69a110.88,110.88,0,0,1-21.45-12.18C1871.39,1179.06,1887,1182.46,1887,1182.46Z"/><path class="cls-8" d="M1903.27,1126.43s8.37,13.07,4.89,15.46c-2.88,2,4.65,14.86,5.67,17s-5.17,4.17-6.4,5.68-3.91,19.1-9.07,20-29.16-5.48-36-11.62-14.33-35.69-11-48.63S1888.52,1103.6,1903.27,1126.43Z"/><path class="cls-15" d="M1905,1129.11s1.46-6.61-13-16.5-33.26,2.63-36,3.57-15.1,14.5-8.54,30.85c11,27.31,11.83,26.44,11.83,26.44s-.08-17,4.93-18.57c5.45-1.71,14.5-3.64,14.5-3.64s-5.76-12.4,1.62-14.77S1897.22,1126.85,1905,1129.11Z"/><path class="cls-8" d="M1875.56,1152.43c-.48-1.47-2.7-8-7.86-6.63s-2.78,9.49,1.64,14S1878.28,1160.6,1875.56,1152.43Z"/><path class="cls-16" d="M1906.8,1129s-15.22-40.5-48.87-22.64c-39.14,20.77-5.31,53.32-5.31,53.32S1862.34,1141.57,1906.8,1129Z"/><path class="cls-16" d="M1905.37,1125.45a58.9,58.9,0,0,1,9.69.8c11.5,2.48-24.8,8-27.9,9.43C1858.34,1148.69,1905.37,1125.45,1905.37,1125.45Z"/><path class="cls-13" d="M1890.93,1216.09s-25.33-22.91-38.68,1.86c-12,22.3,17,31.64,66.17,71.16,0,0,15.84,11.09,28.27,13.75,19.87,4.26,86.07,9.5,92.29,11.22l-.91-22.28s-32.85-4.59-48.56-9.67-42.48-10-42.48-10Z"/><path class="cls-17" d="M1925.92,1294.92h0c-.09,2.59-.17,5.28-.22,8.1,0,1.29,0,2.62,0,4-18.22-14-29.09-34.54-29.42-35C1902.73,1276.72,1925.92,1294.92,1925.92,1294.92Z"/><path class="cls-17" d="M1920.13,1461.26c-1.64,3.47-3.88,8.17-6.52,13.54-21.22-29.22-29.72-56.47-29.85-56.9C1896.71,1436.79,1920.13,1461.26,1920.13,1461.26Z"/><polygon class="cls-13" points="1861.86 1190.64 1861.95 1186.3 1890.36 1196.69 1890.92 1201.1 1861.86 1190.64"/><path class="cls-8" d="M1332.09,1088s3.19-9.89,3.72-11.39,4.1-4.12,8.46-6.79,11.44-4.31,12.23-3.94a4.48,4.48,0,0,1,2.92,2.33,8.61,8.61,0,0,1,1,4.24s2.54,1.75,2.18,4.54a4.54,4.54,0,0,1,1.38,4.87s2.21,1.78,1.35,4a34.47,34.47,0,0,0-4.61,4c-1,1.36-9.24,5.52-17.46,9.15C1343.27,1099,1334.76,1104.18,1332.09,1088Z"/><path class="cls-18" d="M1345.46,1081.76s.47,5.19-.14,6.72,10.9,4,10.9,4S1351.8,1081.36,1345.46,1081.76Z"/><path class="cls-8" d="M1333.69,1095.09a31.4,31.4,0,0,0,.93-8c-.26-3.3,15.87,7,15.87,7s-5.68,5.47-10,9.54C1337,1106.81,1333.69,1095.09,1333.69,1095.09Z"/><path class="cls-19" d="M1137.15,1498.43s-3.12,7.51-5.75,10.48-12.68,8.3-12.73,17.14c-.06,9.58,16.95,6.92,23.6,6.57s7.16-5.47,10-10.9,5.63-4.5,6.15-8.88-2.14-14.17-2.14-14.17Z"/><path class="cls-20" d="M1136.85,1495.66l.52,4.93a30.6,30.6,0,0,0,18.86,0l-.06-6.2Z"/><path class="cls-19" d="M1237.46,1498.43s3.11,7.51,5.74,10.48,12.68,8.3,12.73,17.14c.06,9.58-17,6.92-23.6,6.57s-7.15-5.47-9.95-10.9-5.63-4.5-6.15-8.88,2.14-14.17,2.14-14.17Z"/><path class="cls-20" d="M1237.75,1495.66l-.52,4.93a30.6,30.6,0,0,1-18.86,0l.06-6.2Z"/><path class="cls-13" d="M1251.85,1372.79c0,11.81-9.12,123.61-9.12,123.61-1.18,3.93-23.33,4.35-27.26,2.38s.34-113.85-.39-125.76-18.76-100.65-22.21-100.26-14.94,98.63-17.69,107.69-16.74,117.79-16.74,117.79c-8.66,5.11-26.86,0-26.86,0s3.39-112.88,3.89-116.21c.73-4.93,0-18.21,2-47.68,1.79-26.36,8.27-83.76,12.37-114.84q.23-1.65.42-3.18c.81-6,1.41-10.5,1.7-12.63l.2-1.41c1.1-.51,2.26-1,3.46-1.41,28.85-10.37,84.48.6,84.48.6s0,.28.1.79.18,1.61.33,2.87c.32,2.75.8,6.82,1.35,11.56,0,0,0,.07,0,.1s0,.29.05.44c1.94,16.85,4.69,41.53,4.43,44.1C1245.94,1265.28,1251.85,1361,1251.85,1372.79Z"/><path class="cls-21" d="M1213.27,1485.61l1.4,13.2s1.2,1.86,14,2.23,14.87-4.18,14.87-4.18l.56-11.9S1232.88,1490.35,1213.27,1485.61Z"/><path class="cls-21" d="M1161.23,1485.61l-1.4,13.2s-1.2,1.86-14,2.23-14.87-4.18-14.87-4.18l-.56-11.9S1141.62,1490.35,1161.23,1485.61Z"/><rect class="cls-22" x="1147.78" y="1265.95" width="8.84" height="10.55" transform="translate(2786.91 750.37) rotate(114.52)"/><rect class="cls-22" x="1149.21" y="1254.97" width="16.49" height="9.48" transform="translate(2783.89 729.36) rotate(114.52)"/><path class="cls-22" d="M1165.19,1254.17l.44-19.52a.93.93,0,0,0-1.77-.41l-7.29,16Z"/><rect class="cls-22" x="1138.07" y="1232.75" width="7.36" height="39.57" transform="translate(2755.26 733.87) rotate(114.53)"/><rect class="cls-23" x="1094.18" y="1201.43" width="8" height="62.48" transform="translate(2675.51 745.37) rotate(114.53)"/><path class="cls-8" d="M1095.49,1245.83a11.6,11.6,0,0,1-.37-3.58s.61-2,1-3.45a10.39,10.39,0,0,0,.22-1.14,18.63,18.63,0,0,1,1-6.26c1-2.55,8.54-12,8.54-12l6.92,3.36,6.8,2.29s3.21,17.83,2.54,20.35a6.57,6.57,0,0,1-.23.71c-.79,2.05-2.3,3.13-2.84,4.14-.21.37-2.49,3.88-3.82,3.91a5.08,5.08,0,0,1-4.12-1.75s-3.65-.09-5.73-1.69a7.52,7.52,0,0,1-5.47-2.63S1096.44,1247.74,1095.49,1245.83Z"/><path class="cls-12" d="M1344.6,1100.49s-31.77,52.39-43.14,49.6c-5.26-1.3-22.69-14.73-29.27-23.27-2.17-2.81-4.3-5.76-6.33-8.68h0c-8.08-11.66-14.41-22.84-14.41-22.84s-23.87-28-4.71-40.44c0,0,9.19-.61,15.57,6.23s11.65,19.16,13.32,22.81,23.78,30,25,30.74,9.57-3.76,15.06-9.9c8.1-9,16.91-21.25,16.91-21.25Z"/><path class="cls-24" d="M1219.37,1040.69s5,1.07-16,21.2c0,0-14.9-16.48-14.42-19.24S1219.37,1040.69,1219.37,1040.69Z"/><path class="cls-12" d="M1241.53,1214s-1.53-40.24-1-51.32a212.52,212.52,0,0,1,6.08-40.54.14.14,0,0,0,0-.06l0-.1c.62-2.5,1.21-4.66,1.71-6.41l14.41-54c-10.11-11.38-43.72-21-43.72-21H1195.2s-41.75,12.87-52,16.81-33.38,81.42-33.71,85.88c-.37,4.82-10,80.24-10,80.24,12.43.87,23.19,1.91,23.19,1.91s9.46-62.33,10.75-68.78c1-4.81,15.1-44,16.15-43.47s8.25,40.53,1,99.91C1150.67,1213.09,1179.59,1224,1241.53,1214Z"/><path class="cls-24" d="M1208.21,963.3s22.25,3.5,18.86,38.31-23,31.95-24.33,31.92-19.71.63-21.15-41.86C1181.59,991.67,1181,960.24,1208.21,963.3Z"/><path class="cls-24" d="M1218.6,1023.28s-.61,14.31.77,17.41-18.37,12.93-30.41,1.84c0,0,2.92-15.44,2.11-20.95S1218.6,1023.28,1218.6,1023.28Z"/><path class="cls-24" d="M1227.42,991.78s2.43-2.6,3.33,0-3.78,14.41-3.48,14.93c0,0-.44,1-1,.46S1227.42,991.78,1227.42,991.78Z"/><path class="cls-24" d="M1181.84,991.34s-2.38-2.65-3.33,0,2.74,14.28,3.19,15c0,0,.78,1.2,1.37.65S1181.84,991.34,1181.84,991.34Z"/><path class="cls-13" d="M1228.8,988.81c-.71,4.76-1.39,8.31-1.39,8.31l-3.19,4.25s.09-9.33-.42-10.79c-.19-.55-.42-1.54-.66-2.6-.39-1.75-.79-3.74-1.06-4.39-.43-1.06-19.1-6.29-35.6,1.52,0,0,.15,1.44.16,3,0,1.86-.17,4-1,4.28-1.58.59-.8,10.93-.8,10.93l-2.62-3s-.81-5.39-1.61-11.59a.18.18,0,0,0,0,0c-.18-1.44-.37-2.93-.54-4.4-.44-6.25,0-17.59,8.11-24.34,5.46-2.41,14.37-3.11,29,1.2a19,19,0,0,1,4.14-.31C1230.51,970.82,1228.8,988.81,1228.8,988.81Z"/><path class="cls-25" d="M1192.68,1029s3.59,4.88,11.83,4.61,11.76-4.61,11.76-4.61-3.81,8.2-11.76,8.2S1192.68,1029,1192.68,1029Z"/><path class="cls-16" d="M1228.8,988.81s-1.94-.41-5.66-.83a180.4,180.4,0,0,0-36.5.17q-2.92.29-6.05.66a.18.18,0,0,0,0,0,36.92,36.92,0,0,1-.54-4.4c-.44-6.25-1.21-17.69,6.85-24.44,3.42-2.88,9.47-5.25,16.17-5.3,11.34-.08,16,2.73,19.89,6.88C1232.15,971.41,1228.8,988.81,1228.8,988.81Z"/><path class="cls-26" d="M1228.8,988.81s-8.73,3.73-24.21,3.64-24-3.64-24-3.64,8.9-3,24.51-3S1228.8,988.81,1228.8,988.81Z"/><path class="cls-22" d="M1447.39,951.42v23.85h-91.17V951.42H1345.3v574.47h10.92v-27.5h91.17v27.5h10.92V951.42Zm0,34.77v53.1h-91.17v-53.1Zm-91.17,373.23v-53.11h91.17v53.11Zm91.17,10.92v53.1h-91.17v-53.1Zm-91.17-74.95v-53.1h91.17v53.1Zm0-64v-53.11h91.17v53.11Zm0-64v-53.1h91.17v53.1Zm0-64v-53.11h91.17v53.11Zm0,384.15v-53.11h91.17v53.11Z"/><path class="cls-27" d="M1355.33,1066.53s-10.87,7-10,8.91a3.29,3.29,0,0,0,2.4,2l-3.17,4.92s-.26,4.45,4.66,3.43c0,0-.67,4.12,4,2.58,0,0,.78,2.91,3,2.58s9.08-5.15,9.08-5.15,1.29-1.77-1-4.08a4.66,4.66,0,0,0-1.39-5,4.79,4.79,0,0,0-2.12-4.53s.28-5.41-4.3-6.37C1356.5,1065.87,1355.79,1066.23,1355.33,1066.53Z"/><path class="cls-8" d="M1336.13,1076.34s8.84-.88,13.88.76c1.14.37,2.18.94,2.26,2.13s-1.54,2.85-5.35,3.43a32.15,32.15,0,0,0-8.47,3.07S1334.36,1085.17,1336.13,1076.34Z"/><polygon class="cls-28" points="717.09 1149.62 718.77 1149.64 718.86 1142.18 681.05 1135.98 681.26 1118.53 687.78 1118.61 687.8 1116.92 679.59 1116.83 679.35 1137.4 717.16 1143.61 717.09 1149.62"/><rect class="cls-29" x="691.7" y="1108.46" width="56.75" height="19.34" transform="translate(1427.02 2244.6) rotate(-179.33)"/><rect class="cls-28" x="713.71" y="1148.25" width="8.42" height="51.13" transform="translate(1435.83 2347.63) rotate(180)"/><path class="cls-8" d="M727.47,1184.12a11.41,11.41,0,0,1-3,1.94s-2.05.36-3.49.72a9,9,0,0,0-1.11.32,18.53,18.53,0,0,1-6,1.93c-2.73.24-14.5-2.16-14.5-2.16l-.15-7.66-1.41-6.9s14.74-11.09,17.28-11.64a6.81,6.81,0,0,1,.73-.11c2.18-.23,3.82.62,5,.65.42,0,4.57.45,5.2,1.62a5,5,0,0,1,.32,4.45s1.57,3.27,1.09,5.85a7.45,7.45,0,0,1,.14,6S728.74,1182.4,727.47,1184.12Z"/><path class="cls-1" d="M564,1144s-17.82,53.15-15.71,54.84,49.58,14.32,49.58,14.32-6.28,43.43-8.92,43.05c-3.68-.53-69.6-36.45-71.5-41s13-30.21,13-30.21S552.75,1135.9,564,1144Z"/><path class="cls-30" d="M632.13,1572.84s14.8-3.14,15.31-3.6,3.59-6.38,5.91-5.4,2.47,8.12,4.73,9.29,20.21,12.83,22.42,15,15.62.63,17.23,4.39,1.89,12.71-18.17,11-42.88,1.91-47.23-.38S630.85,1578.63,632.13,1572.84Z"/><path class="cls-30" d="M512.45,1564.58s15.11-.73,15.69-1.1,4.57-5.72,6.69-4.38,1.14,8.41,3.19,9.93,17.89,15.9,19.73,18.36,15.32,3.12,16.31,7.09-.17,12.85-19.69,7.9-42.63-5-46.56-7.93S510.26,1570.09,512.45,1564.58Z"/><path class="cls-8" d="M604.93,1113c-.11.29-.21.59-.31.88-.57,1.69-1,3.38-1.47,5a78.75,78.75,0,0,0-2.26,17c1.33,5.47-21.94-16.67-21.94-16.67a270.73,270.73,0,0,0-.63-38.45C576.44,1060.47,604.93,1113,604.93,1113Z"/><path class="cls-13" d="M614.71,1223.68c-.59,2.28-1.19,4.66-1.79,7.16-.27,1.14-.53,2.33-.76,3.56-3.38,17.61-1.61,43,1.2,71.64,0,0-12.44,3.91-78.33,14.52-2.62-85.47,13.58-165.15,13.58-165.15,6.81-22.06,14.31-25.49,29.63-37.08,0,0,3,.12,23.8,15,1.45,1.05,8.2,14.52,12.42,29.52C621.92,1189.41,620,1203.15,614.71,1223.68Z"/><path class="cls-1" d="M596.36,1199.85a44.07,44.07,0,0,1-4.79,6.74c-5,5.81-11.16,10-16.52,11.48a11.8,11.8,0,0,1-7.56,0,5.69,5.69,0,0,1-.56-.26c-10.47-5.28-19.46-67.72-.23-78.74,0,0,9.18-4.65,18.13-.91s15.32,19.49,16.5,42.46A34.91,34.91,0,0,1,596.36,1199.85Z"/><path class="cls-8" d="M618.61,1062.05s7.84,11.76,4.71,14c-2.59,1.85,4.49,13.45,5.46,15.36s-4.64,3.9-5.74,5.29-3.23,17.46-7.91,18.38-26.66-4.49-33-10-13.67-32.25-10.87-44.09S604.79,1041.51,618.61,1062.05Z"/><path class="cls-15" d="M620.25,1064.46s1.22-6-12.1-14.8-30.24,3-32.76,3.86-13.5,13.47-7.25,28.24c10.46,24.69,11.21,23.92,11.21,23.92s1.06-15.41,5.6-16.92c4.92-1.65,11.73-3.68,11.73-3.68s-5.46-11.19,1.22-13.48S613.1,1062.54,620.25,1064.46Z"/><path class="cls-8" d="M593.82,1086.2c-.47-1.33-2.6-7.26-7.28-5.9s-2.37,8.69,1.73,12.71S596.43,1093.6,593.82,1086.2Z"/><path class="cls-16" d="M621.86,1064.31s-14.55-36.62-44.89-19.78c-35.29,19.58-3.92,48.65-3.92,48.65S581.59,1076.54,621.86,1064.31Z"/><path class="cls-16" d="M620.5,1061.13a52.91,52.91,0,0,1,8.84.56c10.52,2.06-22.45,7.73-25.25,9.06C578.06,1083.09,620.5,1061.13,620.5,1061.13Z"/><path class="cls-1" d="M589.89,1142.13s-15.57-14.66-29.6,4.24c-7.72,10.4-.24,23.54,42.53,58.87,0,0,17.14,17.43,22.16,18.43,18.16,3.62,71.58-28,76.41-32l-3.53-19.86s-20.22,10-33.6,13.5a221,221,0,0,0-26.68,9Z"/><polygon class="cls-13" points="578.24 1118.33 578.67 1115.32 602.4 1129.32 602.04 1133.36 578.24 1118.33"/><polygon class="cls-31" points="512.45 1564.58 516.46 1551.27 534.48 1553.86 532 1565.84 512.45 1564.58"/><polygon class="cls-32" points="630.99 1565.59 632.13 1572.84 651.74 1569.21 650.5 1558.37 630.99 1565.59"/><path class="cls-13" d="M584.78,1333s-3,26-6.39,52.65c-.76,6.06-1.54,12.16-2.29,18-2.5,19.15-4.81,35.44-5.8,38.3-2.66,7.69-29.87,125.34-29.87,125.34s-32.91,3.64-33.87.49c0,0,25.53-132,25.17-136.4S535.64,1304,535.64,1304,583.32,1325.89,584.78,1333Z"/><path class="cls-13" d="M611.13,1295.62s25.71,120.29,27.89,129.49,23.24,147.73,23.24,147.73a48.44,48.44,0,0,1-33.79,5.7s-29.93-145.86-32.26-150.28c-9-17.12-40.31-102-44.67-113.9s-16.42-23.86-16.42-23.86S566.63,1272.05,611.13,1295.62Z"/><path class="cls-33" d="M578.39,1385.61c-.76,6.06-1.54,12.16-2.29,18h0c-9.25-23.4-21.27-79.94-21.45-80.82C555.93,1326.26,578.39,1385.61,578.39,1385.61Z"/><path class="cls-29" d="M697.77,1117.79c0,5.34-2.72,9.67-6.07,9.67s-6.07-4.33-6.07-9.67,2.72-9.67,6.07-9.67S697.77,1112.45,697.77,1117.79Z"/><path class="cls-34" d="M754.46,1118.45c0,5.34-2.71,9.67-6.07,9.67s-6.07-4.33-6.07-9.67,2.72-9.67,6.07-9.67S754.46,1113.11,754.46,1118.45Z"/><path class="cls-35" d="M596.36,1199.85a44.07,44.07,0,0,1-4.79,6.74c-14.36-14.83-25.05-34.85-25.38-35.48C570.52,1176.88,596.36,1199.85,596.36,1199.85Z"/><rect class="cls-12" x="735.45" y="1475.76" width="55.79" height="73.97"/><rect class="cls-36" x="735.45" y="1496.5" width="55.79" height="53.23"/><rect class="cls-37" x="735.45" y="1546.85" width="55.79" height="2.88"/><path class="cls-38" d="M751.25,1516.83c-6.82,0-11.93-2.25-15.17-6.7-8.43-11.54-.93-33.43-.63-34.37h1.24c-.07.22-7.67,22.62.39,33.64,3,4.11,7.77,6.19,14.17,6.19,15.49,0,24.92-8.33,30.11-15.32a46.85,46.85,0,0,0,8.88-24.51h1a46.67,46.67,0,0,1-8.88,25.24C777,1508.23,767.26,1516.83,751.25,1516.83Z"/><path class="cls-14" d="M604.62,1113.85c-.57,1.69-1,3.38-1.47,5-11.27-2.68-18.52-12.05-18.52-12.05C592.18,1111,604.62,1113.85,604.62,1113.85Z"/><path class="cls-8" d="M2585.08,1298.33s-5.29-9.66-6.14-11.11-5.09-3.48-10.16-5.38-12.76-2.21-13.52-1.66a4.7,4.7,0,0,0-2.57,3,9,9,0,0,0-.21,4.6s-2.29,2.33-1.36,5.17a4.82,4.82,0,0,0-.47,5.34s-1.94,2.29-.61,4.41a37.43,37.43,0,0,1,5.6,3.24c1.35,1.21,10.46,4.85,19.74,7C2575.38,1312.94,2585.53,1315.71,2585.08,1298.33Z"/><path class="cls-8" d="M2588.05,1302.06a33.71,33.71,0,0,1-5.43-6.64c-1.66-3.09-9.17,13.18-9.17,13.18s9.36.39,13.48,3.29S2588.05,1302.06,2588.05,1302.06Z"/><path class="cls-39" d="M2684.31,1237.57l-27.16,68.63s-1.35,9.51-21.18,3.09c-20.23-6.56-52.68-15.2-52.68-15.2s-10.37,21-8,22.35c6.93,4,64.4,23,87.68,29.36,18.46,5,53.59-89.06,53.59-89.06Z"/><path class="cls-12" d="M2674.74,1322.1q1.74,3.35,3.56,7c.56,1.12,1.11,2.3,1.64,3.52,7.66,17.46,6.9,47.18-2.19,73.11,0,0,31.53,2.52,105.14-.86-16.62-88.89-52.27-167.72-52.27-167.72-7.33-18.7-18-27.22-40.45-31.86,0,0-3.17.77-22.29,20.7-1.33,1.39-5.56,16.79-6.71,33.21C2659.15,1288.25,2664.35,1302,2674.74,1322.1Z"/><path class="cls-39" d="M2689.16,1293.55a48.32,48.32,0,0,0,6.7,5.89c6.74,4.9,14.33,7.85,20.46,8.23a13.58,13.58,0,0,0,8.16-1.65,5,5,0,0,1,.56-.38c21.79-10.23,10.71-85.25-12.56-92.41,0,0-13.49-7.16-22.31-1.36-7.46,4.91-13.52,34-12,52.45q.26,3.2.71,6.58c.18,1.29.37,2.6.59,3.94A36.07,36.07,0,0,0,2689.16,1293.55Z"/><path class="cls-8" d="M2639.83,1149.47s-7.15,13.33-3.59,15.39c3,1.71-3.41,14.79-4.24,16.93s5.34,3.67,6.65,5,5.23,18.27,10.31,18.77,27.94-7.51,34.15-14,11.26-35.75,7.07-48.08S2652.45,1126.17,2639.83,1149.47Z"/><path class="cls-15" d="M2638.32,1152.2s-1.91-6.3,11.38-17,32.53.06,35.3.76,15.76,13,10.61,29.35c-8.61,27.37-9,26.22-9,26.22s-1.73-16.17-6.72-17.32c-5.42-1.24-14.37-2.44-14.37-2.44s4.67-12.49-2.67-14.24S2645.75,1149.43,2638.32,1152.2Z"/><path class="cls-8" d="M2668.71,1172.66c.37-1.46,2-8,7.15-7s3.41,9-.54,13.72S2666.69,1180.81,2668.71,1172.66Z"/><path class="cls-16" d="M2637.72,1148.68a56.82,56.82,0,0,0-9.36,1.5c-11,3.27,24.71,6,27.82,7.07C2685.17,1167.74,2637.72,1148.68,2637.72,1148.68Z"/><path class="cls-19" d="M2629.43,1651.94s-11-4.47-15.55-6.39-5.2-6.12-7.1-3.31-11.35,11.41-16.45,12.5-38.19,6.12-38.84,13.62,14.77,10.14,36.55,11.27,22.31,6.76,36.83,3C2629.39,1681.53,2629.43,1651.94,2629.43,1651.94Z"/><path class="cls-19" d="M2950.42,1529.77s-5.45,10.15-7.77,14.33-6.47,4.4-4,6.53,9.85,12.17,10.38,17.21,1.93,37.58,9.12,39,11.35-13.23,14.72-34.18,8.86-20.87,6.79-35.3C2979.06,1532.85,2950.42,1529.77,2950.42,1529.77Z"/><polygon class="cls-8" points="2631.78 1645.09 2628.97 1653.28 2608.97 1644.83 2611.57 1636.86 2631.78 1645.09"/><polygon class="cls-8" points="2942.53 1526.35 2950.42 1529.77 2940.52 1548.92 2932.82 1545.73 2942.53 1526.35"/><path class="cls-18" d="M2569.91,1294.51s.55,5.5,1.49,7-10.55,6.33-10.55,6.33S2563.24,1295.35,2569.91,1294.51Z"/><path class="cls-12" d="M2710.39,1440s2.78,3,7.67,7.84c2.48,2.43,5.49,5.33,9,8.54l1.09,1h0c2.65,2.44,5.55,5.05,8.67,7.76,2.66,2.31,5.49,4.71,8.44,7.13h0s59.1,51.09,74.65,57.54c30.68,12.71,113,38.58,113,38.58l22.64-45.06s-65.29-19-85.31-26.56c-24.63-9.36-38.94-7.83-50.42-25-7.65-11.42-27.76-52.13-27.95-52.5-8.45-20.79-20.55-47.39-29.57-54.18C2754.66,1359.36,2710.39,1440,2710.39,1440Z"/><path class="cls-12" d="M2636.26,1507.69c-.41-11.47,12.49-43.83,22.21-63.45h0c15.25-31.36,30.75-64,30.75-64s88.5,0,88.35,9.43c-.29,18-39.77,54.71-46.62,62.65l-6.75,6.85s-16.4,15.75-23.07,27.83c-9.73,17.64-14.57,29.88-21,52.92-5.72,20.64-33.59,121.73-33.59,121.73l-48.16-16.59S2636.89,1525.48,2636.26,1507.69Z"/><path class="cls-8" d="M2662.79,1198.72s.31,1.36.75,3.46c.32,1.54.71,3.49,1.11,5.6,1.07,5.72,3.35,12.53,3.06,15.79-.56,6.09,21.31-21.7,21.31-21.7a294.81,294.81,0,0,1-5.49-41.38C2682.29,1138.42,2662.79,1198.72,2662.79,1198.72Z"/><path class="cls-14" d="M2663.54,1202.18c.32,1.54.71,3.49,1.11,5.6a109.93,109.93,0,0,0,15.5-18.84C2676.74,1193.51,2663.54,1202.18,2663.54,1202.18Z"/><path class="cls-16" d="M2636.59,1152.21s8-34.71,43.55-23.92,12.18,49.64,12.18,49.64S2680.75,1161.12,2636.59,1152.21Z"/><rect class="cls-13" x="2754.68" y="899.91" width="12.06" height="709.27" transform="translate(4181.39 -1424.47) rotate(93.5)"/><rect class="cls-13" x="2747.62" y="1015.46" width="12.06" height="709.27" transform="translate(4288.99 -1294.95) rotate(93.49)"/><rect class="cls-13" x="2405.21" y="1286.84" width="121.94" height="13.06" transform="translate(1024.71 3676.02) rotate(-86.5)"/><rect class="cls-13" x="2500.62" y="1292.67" width="121.94" height="13.06" transform="translate(1108.5 3776.74) rotate(-86.5)"/><rect class="cls-13" x="2596.04" y="1298.51" width="121.94" height="13.05" transform="translate(1192.25 3877.45) rotate(-86.5)"/><rect class="cls-13" x="2691.46" y="1304.34" width="121.94" height="13.06" transform="translate(1275.79 3978.04) rotate(-86.5)"/><rect class="cls-13" x="2786.88" y="1310.18" width="121.94" height="13.05" transform="translate(1359.56 4078.76) rotate(-86.5)"/><rect class="cls-13" x="2882.29" y="1316.01" width="121.94" height="13.06" transform="translate(1443.56 4179.6) rotate(-86.5)"/><rect class="cls-13" x="2977.71" y="1321.85" width="121.94" height="13.06" transform="translate(1527.61 4280.46) rotate(-86.51)"/><path class="cls-8" d="M2757.63,1385.1a12.57,12.57,0,0,0,2.63-3s.79-2.33,1.45-4a11.75,11.75,0,0,1,.57-1.23,22.94,22.94,0,0,0,3.22-6.63c.8-3.18.72-17.79.72-17.79l-7.91-2.19-7.11-3.11s-14.24,14.16-15.32,17a7.27,7.27,0,0,0-.27.83c-.68,2.53-.13,4.69-.34,6.06-.07.5-.47,5.54.62,6.6a4.93,4.93,0,0,0,4.54,1.55s3.08,2.73,5.84,2.84a7.34,7.34,0,0,0,6.23,1.76S2755.59,1386.16,2757.63,1385.1Z"/><path class="cls-39" d="M2692.38,1244.36s-16.09-1.22-7.74-24.31c9.41-26,41,.4,105.85,26.94,0,0,18.16,7.34,13,26.75s-28.21,81-29.72,87.25l-26-14.29s11.83-30.59,15-46.61,5.4-30.9,5.4-30.9Z"/><path class="cls-27" d="M2556.61,1280.62s12.72,5.15,12.15,7.3a3.5,3.5,0,0,1-2.1,2.59l4.28,4.49s1.15,4.57-4.16,4.49c0,0,1.52,4.16-3.61,3.47,0,0-.22,3.19-2.65,3.29s-10.48-3.54-10.48-3.54-2-1.57-.09-4.44a5,5,0,0,1,.74-5.34,5.57,5.57,0,0,1,1.35-5.39s-1.35-5.45,3.22-7.36C2555.26,1280.18,2556.07,1280.4,2556.61,1280.62Z"/><path class="cls-8" d="M2578.55,1287s-9.38.84-14.29,3.55c-1.12.61-2.08,1.41-1.93,2.67s2.17,2.65,6.25,2.49a34.72,34.72,0,0,1,9.43,1.51S2582.15,1295.85,2578.55,1287Z"/><polygon class="cls-39" points="2690.17 1205.29 2689.02 1202.27 2666.57 1221.9 2667.88 1225.99 2690.17 1205.29"/><path class="cls-40" d="M2727,1456.32h0l1.09,1h0c2.65,2.44,5.55,5.05,8.67,7.76,12.46-18.62,26.79-48.4,27.06-48.95C2757.66,1424.64,2727,1456.32,2727,1456.32Z"/></svg>