<svg id="_лой_1" data-name="‘лой_1" xmlns="http://www.w3.org/2000/svg" viewBox="0 0 3200 2000"><defs><style>.cls-1{fill:#fff;}.cls-2{fill:#ebf3fa;}.cls-3{fill:#c0d8fb;}.cls-4{fill:#dfebfd;}.cls-5{fill:#b7d3f3;}.cls-6{fill:#95b3ef;}.cls-7{fill:#afcdfb;}.cls-11,.cls-8,.cls-9{fill:#9db0f4;}.cls-8{opacity:0.2;}.cls-9{opacity:0.4;}.cls-10{fill:#c4d1f7;}.cls-12,.cls-14{opacity:0.5;}.cls-13{fill:#7b94db;}.cls-14,.cls-19{fill:#86a2f2;}.cls-15{fill:#f9ddbf;}.cls-16{fill:#f99746;}.cls-17{fill:#bdd1f9;}.cls-18{fill:#718ddb;}.cls-20{fill:#2b478b;}.cls-21{fill:#2e3552;}.cls-22{fill:#a8d29f;}.cls-23{fill:#82b378;}.cls-24{fill:#91b5f8;}.cls-25{fill:#2c3a64;}.cls-26{fill:#ffb27d;}.cls-27{fill:#233862;}.cls-28{fill:#eac3a2;}.cls-29{fill:#ed985f;}.cls-30{fill:#ffb93e;}.cls-31{fill:#ed975d;}.cls-32{fill:#212d4c;}.cls-33{fill:#2a4e96;}.cls-34{fill:#f9b27d;}.cls-35{fill:#ed7d2b;}</style></defs><title>10204</title><rect class="cls-1" width="3200" height="2000"/><path class="cls-2" d="M2975.42,1771.07l-2593.19-.79S46.66,1334,201.17,918.82c256-687.92,1041.46-255,1301.65-515.17a583.78,583.78,0,0,1,76.64-64.31c55.45-39.11,118.25-69.81,185.64-92.4,511.78-171.57,1287.41,125.18,1108.38,767.14C2769.78,1385.89,3189.07,1399.41,2975.42,1771.07Z"/><rect class="cls-3" x="1000.98" y="604.39" width="183.34" height="177.86" rx="13.11"/><rect class="cls-4" x="1008.92" y="612.1" width="167.45" height="162.45" rx="11.98"/><path class="cls-5" d="M1088.85,628.33a3.8,3.8,0,1,1,3.8,3.8A3.8,3.8,0,0,1,1088.85,628.33Z"/><path class="cls-5" d="M1119.5,633.7a3.79,3.79,0,1,1,1.47,5.16A3.8,3.8,0,0,1,1119.5,633.7Z"/><path class="cls-5" d="M1145.75,654.56a3.8,3.8,0,1,1-1.13,5.25A3.8,3.8,0,0,1,1145.75,654.56Z"/><path class="cls-5" d="M1158.75,686.84a3.8,3.8,0,1,1-3.79,3.8A3.8,3.8,0,0,1,1158.75,686.84Z"/><circle class="cls-5" cx="1149.43" cy="726.99" r="3.8"/><path class="cls-5" d="M1128.27,748.22a3.8,3.8,0,1,1-5.38,0A3.8,3.8,0,0,1,1128.27,748.22Z"/><path class="cls-5" d="M1088.85,760.54a3.8,3.8,0,1,1,3.8,3.8A3.8,3.8,0,0,1,1088.85,760.54Z"/><path class="cls-5" d="M1065.68,633.7a3.8,3.8,0,1,0-1.47,5.16A3.81,3.81,0,0,0,1065.68,633.7Z"/><path class="cls-5" d="M1039.43,654.56a3.8,3.8,0,1,0,1.13,5.25A3.8,3.8,0,0,0,1039.43,654.56Z"/><path class="cls-5" d="M1026.42,686.84a3.8,3.8,0,1,0,3.8,3.8A3.8,3.8,0,0,0,1026.42,686.84Z"/><circle class="cls-5" cx="1035.75" cy="726.99" r="3.8"/><path class="cls-5" d="M1056.91,748.22a3.8,3.8,0,1,0,5.37,0A3.8,3.8,0,0,0,1056.91,748.22Z"/><path class="cls-5" d="M1091.62,690.64a3.8,3.8,0,1,1,3.8,3.8A3.8,3.8,0,0,1,1091.62,690.64Z"/><rect class="cls-5" x="1094.9" y="643.19" width="1.04" height="47.44"/><rect class="cls-5" x="1091.53" y="679.14" width="31.98" height="3.11" transform="translate(-183.95 829.21) rotate(-38.14)"/><path class="cls-6" d="M1780.29,1111.89h-23.94a4.73,4.73,0,0,1-4.71-4.72h0a4.72,4.72,0,0,1,4.71-4.71h23.94a4.73,4.73,0,0,1,4.72,4.71h0A4.73,4.73,0,0,1,1780.29,1111.89Z"/><path class="cls-6" d="M1947.68,1111.89h-23.94a4.73,4.73,0,0,1-4.71-4.72h0a4.72,4.72,0,0,1,4.71-4.71h23.94a4.73,4.73,0,0,1,4.72,4.71h0A4.74,4.74,0,0,1,1947.68,1111.89Z"/><path class="cls-7" d="M1775.26,1072.45h156.62a0,0,0,0,1,0,0v117.31a19.81,19.81,0,0,1-19.81,19.81h-117a19.8,19.8,0,0,1-19.8-19.8V1072.45A0,0,0,0,1,1775.26,1072.45Z"/><path class="cls-6" d="M1932.51,1077.45H1774.63a2.88,2.88,0,0,1-2.87-2.87h0a2.88,2.88,0,0,1,2.87-2.87h157.88a2.88,2.88,0,0,1,2.87,2.87h0A2.88,2.88,0,0,1,1932.51,1077.45Z"/><path class="cls-8" d="M1765.1,248.65V486.7H1579.46V341.05C1634.91,301.94,1697.71,271.23,1765.1,248.65Z"/><rect class="cls-9" x="1538.55" y="486.7" width="267.48" height="76.29"/><polygon class="cls-8" points="1422.77 700.73 1544.54 563 1812.02 563 1921.8 700.73 1422.77 700.73"/><rect class="cls-9" x="1387.84" y="700.73" width="581.87" height="38.82"/><rect class="cls-10" x="870.62" y="1224.75" width="1121.09" height="547.94"/><path class="cls-11" d="M873.52,1224.75H1995.66a12.06,12.06,0,0,1,12.06,12.06v4.11a12.06,12.06,0,0,1-12.06,12.06h-1123a0,0,0,0,1,0,0v-27.39A.84.84,0,0,1,873.52,1224.75Z"/><g class="cls-12"><path class="cls-13" d="M1416.1,1501.57H918.6v-219.1h497.5Zm-491.79-5.71h486.08V1288.19H924.31Z"/></g><g class="cls-12"><path class="cls-13" d="M1416.1,1745.25H918.6v-219.1h497.5Zm-491.79-5.71h486.08V1531.87H924.31Z"/></g><g class="cls-12"><path class="cls-13" d="M1947.86,1501.57h-497.5v-219.1h497.5Zm-491.79-5.71h486.08V1288.19H1456.07Z"/></g><g class="cls-12"><path class="cls-13" d="M1947.86,1745.25h-497.5v-219.1h497.5Zm-491.79-5.71h486.08V1531.87H1456.07Z"/></g><path class="cls-13" d="M1203.72,1322H1131a6,6,0,0,1-5.93-5.93h0a6,6,0,0,1,5.93-5.93h72.74a6,6,0,0,1,5.93,5.93h0A6,6,0,0,1,1203.72,1322Z"/><path class="cls-13" d="M1203.72,1562H1131a6,6,0,0,1-5.93-5.93h0a6,6,0,0,1,5.93-5.93h72.74a6,6,0,0,1,5.93,5.93h0A6,6,0,0,1,1203.72,1562Z"/><path class="cls-13" d="M1740,1322h-72.74a6,6,0,0,1-5.93-5.93h0a6,6,0,0,1,5.93-5.93H1740a6,6,0,0,1,5.93,5.93h0A6,6,0,0,1,1740,1322Z"/><path class="cls-13" d="M1740,1562h-72.74a6,6,0,0,1-5.93-5.93h0a6,6,0,0,1,5.93-5.93H1740a6,6,0,0,1,5.93,5.93h0A6,6,0,0,1,1740,1562Z"/><rect class="cls-8" x="2026.83" y="435.21" width="493.2" height="1327.42"/><rect class="cls-11" x="2098.31" y="1076.1" width="27.52" height="114.6" rx="12.83" transform="translate(3245.46 -978.67) rotate(90)"/><rect class="cls-14" x="2199.69" y="553.87" width="147.47" height="79.74" rx="14.82"/><rect class="cls-10" x="2026.83" y="1174.68" width="493.2" height="6.2"/><path class="cls-15" d="M1073.71,977.07H934.9a12.57,12.57,0,0,0-12.58,12.57v223a12.57,12.57,0,0,0,12.58,12.57h138.81a12.57,12.57,0,0,0,12.58-12.57v-223A12.57,12.57,0,0,0,1073.71,977.07Zm-40.23,22H975.13a5.84,5.84,0,0,1,0-11.67h58.35a5.84,5.84,0,0,1,0,11.67Z"/><path class="cls-16" d="M1140.1,1032.82H1032.47a9.75,9.75,0,0,0-9.75,9.75v172.89a9.75,9.75,0,0,0,9.75,9.75H1140.1a9.74,9.74,0,0,0,9.75-9.75V1042.57A9.74,9.74,0,0,0,1140.1,1032.82Zm-31.2,17.09h-45.23a4.53,4.53,0,0,1,0-9.05h45.23a4.53,4.53,0,1,1,0,9.05Z"/><rect class="cls-17" x="1160.09" y="975.52" width="221.35" height="24.63"/><path class="cls-17" d="M1363.64,1126.29v-31.43a6.67,6.67,0,0,0-1.59-4.33l-3.63-4.28a22.74,22.74,0,0,0-17.35-8h0a22.78,22.78,0,0,0-17.8,8.57l-3,3.79a6.75,6.75,0,0,0-1.46,4.18v31.54a5.66,5.66,0,0,0,5.66,5.66H1358A5.65,5.65,0,0,0,1363.64,1126.29Zm-31-3.08a2.44,2.44,0,1,1-4.87,0V1096a2.44,2.44,0,0,1,4.87,0Zm11,0a2.44,2.44,0,0,1-4.88,0V1096a2.44,2.44,0,0,1,4.88,0Zm10.95,0a2.44,2.44,0,1,1-4.87,0V1096a2.44,2.44,0,0,1,4.87,0Z"/><rect class="cls-17" x="1337.27" y="985.21" width="6.38" height="97.16"/><path class="cls-17" d="M1287.33,1112.46v-12.52a25,25,0,0,0-3.66-13.28l-.26-.41c-3.24-5.1-8-8-13-8h0c-5.19,0-10.1,3.16-13.34,8.57h0a25.12,25.12,0,0,0-3.36,12.81v12.87c0,10.77,6.54,19.49,14.61,19.49h4.41C1280.78,1132,1287.33,1123.23,1287.33,1112.46Z"/><rect class="cls-17" x="1266.56" y="985.21" width="6.38" height="97.16"/><path class="cls-17" d="M1221.7,1108.12v-12.4a20.45,20.45,0,0,0-4.76-13.15l-.34-.41a22.11,22.11,0,0,0-16.95-8h0a22.1,22.1,0,0,0-17.38,8.48h0a20.47,20.47,0,0,0-4.38,12.68v12.75a19.17,19.17,0,0,0,19,19.3h5.73A19.17,19.17,0,0,0,1221.7,1108.12Z"/><rect class="cls-17" x="1195.85" y="985.21" width="6.38" height="97.16"/><rect class="cls-17" x="1197.78" y="987.84" width="2.53" height="5.78" rx="1"/><rect class="cls-17" x="1268.49" y="987.84" width="2.53" height="5.78" rx="1"/><rect class="cls-17" x="1339.2" y="987.84" width="2.53" height="5.78" rx="1"/><rect class="cls-10" x="361.05" y="851.36" width="511.94" height="920.92"/><rect class="cls-18" x="409.04" y="891.71" width="421.8" height="211.96"/><rect class="cls-19" x="731.35" y="891.79" width="98.56" height="211.57"/><circle class="cls-1" cx="782.36" cy="983.65" r="13.25" transform="translate(-299.97 1622.57) rotate(-82.06)"/><rect class="cls-20" x="746.06" y="903.37" width="72.07" height="33.38"/><rect class="cls-1" x="754.45" y="1019.68" width="13.85" height="13.85"/><rect class="cls-1" x="776.77" y="1019.68" width="13.85" height="13.85"/><rect class="cls-1" x="798.89" y="1019.68" width="13.85" height="13.85"/><rect class="cls-1" x="754.45" y="1042.96" width="13.85" height="13.85"/><rect class="cls-1" x="776.77" y="1042.96" width="13.85" height="13.85"/><rect class="cls-1" x="798.89" y="1042.96" width="13.85" height="13.85"/><rect class="cls-1" x="754.45" y="1066.24" width="13.85" height="13.85"/><rect class="cls-1" x="776.77" y="1066.24" width="13.85" height="13.85"/><rect class="cls-1" x="798.89" y="1066.24" width="13.85" height="13.85"/><path class="cls-19" d="M838,1106.16H402.49V888.83H838Zm-422.38-13.1H824.86V901.93H415.59Z"/><rect class="cls-14" x="409.04" y="1166.2" width="421.8" height="294.63"/><rect class="cls-2" x="386.41" y="1208.33" width="454.63" height="27.02" rx="11.35"/><rect class="cls-19" x="406.92" y="1158.43" width="423.92" height="39.57"/><rect class="cls-18" x="435.89" y="1248.16" width="373.05" height="191.47"/><g class="cls-12"><path class="cls-13" d="M849,1746.17H410.21V1529H849Zm-432.37-6.43H842.59V1535.45H416.65Z"/></g><path class="cls-13" d="M665.09,1565.33h-73a5.84,5.84,0,0,1-5.82-5.82h0a5.84,5.84,0,0,1,5.82-5.83h73a5.84,5.84,0,0,1,5.83,5.83h0A5.84,5.84,0,0,1,665.09,1565.33Z"/><rect class="cls-21" x="201.17" y="1765.68" width="2901.89" height="7.1" rx="3.16"/><path class="cls-20" d="M626.94,1182.37A10.63,10.63,0,1,1,637.57,1193,10.63,10.63,0,0,1,626.94,1182.37Z"/><path class="cls-20" d="M666.22,1182.37A10.63,10.63,0,1,1,676.85,1193,10.63,10.63,0,0,1,666.22,1182.37Z"/><rect class="cls-20" x="722.39" y="1170.98" width="82.73" height="22.77"/><path class="cls-16" d="M760.06,751.51v81c0,9.72-10.55,17.68-23.44,17.68H666.55c-12.89,0-23.44-8-23.44-17.68v-81Z"/><path class="cls-22" d="M680.77,751.63c-.11-.84-11.22-84.08-54.43-125.38L627.5,625c43.66,41.72,54.84,125.54,54.94,126.38Z"/><path class="cls-22" d="M700.74,751.55c-1.8-52.93,12.11-163.64,12.25-164.75l1.68.21c-.14,1.11-14,111.69-12.24,164.48Z"/><path class="cls-22" d="M727,751.6l-1.68-.16c2.38-25.62,18.75-40.55,32.06-48.56a96.13,96.13,0,0,1,28.52-11.34l.3,1.66a94.78,94.78,0,0,0-28,11.15C745.29,712.17,729.36,726.7,727,751.6Z"/><path class="cls-22" d="M632.42,631.3s-3.55-31.54-19.66-32a152.72,152.72,0,0,0-32.06,2.93s11.72,6.26,17.25,13S632.42,631.3,632.42,631.3Z"/><path class="cls-22" d="M642.87,644.5s-20.18-2.91-27.67,3-4.88,23.76-4.88,23.76,9.76-2.6,16.6-7.16,10.09-7.14,13-13.34Z"/><path class="cls-23" d="M681.6,749.29s-27.12-15.27-41-11-20.05,31.14-20.05,31.14,15.34,1.67,27.58-1,18.31-4.61,25.89-11.82Z"/><path class="cls-23" d="M713.83,587.57c.57.46-8.79-16.36-18.8-14.4s-22,11.47-22,11.47,14.16,2,20.38,3.91S710.17,584.64,713.83,587.57Z"/><path class="cls-22" d="M782.6,693.49c0,.66-7.09-17.79-.06-21.22s20.71-1.63,20.71-1.63-6.49,8.7-8.54,13.42S782.49,689.25,782.6,693.49Z"/><path class="cls-23" d="M713.83,587.4s-.16-7.24,8.14-11.14c0,0,1.79,4.72,0,8.13S713.83,587.4,713.83,587.4Z"/><path class="cls-22" d="M741.82,715.86s-7-1.77-8.57-10.82c0,0,5-.46,7.84,2.18S741.82,715.86,741.82,715.86Z"/><path class="cls-23" d="M713.18,593.3s7.32-2.93,12-2.28,9.44,12.7,9.44,12.7-9.76-.17-13-1.47S716.11,593,713.18,593.3Z"/><path class="cls-22" d="M758.55,703.83s6.56-4.39,11.31-4.74,11.88,10.45,11.88,10.45-9.59,1.88-13,1.28S761.35,702.9,758.55,703.83Z"/><path class="cls-22" d="M710.9,611.82s-12.69-9.52-22.79-8.1-19.85,14.44-19.85,14.44,11.39,3.58,17.74,2.6,14.65-5.13,16.84-7.32S710.9,611.82,710.9,611.82Z"/><path class="cls-23" d="M708.91,609.34s2-5.7-1.76-9.37-4.92-4.77-4.92-4.77-1.08,4.25,0,7.68S708.91,609.34,708.91,609.34Z"/><path class="cls-22" d="M708.7,633.4s20.51-10.77,33.94-3.2,17.82,25.39,17.82,25.39S736.78,655.1,729,649s-7.18-14.9-10.67-15.38A69.47,69.47,0,0,0,708.7,633.4Z"/><path class="cls-22" d="M704.74,677.26s6.11-14.14,16.21-15.84,19.84,5.68,19.84,5.68-12.46,9.65-19,9.76-9.94-4.7-12-3.5A46.4,46.4,0,0,0,704.74,677.26Z"/><path class="cls-22" d="M733.25,726.64s27.21-14.29,45-4.25,23.65,33.69,23.65,33.69-31.42-.65-41.79-8.75-9.52-19.76-14.15-20.4A92,92,0,0,0,733.25,726.64Z"/><path class="cls-22" d="M776.57,694.48s20.51-10.77,33.93-3.2,17.83,25.39,17.83,25.39-23.68-.49-31.5-6.59-7.18-14.9-10.67-15.38A69.33,69.33,0,0,0,776.57,694.48Z"/><path class="cls-23" d="M706.9,643.78s-1.92-11-12.14-12.48-20.4,12.48-20.4,12.48,9.52,3.18,14.89,3.18,10.84-8.39,13.48-6.55A32.5,32.5,0,0,1,706.9,643.78Z"/><path class="cls-22" d="M705.36,691s-15.83-18.94-36.89-10.39-25.11,46.25-25.11,46.25,21.65-4.43,31.88-10.35,11.39-27.92,18.45-27.33A72.56,72.56,0,0,1,705.36,691Z"/><path class="cls-23" d="M734.68,727.16s1.67-11.91-6.56-15.88-21,8-21,8,7.1,5.61,11.65,6.92,11.66-6,13.35-3.5A31.11,31.11,0,0,1,734.68,727.16Z"/><rect class="cls-24" x="1601.33" y="1209.94" width="376.85" height="14.8"/><path class="cls-25" d="M1676.13,710.16s-4.3-41.63-50-32.63c0,0,14.58,1,23.21,7.13,0,0-32.5-11.37-59,21.15s-.93,89.79-8.1,104.2-81.88,18.75-50.31,90.9c16.63,38,162.8,45.43,162,80.36,0,0,31.9-74.84-6.13-98.64,0,0,18.55,11.66,23.59,28.87,0,0-2.49-35-26.41-41.71-21.17-5.89-43.92-38.19-43.49-44.85S1676.13,710.16,1676.13,710.16Z"/><path class="cls-26" d="M1850.23,1190.69l0,0-23.72,9.73s-67-38.83-98-66.88c-1.34-1.19-2.6-2.38-3.8-3.54-12.87-12.51-81.16-139-96.43-177.75s45.29-44,45.29-44c25.77,2.29,80.62,168.91,97.83,187.09,1.44,1.53,3.4,3.85,5.74,6.79,13.24,16.6,39,52.82,55.71,75C1841.35,1188.46,1850.23,1190.69,1850.23,1190.69Z"/><path class="cls-26" d="M1911.71,1222.25c-2.57,3.62-33.84-2.27-48.72-4.62a65,65,0,0,0-7.15-.91c-3.53,0-9.3,3.23-14.07,4.89h0c-3.23,1.11-6,1.51-7.29-.34a19.73,19.73,0,0,1-1.7-3.11c-1.07-2.32-2.19-5.29-3.18-8.13v0c-1.74-5-3.08-9.55-3.08-9.55l16.81-10.14s2.82.08,6.91.41c9.24.7,25,2.65,29.75,7.69C1886.78,1205.69,1913.6,1219.58,1911.71,1222.25Z"/><path class="cls-26" d="M1865.79,1221.64c-1.36.78-7.55-.39-22,0-.7,0-1.35,0-2,0h0c-4.44-.22-7.23-1.66-9-3.45-3.1-3.17-3-7.45-3.18-8.13v0h21.13s7.16,6,10.64,7a8.32,8.32,0,0,1,1.65.64C1865.5,1218.87,1866.91,1221,1865.79,1221.64Z"/><path class="cls-26" d="M1648.32,1117.65a10,10,0,0,1-4,3c-4.84,1.94-16.66,1.25-16.66,1.25h0c.13-.27,2.29-4.51,8.49-7.56,6.42-3.16,14.84-6.47,15.08-4C1651.4,1111.93,1650.42,1115.12,1648.32,1117.65Z"/><path class="cls-27" d="M1603.08,1733.71l-19.16,7.14s-83.24-115.44-93.48-217c-1.84-18.13-1.22-35.7,2.73-51.92,0,0-.81-4.65-2.23-12.86-.66-3.84-1.47-8.45-2.4-13.74-2.7-15.51-6.43-36.72-10.68-60.88-9.8-55.59-22.49-126.65-32.34-178.89l5.16-1.66,55.87-18,11.55-36.68,41.6-11s9.29,18.18,17.6,104.06c1.53,11.27,2.93,23.69,4,37.16a735.28,735.28,0,0,1-4,150.43q-2.86,22.39-7.31,46.17c-2.19,11.61-2.52,27.43-1.6,45.59C1572.61,1604.67,1603.08,1733.71,1603.08,1733.71Z"/><path class="cls-20" d="M1552.07,1140.4l-12.63,2.95c-35,9.3-128.65-26-128.65-26s-33.94,29.84-29.48,101.36c2.17,34.9,6.15,183.24,10.29,227.13,1.5,15.91,2.82,27.23,3.36,31.75a.08.08,0,0,1,0,0,6.31,6.31,0,0,1-1,3.89,206.46,206.46,0,0,0-15.32,32.21c-40.73,108.54,6.27,242.2,6.27,242.2l12.2-4.91s26.75-148.75,48.48-214.47c3.69-11.15,7.23-19.9,10.47-25.14,9.45-15.25,18.22-40.17,26.18-69.81,15-56,27.15-128.93,35.21-185.2C1518.55,1256.45,1552.07,1140.4,1552.07,1140.4Z"/><path class="cls-27" d="M1455.82,1765.89H1359.3S1357,1751.18,1362,1740c4.83-10.71,12.39-15.58,10.58-28.54,6.13,6.32,16.13,13.39,30.08,11.51,1.71,2.77,11,17.61,16.75,21.71C1425.75,1749.23,1453.87,1747.62,1455.82,1765.89Z"/><path class="cls-27" d="M1663.06,1765.89h-96.52s-3.61-15.4,2.73-25.87c5.61-9.27,3.46-14.55-.7-22.22a37.45,37.45,0,0,0,16.26,3.06c4.81-.28,9.89-2.46,14.35-5,4.15,4.74,21.94,24.9,27.5,28.89C1633,1749.23,1661.12,1747.62,1663.06,1765.89Z"/><path class="cls-25" d="M1654,698c.13-2.61-49.24,35.39-51.41,39-20.07,33.53-5.43,69.24,9.33,66.71,9.46-1.63,10.72,14.39,10.72,14.39l96.2-65S1691.65,681.88,1654,698Z"/><path class="cls-28" d="M1654.28,885.79s25.68,17.63,38.79,40.69c0,0-9.86,49.44-56.39,71.52C1636.68,998,1642.27,889.35,1654.28,885.79Z"/><path class="cls-26" d="M1628.6,950.71c-60.32-1.88-45.85-85.82-42.22-85.06,7.67-3.2,28.91-25.12,39.22-55.64l2.48,1.42,41.57,24.11s-5.81,13.7-10.38,26.89c-3.56,10.33-6.34,20.37-5,23.36C1657.57,887.47,1644.69,951.22,1628.6,950.71Z"/><path class="cls-29" d="M1669.65,835.54s-5.82,13.69-10.37,26.9c-24.72-9.25-30.11-36.53-31.2-51Z"/><path class="cls-26" d="M1673.7,850.92s-59.38-19.25-46.82-56,13.34-64,51.78-53.32,41,27.27,39.78,40.57S1689.47,855,1673.7,850.92Z"/><path class="cls-25" d="M1723.68,761.08c-5.34-14.19-13.06-14.13-18.07-12.12-26.19-28.8-56-9.68-56-9.68-13,25-37.19,33.63-37.19,33.63s8.48,10.34,35.48,12.45c8.24.65,16.85-2.42,24.84-7a145.26,145.26,0,0,1-33.62,20.84c34.33-3.55,60.34-40.69,63-44.64,2.49,4.47,7.19,13.93,7,21.56-.27,10.38-5.55,30.11.3,31.38C1709.47,807.51,1731.69,782.35,1723.68,761.08Z"/><path class="cls-15" d="M1650.71,1029.77c-18.57,17.53-42,29.78-52.67,40-25.86,24.62-168.24-19.3-143.07-61.2l.17-.25c2.8-4.67,5.62-9.2,8.44-13.63l.22-.34a526.53,526.53,0,0,1,60.5-78.07l0,0A423.6,423.6,0,0,1,1555,886.75c1.46-1.28,2.91-2.51,4.32-3.7,26.37-22.18,33.49-21.82,33.49-21.82s35.43,25.85,51.81,33.44c11.15,5.16,9.66-8.59,9.66-8.88.23.89,10.24,36.36,12,75.48C1667.6,989.09,1664.6,1016.64,1650.71,1029.77Z"/><path class="cls-16" d="M1820.53,1226.84s-8.12-11,47.43-13.88c9.88-.5,16.78,5,31.11,7.29s21.45,2.83,21.45,6.59Z"/><path class="cls-15" d="M1650.71,1029.77c-18.57,17.53-42,29.78-52.67,40-25.86,24.62-37.93,71.82-37.93,71.82-151.59,73.16-176.39,23.32-176.39,23.32,19.81-63.84,46.08-114.44,71.25-156.34l.17-.25,8.66-14s81,33.59,135.92,9.37,33.57-40,41.71-42a68.73,68.73,0,0,1,24.89-.41C1667.6,989.09,1664.6,1016.64,1650.71,1029.77Z"/><path class="cls-16" d="M1635.53,977.59,1623,972.47s15.33-63.39-19.09-82c-34-18.32-78.45,24.6-79.59,25.72A423.6,423.6,0,0,1,1555,886.75c21.43-9.75,35-9,35-9C1655.45,880.24,1635.53,977.59,1635.53,977.59Z"/><path class="cls-16" d="M1623,969.81s25.81,16.7,47.06,15.18c0,0-3.79,41.75-44,79.7s-46.3,104-46.3,113.09,14.8,212.53,14.8,212.53-49,39.85-134.35,8c0,0-33-230-26.18-259.59s43.26-59.2,43.26-59.2,64.9-14.8,99-45.54S1623,969.81,1623,969.81Z"/><path class="cls-26" d="M1628.21,1141.3c-60.74-4.6-105-12.59-132-21.65-16.79-5.63-26.89-11.7-30-17.63-8.23-15.46,83.9-190.79,83.9-190.79,42.08-28,50.35,51.68,47.43,65.31s-66.26,90.47-70.35,94.51c-1,1,4.74,4.7,14,9.64,27.7,14.89,86.53,41.23,86.53,41.23Z"/><path class="cls-15" d="M1551.45,909.06c-10.9,11.06-24.9,28.8-36.9,55.27,0,0,31.42,35.11,88.84,18.22,0,0,13.72-38.28,1.31-64.8C1595.05,897.13,1567.43,892.84,1551.45,909.06Z"/><path class="cls-23" d="M1641.18,1138.37l-.27,82a6.94,6.94,0,0,0,6.91,7l31.92.1a6.94,6.94,0,0,0,7-6.91l.08-27.5a35.26,35.26,0,0,0-9.17-23.84l-11.33-12.48a39.65,39.65,0,0,1-10.28-25.25l-.89-14.79a6.65,6.65,0,0,0-6.91-6.33h0a7.26,7.26,0,0,0-7,7.28Z"/><path class="cls-23" d="M1643.76,1095.25l32.15.11a4.84,4.84,0,0,1,4.84,4.86h0a4.88,4.88,0,0,1-3.62,4.68c-5,1.32-13.8,4.28-17,9.41a4.87,4.87,0,0,1-4.15,2.33l-16.42-.05a4.82,4.82,0,0,1-4.77-4.53,25.93,25.93,0,0,0-.7-4.27A10,10,0,0,1,1643.76,1095.25Z"/><path class="cls-23" d="M1670.19,1129.27a1.36,1.36,0,0,1-.58-.13c-12.3-5.27-15.94-17.87-16.09-18.41a1.5,1.5,0,1,1,2.9-.8c.06.19,3.46,11.77,14.37,16.45a1.51,1.51,0,0,1-.6,2.89Z"/><rect class="cls-16" x="1640.99" y="1183.57" width="45.8" height="24.07" transform="translate(3.91 -5.42) rotate(0.19)"/><path class="cls-26" d="M1666.59,1140.26c-5.8,8.12-38.38,1-38.38,1l-.54-19.38h0c.42-.09,10.33-2.42,20.64-4.26,10.85-1.94,22.17-3.33,23.39-1C1674.11,1121.23,1672.39,1132.14,1666.59,1140.26Z"/><path class="cls-30" d="M1911.71,1222.25c-2.57,3.62-33.84-2.27-48.72-4.62,2.51,1.24,3.92,3.35,2.8,4-1.36.78-7.55-.39-22,0-.7,0-1.35,0-2,0h0c-3.23,1.11-6,1.51-7.29-.34a19.73,19.73,0,0,1-1.7-3.11c-3.1-3.17-3-7.45-3.18-8.13v0c-1.74-5-3.08-9.55-3.08-9.55s-67-38.83-98-66.88c13.63-5,34.12-14.63,48.63-31.38,13.24,16.6,39,52.82,55.71,75,8.54,11.31,17.42,13.54,17.42,13.54l0,0c9.24.7,25,2.65,29.75,7.69C1886.78,1205.69,1913.6,1219.58,1911.71,1222.25Z"/><path class="cls-30" d="M1666.59,1140.26c-5.8,8.12-38.38,1-38.38,1-60.74-4.6-105-12.59-132-21.65,30-8.86,40.71-27.54,44.92-39,27.7,14.89,86.53,41.23,86.53,41.23h0c.13-.27,2.29-4.51,8.49-7.56,6.42-3.16,14.84-6.47,15.08-4,.15,1.62-.83,4.81-2.93,7.34,10.85-1.94,22.17-3.33,23.39-1C1674.11,1121.23,1672.39,1132.14,1666.59,1140.26Z"/><path class="cls-16" d="M1453.74,1112.5s-34.15-15.93-38-31.87c0,0-6.07,12.9-5.31,15.94,0,0,12.9,19,30.74,25.8S1453.74,1112.5,1453.74,1112.5Z"/><path class="cls-2" d="M1669.3,827.87s-.38,5.69,1,6.74,10.34,5,11.77,4.55,3.89-2.94,5.22-3.13A139.82,139.82,0,0,0,1669.3,827.87Z"/><path class="cls-1" d="M1062.84,1174.51a42,42,0,0,1-.49,5.86c-.14,1.09-.33,2.15-.52,3.2a43.94,43.94,0,0,1-24.72,31l6.24,10.8H979.73l6.22-10.8a44,44,0,0,1-25.51-36.37,27.38,27.38,0,0,1-.19-2.77,47.19,47.19,0,0,1,0-5.58,10.94,10.94,0,0,1,.06-1.12c0-.55.08-1.1.13-1.62a46.09,46.09,0,0,1,8.24-22.46h85.72a46.85,46.85,0,0,1,8.36,24.08c.06.93.12,1.86.12,2.77S1062.9,1173.5,1062.84,1174.51Z"/><path class="cls-16" d="M1062.87,1171.44c0,1,0,2.06,0,3.07-2.35,1-4.92,1.5-6.4.19a11.67,11.67,0,0,1-1.37-1.56c-1.2-1.53-2.41-3-6.79-2.87-3.23.11-4.9,2.24-6.51,4.32-1.32,1.7-2.58,3.31-4.6,3.45-2.19.14-3.75-1.18-5.28-2.46s-3.1-2.6-5.42-2.8c-2.63-.24-4.66,1-6.79,2.41a16.14,16.14,0,0,1-5.39,2.55c-4.66.93-8.68-.36-13.88-4.46-2.77-2.19-4.52-1.15-7.91,1.23-1,.71-2,1.42-3.15,2.08a13.87,13.87,0,0,1-6.84,1.89,11.72,11.72,0,0,1-9.8-5.29c-2.11-3-8.19-3.53-12.46-3.39,0-.36,0-.74.06-1.12,0-.55.08-1.1.13-1.62,4.47-.11,11.58.41,14.51,4.55,3.75,5.28,9.36,4.7,13,2.6,1.07-.6,2-1.29,3-1.92,3.28-2.33,6.68-4.71,11.16-1.18s7.83,4.74,11.64,4a13.75,13.75,0,0,0,4.49-2.17c2.3-1.47,4.92-3.17,8.45-2.84,3.21.27,5.31,2,7,3.42,1.4,1.17,2.28,1.91,3.32,1.83.79,0,1.67-1.15,2.65-2.41,1.7-2.19,4-5.2,8.57-5.36,5.83-.19,7.66,2.19,9,3.94a8.71,8.71,0,0,0,1,1.2C1058.66,1173,1060.6,1172.54,1062.87,1171.44Z"/><path class="cls-16" d="M1062.35,1180.37c-.14,1.09-.33,2.16-.52,3.2-2,.71-4.13,1-5.39-.19a8.72,8.72,0,0,1-1.51-1.89c-1.28-1.89-2.41-3.51-6.37-2.57-1.07.24-2.82,1.86-4.36,3.28-2.32,2.13-4.71,4.35-7.06,4.52-2.16.13-3.72-1.18-5.25-2.47s-3.1-2.6-5.42-2.79c-2.69-.25-4.66,1-6.79,2.41a16.34,16.34,0,0,1-5.39,2.55,21.47,21.47,0,0,1-4.41.46,17,17,0,0,1-10.79-3.78c-3.2-2.54-4.43-1.64-6.89.19-.5.36-1,.74-1.54,1.1a12.13,12.13,0,0,1-15.22-1.42c-4.57-4.93-11.11-5.2-15-4.82-.11-.9-.16-1.81-.19-2.77,4.44-.43,11.83-.08,17.22,5.7a9.25,9.25,0,0,0,11.69,1c.49-.33,1-.66,1.39-1,2.52-1.89,5.4-4,10.24-.17,3.72,3,7.86,3.83,13,2.79a13.52,13.52,0,0,0,4.49-2.16c2.3-1.48,4.9-3.15,8.45-2.85,3.21.28,5.31,2,7,3.42,1.4,1.18,2.28,1.89,3.32,1.84,1.36-.08,3.58-2.14,5.36-3.78,2-1.83,3.83-3.53,5.58-3.94,5.81-1.37,7.89,1.67,9.26,3.7a9.77,9.77,0,0,0,1.09,1.39C1058.63,1181.68,1060.33,1181.3,1062.35,1180.37Z"/><path class="cls-16" d="M981.36,1166.62a2.11,2.11,0,1,1,2.11,2.11A2.12,2.12,0,0,1,981.36,1166.62Z"/><path class="cls-16" d="M993.16,1187.44a2.11,2.11,0,1,1,2.11,2.11A2.11,2.11,0,0,1,993.16,1187.44Z"/><path class="cls-16" d="M1022.88,1187.44a2.11,2.11,0,1,1,2.1,2.11A2.1,2.1,0,0,1,1022.88,1187.44Z"/><path class="cls-16" d="M1047.51,1185.35a2.11,2.11,0,1,1,2.11,2.11A2.11,2.11,0,0,1,1047.51,1185.35Z"/><path class="cls-16" d="M970.43,1185.35a2.11,2.11,0,1,1,2.11,2.11A2.11,2.11,0,0,1,970.43,1185.35Z"/><path class="cls-16" d="M1009.42,1168a2.11,2.11,0,1,1,2.11,2.11A2.12,2.12,0,0,1,1009.42,1168Z"/><path class="cls-16" d="M1034.45,1168a2.11,2.11,0,1,1,2.11,2.11A2.12,2.12,0,0,1,1034.45,1168Z"/><path class="cls-16" d="M1055.84,1163.77a2.11,2.11,0,1,1,2.11,2.11A2.11,2.11,0,0,1,1055.84,1163.77Z"/><path class="cls-16" d="M965.68,1163.77a2.11,2.11,0,1,1,2.11,2.11A2.11,2.11,0,0,1,965.68,1163.77Z"/><path class="cls-2" d="M986,1214.53s22.18,7.3,51.16,0c0,0-9.08,7.49-27.69,7.52C993.16,1222.09,986,1214.53,986,1214.53Z"/><path class="cls-26" d="M2643.14,1274.22s8,52.37-15.94,76.28-42.13,39.85-42.13,39.85l6.83,12.52s46.68-12.52,58.07-25,19.35-95.63,19.35-95.63Z"/><path class="cls-31" d="M2786.7,1576.18c2.72,5.94,5.23,15.52,7.5,27,9,45.57,14.59,132.41,14.59,132.41l-22.77,6.55c-2.45-12.9-21.73-66.2-45.24-116.6-35.48-76-78.3-162.57-78.3-162.57s35.33-56.26,67.65-54.64S2773.19,1546.63,2786.7,1576.18Z"/><path class="cls-25" d="M2682.52,1099.43a34.22,34.22,0,0,0-26.32,0c-13.91,6-24,31.3-17.81,55s-14.81,24.07-5.07,43c3.46,6.74,49.2,12.46,50.76-13.76,1-16.24-13.73-17-9.45-34.69S2682.52,1099.43,2682.52,1099.43Z"/><path class="cls-26" d="M2728.47,1582.93c1.38,8,1,21.3-.33,36.86-4,47-16.77,114.13-16.77,114.13l-23.26,5.38c.89-12.85-6.71-61.2-16.3-115.29-14.91-84.13-34.61-182.18-34.61-182.18s48.51-45.41,79.35-35.59S2723,1550.92,2728.47,1582.93Z"/><path class="cls-32" d="M2783.81,1733.88s-5.59,10.27-16.24,12.65c-6.7,1.5-12.44,5-16,10a6.26,6.26,0,0,0,5.09,9.94l54.12-.31a7.77,7.77,0,0,0,7.69-8.6c-.42-4-.87-8.68-1.07-12.26-.45-7.81-8.91-14.83-8.91-14.83s-7.43,4.26-10.3,4.76C2792,1736.28,2783.81,1733.88,2783.81,1733.88Z"/><path class="cls-25" d="M2652.71,1106.63c.39-.63,16.21-25.65,45.79-30.64,24-4,46.39,12.88,50.08,36.9s-.07,55.42-39.46,66.69Z"/><path class="cls-26" d="M2660,1214.2l44.56,26.47,11.27-31.38s-5.17-11.43-6.67-29.71a121.22,121.22,0,0,1,.72-26.37L2671.07,1170a70.14,70.14,0,0,1,.95,8.69,62.61,62.61,0,0,1-1.92,20C2668.35,1204.77,2665.26,1210.41,2660,1214.2Z"/><path class="cls-31" d="M2670.11,1198.77c21.38.79,39-19.19,39-19.19l-37.08-.85A62.92,62.92,0,0,1,2670.11,1198.77Z"/><path class="cls-26" d="M2660.51,1186.22s41.86,14,58.7-19c18.17-35.52,2.48-63.25-11.86-66-28.6-5.42-46,4.51-51.85,15.81S2637.41,1178.74,2660.51,1186.22Z"/><path class="cls-1" d="M2678.6,1168.24s-2.06,4.27-13.13,1.1c0,0-9.3-2.67-7.91-7.57C2657.56,1161.77,2667.48,1160.26,2678.6,1168.24Z"/><path class="cls-16" d="M2788.19,1548.28c-11.3,12.34-98.84,42.14-150.23,28.36-9.21-2.46-13.38-281.21-8.38-335.43a33.85,33.85,0,0,1,26.91-30.08q3.71-.77,8.05-1.5c-10.05,19.47,43.46,5.53,50.45-1.68,12.14,1.69,19.73,3.17,25.87,10.67,15.37,18.79,31.77,222.64,39.1,269.88C2785.11,1521.74,2788.76,1547.65,2788.19,1548.28Z"/><path class="cls-25" d="M2689.84,1105.2s-4,39.26,33.28,53.18c14.82,5.53,22.53-54.44-8.42-66.42s-61.48,2.25-65.12,23.18-.87,25.3-.87,25.3S2663.19,1100.61,2689.84,1105.2Z"/><path class="cls-25" d="M2736.07,1099.77a30.7,30.7,0,0,1,26.32,0c13.92,6.7,24.05,35.23,17.82,61.89s14.81,27.1,5.06,48.48c-3.45,7.58-49.2,14-50.76-15.5-1-18.29,13.74-19.19,9.45-39.07S2736.07,1099.77,2736.07,1099.77Z"/><path class="cls-25" d="M2687.45,1733.88s-5.59,10.27-16.24,12.65a26.68,26.68,0,0,0-16,10,6.26,6.26,0,0,0,5.09,9.94l54.12-.31a7.77,7.77,0,0,0,7.69-8.6c-.42-4-.87-8.68-1.08-12.26-.44-7.81-8.91-14.83-8.91-14.83s-7.43,4.26-10.29,4.76C2695.61,1736.28,2687.45,1733.88,2687.45,1733.88Z"/><path class="cls-26" d="M2547.88,1268.15s7-19,3.6-24.1-19.92-21.07-23.34-15.94,7.4,54.46,13.67,53.7S2547.88,1268.15,2547.88,1268.15Z"/><path class="cls-33" d="M2528.14,1228.11s-7.59-2.47-8,9.68-3,110.43,3.42,104.74,10.63-29.22,9.87-40.61,4.55-17.84,5.31-25S2531.94,1228.68,2528.14,1228.11Z"/><path class="cls-15" d="M2595.86,1385.61l.27,82a6.94,6.94,0,0,1-6.92,7l-31.92.1a6.93,6.93,0,0,1-7-6.91l-.09-27.5a35.26,35.26,0,0,1,9.17-23.84l11.33-12.48a39.57,39.57,0,0,0,10.28-25.25l.9-14.79a6.63,6.63,0,0,1,6.91-6.33h0a7.26,7.26,0,0,1,7,7.28Z"/><path class="cls-15" d="M2593.27,1342.49l-32.15.11a4.84,4.84,0,0,0-4.83,4.86h0a4.84,4.84,0,0,0,3.62,4.68c5,1.32,13.79,4.29,17,9.41a4.89,4.89,0,0,0,4.16,2.33l16.41-.05a4.83,4.83,0,0,0,4.78-4.52,24.85,24.85,0,0,1,.7-4.28A10,10,0,0,0,2593.27,1342.49Z"/><path class="cls-15" d="M2566.84,1376.51a1.37,1.37,0,0,0,.59-.13c12.3-5.27,15.93-17.87,16.08-18.4a1.51,1.51,0,1,0-2.9-.81c-.06.2-3.46,11.77-14.37,16.45a1.51,1.51,0,0,0,.6,2.89Z"/><rect class="cls-16" x="2550.25" y="1430.81" width="45.8" height="24.07" transform="translate(5151.02 2877.23) rotate(179.81)"/><path class="cls-34" d="M2581,1378.67s-11.6,8.83-9.9,14.53,10,13.09,13.38,8.25S2589.5,1377.8,2581,1378.67Z"/><path class="cls-35" d="M2635.17,1319.19l1.69.16c9.77.8,53.08.05,75.16-15.53l-14.52-13.38Z"/><path class="cls-26" d="M2720.56,1225.26s-67.18,58.64-87.67,58.07c-24.2-.68-85-15.18-85-15.18l-6.07,13.66s61.29,39.28,84.82,38.52,83.68-14.23,94.31-39.28S2720.56,1225.26,2720.56,1225.26Z"/><path class="cls-16" d="M2717.14,1218.43l-50.66,41s8,32.69,43.36,48.16c1.08.47,4.17,2.22,3.32,1.36C2712.59,1308.37,2779.76,1234.08,2717.14,1218.43Z"/><polygon class="cls-16" points="2440.33 1759.02 2283.81 1759.02 2272.56 1551.83 2454.67 1551.83 2440.33 1759.02"/><path class="cls-35" d="M2459.93,1558.34H2267.3a12,12,0,0,1,12-12H2448a12,12,0,0,1,12,12Z"/><rect class="cls-35" x="2283.76" y="1759.02" width="156.58" height="6.76"/><path class="cls-25" d="M2362.05,1638.67a68,68,0,0,1-67.89-67.88,4.32,4.32,0,0,1,8.63,0,59.26,59.26,0,1,0,118.52,0,4.31,4.31,0,0,1,8.62,0A68,68,0,0,1,2362.05,1638.67Z"/><path class="cls-30" d="M2316.92,1546.36s-9.82,20.36-5.51,22,11-10.06,12.46-10.06-7.43,20.6,0,23.72,24.44-17,29.71-35.7Z"/><path class="cls-11" d="M2245.19,1675.93l.27,82a7,7,0,0,1-6.92,7l-31.92.1a6.94,6.94,0,0,1-7-6.91l-.09-27.5a35.28,35.28,0,0,1,9.17-23.85l11.33-12.47a39.62,39.62,0,0,0,10.28-25.26l.9-14.78a6.63,6.63,0,0,1,6.91-6.33h0a7.25,7.25,0,0,1,7,7.28Z"/><path class="cls-11" d="M2242.6,1632.82l-32.15.1a4.85,4.85,0,0,0-4.83,4.87h0a4.83,4.83,0,0,0,3.62,4.67c5,1.33,13.8,4.29,17,9.42a4.89,4.89,0,0,0,4.16,2.33l16.41,0a4.84,4.84,0,0,0,4.78-4.53,24.91,24.91,0,0,1,.7-4.27A10,10,0,0,0,2242.6,1632.82Z"/><path class="cls-11" d="M2216.17,1666.83a1.52,1.52,0,0,0,.59-.12c12.3-5.28,15.93-17.88,16.08-18.41a1.51,1.51,0,0,0-2.9-.81c-.05.2-3.46,11.78-14.37,16.46a1.5,1.5,0,0,0,.6,2.88Z"/><rect class="cls-16" x="2199.58" y="1721.14" width="45.8" height="24.07" transform="translate(4450.64 3459.03) rotate(179.81)"/><path class="cls-35" d="M2639.77,1237.55s-12.15,25.42-11.77,41l1.05-26.1S2636.83,1239.45,2639.77,1237.55Z"/><path class="cls-25" d="M1879.18,723.17a4.56,4.56,0,1,1,4.55,4.55A4.56,4.56,0,0,1,1879.18,723.17Z"/><path class="cls-25" d="M1900.53,723.17a4.56,4.56,0,1,1,4.55,4.55A4.56,4.56,0,0,1,1900.53,723.17Z"/><path class="cls-25" d="M1921.88,723.17a4.55,4.55,0,1,1,4.55,4.55A4.55,4.55,0,0,1,1921.88,723.17Z"/></svg>