<svg id="Layer_1" data-name="Layer 1" xmlns="http://www.w3.org/2000/svg" xmlns:xlink="http://www.w3.org/1999/xlink" viewBox="0 0 5827.96 1710.75"><defs><style>.cls-1{fill:url(#linear-gradient);}.cls-2{fill:url(#linear-gradient-2);}.cls-3{fill:url(#linear-gradient-3);}.cls-4{fill:url(#linear-gradient-4);}.cls-5{fill:url(#linear-gradient-5);}.cls-6{fill:url(#linear-gradient-6);}.cls-7{fill:url(#linear-gradient-7);}.cls-8{fill:url(#linear-gradient-8);}.cls-9{fill:url(#linear-gradient-9);}.cls-10{fill:#956bda;}.cls-11{font-size:1100.29px;fill:#3f51b5;font-family:AvenirNextCondensed-Medium, Avenir Next Condensed;font-weight:500;letter-spacing:0.05em;}.cls-12{letter-spacing:0.04em;}.cls-13{letter-spacing:0.05em;}</style><linearGradient id="linear-gradient" x1="703.39" y1="844.51" x2="708.33" y2="844.51" gradientUnits="userSpaceOnUse"><stop offset="0" stop-color="#e4ffd6"/><stop offset="0.24" stop-color="#e4ffd6"/><stop offset="1" stop-color="#72f6ff"/></linearGradient><linearGradient id="linear-gradient-2" x1="241.22" y1="12.49" x2="1076.29" y2="12.49" xlink:href="#linear-gradient"/><linearGradient id="linear-gradient-3" x1="214.88" y1="92.15" x2="222.12" y2="92.15" gradientTransform="matrix(-109.33, 101.55, 101.55, 109.33, 15403.37, -31846.52)" gradientUnits="userSpaceOnUse"><stop offset="0" stop-color="#ddffb0"/><stop offset="0.13" stop-color="#ddffb0"/><stop offset="1" stop-color="#ec8bff"/></linearGradient><linearGradient id="linear-gradient-4" x1="1124.18" y1="-85.25" x2="548.85" y2="783.16" gradientUnits="userSpaceOnUse"><stop offset="0" stop-color="#a9fc9c"/><stop offset="0.48" stop-color="#9ecbbe"/><stop offset="1" stop-color="#9288ef"/></linearGradient><linearGradient id="linear-gradient-5" x1="216.68" y1="86.46" x2="223.92" y2="86.46" gradientTransform="matrix(68.02, 65.78, 65.78, -68.02, -20336.73, -7805.32)" gradientUnits="userSpaceOnUse"><stop offset="0" stop-color="#ffed6e"/><stop offset="0.04" stop-color="#ffed6e"/><stop offset="0.84" stop-color="#ec8bff"/><stop offset="1" stop-color="#ec8bff"/></linearGradient><linearGradient id="linear-gradient-6" x1="281.6" y1="694.5" x2="703.56" y2="694.5" gradientTransform="matrix(1, 0, 0, 1, 0, 0)" xlink:href="#linear-gradient-3"/><linearGradient id="linear-gradient-7" x1="215.04" y1="97.15" x2="222.28" y2="97.15" gradientTransform="matrix(-87.83, 13.14, 13.14, 87.83, 18719.89, -10399.99)" gradientUnits="userSpaceOnUse"><stop offset="0" stop-color="#f7d7e1"/><stop offset="0.13" stop-color="#f7d7e1"/><stop offset="0.64" stop-color="#bfb3b0"/><stop offset="1" stop-color="#bfb3b0"/></linearGradient><linearGradient id="linear-gradient-8" x1="226.01" y1="87.26" x2="233.25" y2="87.26" gradientTransform="matrix(56.57, 0, 0, -56.57, -11711.53, 5573.03)" xlink:href="#linear-gradient-7"/><linearGradient id="linear-gradient-9" x1="229.37" y1="88.32" x2="236.6" y2="88.32" gradientTransform="matrix(46.46, 12.04, 12.04, -46.46, -10586.87, 2022.35)" xlink:href="#linear-gradient-7"/></defs><title>logo</title><path class="cls-1" d="M703.56,843.71c0,.48-.11,1-.17,1.44,1.41.06,2.81.12,4.23.15-1.36-.52-2.7-1-4.06-1.59" transform="translate(39.39 532.2)"/><path class="cls-2" d="M728.08-532.2S243.68-98.47,241.23,361.16a480.55,480.55,0,0,0,40.37,196c40.42-8.75,80.25-13.33,119-13.33q21,0,41.54,1.81C411.34,433,420.51,306.07,477.09,188.94c101.63-210.43,303-366.13,479.73-469.45C891.15-367.68,814.18-452.15,728.08-532.2" transform="translate(39.39 532.2)"/><path class="cls-3" d="M1288.33-435.74S1135.16-384.8,956.82-280.51c156.7,208,249,431.48,247.4,647.42-2,265-216.87,478.63-481.46,478.63h-2.89c-4.09,0-8.19-.09-12.25-.23a430.44,430.44,0,0,0,155.79,29c176.93,0,351.54-106.53,438.76-286.25,136.7-281.59,117.55-654.59-13.84-1023.78" transform="translate(39.39 532.2)"/><path class="cls-4" d="M956.82-280.51c-176.7,103.32-378.1,259-479.73,469.45C420.51,306.07,411.34,433,442.17,545.66a428,428,0,0,1,56.74,8.83c133.54,30.2,220.64,156.21,204.65,289.22,1.36.54,2.7,1.07,4.06,1.59,4.06.14,8.16.21,12.25.23h2.89c264.59,0,479.5-213.67,481.46-478.63,1.6-215.94-90.7-439.4-247.4-647.42" transform="translate(39.39 532.2)"/><path class="cls-5" d="M281.6,557.18c-106.07,23-216.07,74.59-321,147.44,0,0,176,310.76,422.32,366a265.62,265.62,0,0,0,58.16,6.47c121.05,0,230.24-83.52,257.86-206.56q2.85-12.69,4.44-25.35c-189.12-7.51-349.84-123.92-421.79-288" transform="translate(39.39 532.2)"/><path class="cls-6" d="M400.63,543.85c-38.78,0-78.61,4.58-119,13.33,71.95,164.05,232.67,280.46,421.79,288,.06-.47.12-1,.17-1.44-9.44-3.77-18.84-7.9-28.13-12.39-118.75-57.45-199.7-163.07-233.26-285.66q-20.54-1.81-41.54-1.81" transform="translate(39.39 532.2)"/><path class="cls-7" d="M1033.94,903.48c-79,4.44-161.93,23.78-243.09,59.54s-151.41,83.9-208,139.2c79-4.46,161.93-23.8,243.1-59.55s151.4-83.91,208-139.19" transform="translate(39.39 532.2)"/><path class="cls-8" d="M1074.4,888.71s306.15-129.66,379.14-492.37c2.61-12.93,20.51-14.55,25.15-2.2,5.4,14.43,6.8,30.24,2.74,45.1C1460.92,514.39,1373.87,754.41,1074.4,888.71Z" transform="translate(39.39 532.2)"/><path class="cls-9" d="M1086,888.71S1365.07,847.39,1502.25,565c4.89-10.07,19.94-7.59,21.12,3.55,1.37,13-.85,26.28-7.35,37.63C1483.19,663.55,1360.56,842.16,1086,888.71Z" transform="translate(39.39 532.2)"/><path class="cls-10" d="M498.91,554.49a428,428,0,0,0-56.74-8.83c33.56,122.59,114.51,228.21,233.26,285.66,9.29,4.49,18.69,8.62,28.13,12.39C719.55,710.7,632.45,584.69,498.91,554.49Z" transform="translate(39.39 532.2)"/><text class="cls-11" transform="translate(1673.31 1435.68)">Bu<tspan class="cls-12" x="1191.6" y="0">t</tspan><tspan class="cls-13" x="1523.89" y="0">terPly</tspan></text></svg>