<svg id="_лой_1" data-name="‘лой_1" xmlns="http://www.w3.org/2000/svg" viewBox="0 0 3200 2000"><defs><style>.cls-1{fill:#fff;}.cls-2{fill:#ebf2f8;}.cls-3{fill:#b5d3fa;}.cls-4{fill:#9cbfee;}.cls-5{fill:#cee4fb;}.cls-6{fill:#e0ecf9;}.cls-7{fill:#f2a63f;}.cls-8{fill:#eef5fd;}.cls-9{fill:#81abe4;}.cls-10{fill:#c2e6e2;}.cls-11{fill:#abd3cd;}.cls-12{fill:#eb9a57;}.cls-13{fill:#c3d7f7;}.cls-14{fill:#e0eafa;}.cls-15{fill:#bbd2ef;}.cls-16{fill:#f3b484;}.cls-17{fill:#27385f;}.cls-18{fill:#9d4b41;}.cls-19{fill:#e19967;}.cls-20{fill:#304f90;}.cls-21{fill:#6c98a5;}.cls-22{fill:#243d6c;}.cls-23{fill:#de8140;}.cls-24{fill:#1d355d;}.cls-25{fill:#b4cffa;}.cls-26{fill:#9db9ee;}.cls-27{fill:#dc9665;}.cls-28{fill:#ebccad;}.cls-29{fill:#a74c41;}.cls-30{fill:#304885;}.cls-31{fill:#ebf2fd;}.cls-32{fill:#264076;}.cls-33{fill:#d69364;}.cls-34{fill:#2f3550;}</style></defs><title>office1</title><rect class="cls-1" width="3200" height="2000"/><path class="cls-2" d="M289,1770c.13.1,2607.59-.32,2607.59-.32,85.85-183.1,85.7-272.56,95.47-377.52,53.94-580.1-383-669.28-511-693.47C2089.12,624.64,2267.5,258.17,1246.2,326.93c-93.6,6.3-314.3,57.18-390.37,90.14-53.34,23.1-254.34,126.46-313.31,301.3C523.89,773.56,519.43,835.86,538.2,905c66.47,244.69-106.81,230.62-233.43,347.23C135.76,1407.87,153.43,1662.38,289,1770Z"/><path class="cls-3" d="M1842.18,1769.86h.36a3.75,3.75,0,0,0,3.75-3.83l-5.69-246.55-16.76-2L1838.13,1766A4.06,4.06,0,0,0,1842.18,1769.86Z"/><path class="cls-4" d="M1939.82,1769.86h.36a3.74,3.74,0,0,0,3.75-3.83l-5.69-246.55-16.75-2L1935.78,1766A4,4,0,0,0,1939.82,1769.86Z"/><path class="cls-3" d="M1670.38,1769.86H1670a3.74,3.74,0,0,1-3.75-3.83l5.69-246.55,16.75-2L1674.43,1766A4,4,0,0,1,1670.38,1769.86Z"/><path class="cls-3" d="M1950.93,1504.19V1335.25a53.83,53.83,0,0,0-53.83-53.83H1775.38a53.83,53.83,0,0,0-53.83,53.83v175.4Z"/><path class="cls-4" d="M1715.37,1504.19h235.55a0,0,0,0,1,0,0v26.67a0,0,0,0,1,0,0H1699.75a0,0,0,0,1,0,0v-11A15.63,15.63,0,0,1,1715.37,1504.19Z" transform="translate(3650.67 3035.05) rotate(180)"/><rect class="cls-5" x="1659.63" y="1504.19" width="201.7" height="26.67" rx="11.56" transform="translate(3520.96 3035.05) rotate(180)"/><rect class="cls-4" x="1379.58" y="615" width="701.7" height="605.73"/><rect class="cls-6" x="1392.94" y="625.09" width="674.69" height="583.56"/><polygon class="cls-1" points="1628.76 879 1480.91 879 1480.91 694.38 1505.98 671.78 1628.76 671.78 1628.76 879"/><polygon class="cls-3" points="1480.91 694.38 1505.18 694.38 1505.98 671.78 1480.91 694.38"/><rect class="cls-3" x="1531.16" y="689.75" width="47.34" height="2.25"/><rect class="cls-3" x="1520.02" y="696.51" width="69.63" height="2.25"/><rect class="cls-3" x="1498.41" y="739.95" width="115.61" height="2.9"/><rect class="cls-3" x="1498.41" y="748.75" width="115.61" height="2.9"/><rect class="cls-3" x="1498.41" y="757.55" width="115.61" height="2.9"/><rect class="cls-3" x="1498.41" y="766.35" width="115.61" height="2.9"/><rect class="cls-3" x="1498.41" y="860.55" width="115.61" height="2.9"/><polygon class="cls-1" points="1799.47 1135.13 1651.63 1135.13 1651.63 950.52 1676.69 927.92 1799.47 927.92 1799.47 1135.13"/><polygon class="cls-3" points="1651.63 950.52 1675.89 950.52 1676.69 927.92 1651.63 950.52"/><rect class="cls-3" x="1701.88" y="945.89" width="47.34" height="2.25"/><rect class="cls-3" x="1690.73" y="952.65" width="69.62" height="2.25"/><rect class="cls-3" x="1669.13" y="996.08" width="115.61" height="2.9"/><rect class="cls-3" x="1669.13" y="1004.89" width="115.61" height="2.9"/><rect class="cls-3" x="1669.13" y="1013.69" width="115.61" height="2.9"/><rect class="cls-3" x="1669.13" y="1022.49" width="115.61" height="2.9"/><rect class="cls-3" x="1669.13" y="1049.57" width="115.61" height="2.9"/><rect class="cls-3" x="1669.13" y="1058.37" width="115.61" height="2.9"/><rect class="cls-3" x="1669.13" y="1068.58" width="115.61" height="2.9"/><rect class="cls-3" x="1801.26" y="671.78" width="81.64" height="71.97"/><path class="cls-7" d="M1838.51,680.35a3.57,3.57,0,1,1,3.57,3.58A3.57,3.57,0,0,1,1838.51,680.35Z"/><rect class="cls-1" x="1801.26" y="769.13" width="81.64" height="71.97" transform="translate(-51.6 130.24) rotate(-3.99)"/><path class="cls-3" d="M1836.92,782.46a3.57,3.57,0,1,1,3.81,3.32A3.56,3.56,0,0,1,1836.92,782.46Z"/><rect class="cls-1" x="1529.98" y="1034.28" width="81.64" height="71.97" transform="translate(-70.72 111.99) rotate(-3.99)"/><path class="cls-3" d="M1565.63,1047.62a3.57,3.57,0,1,1,3.82,3.31A3.58,3.58,0,0,1,1565.63,1047.62Z"/><rect class="cls-1" x="1425.27" y="1083.59" width="81.64" height="71.97" transform="translate(-11.4 15.09) rotate(-0.59)"/><path class="cls-3" d="M1462.28,1096.66a3.58,3.58,0,1,1,3.62,3.54A3.58,3.58,0,0,1,1462.28,1096.66Z"/><rect class="cls-8" x="1916.56" y="816.46" width="81.64" height="71.97" transform="translate(180.5 -331.06) rotate(10.13)"/><path class="cls-9" d="M1958.94,826.08a3.11,3.11,0,1,1,2.51,3.6A3.11,3.11,0,0,1,1958.94,826.08Z"/><rect class="cls-8" x="1675.58" y="769.13" width="81.64" height="71.97" transform="translate(-76.66 189.36) rotate(-6.18)"/><path class="cls-9" d="M1710.49,779.36a3.11,3.11,0,1,1,3.43,2.76A3.11,3.11,0,0,1,1710.49,779.36Z"/><rect class="cls-10" x="1467.97" y="942.8" width="81.64" height="71.97" transform="translate(-170.94 336.16) rotate(-12.04)"/><path class="cls-7" d="M1501.62,955.7a3.11,3.11,0,1,1,4.3-.91A3.09,3.09,0,0,1,1501.62,955.7Z"/><polygon class="cls-1" points="1755.25 743.75 1677.55 743.75 1677.55 691.55 1699.07 671.78 1755.25 671.78 1755.25 743.75"/><polygon class="cls-3" points="1677.14 691.55 1698.36 691.55 1699.07 671.78 1677.14 691.55"/><path class="cls-3" d="M1716.69,678.44a2.56,2.56,0,1,1,2.55,2.56A2.55,2.55,0,0,1,1716.69,678.44Z"/><polygon class="cls-1" points="1982.28 1171.12 1904.58 1171.12 1904.58 1118.91 1926.1 1099.15 1982.28 1099.15 1982.28 1171.12"/><polygon class="cls-3" points="1904.17 1118.91 1925.39 1118.91 1926.1 1099.15 1904.17 1118.91"/><path class="cls-3" d="M1943.72,1105.8a2.56,2.56,0,1,1,2.55,2.56A2.55,2.55,0,0,1,1943.72,1105.8Z"/><polygon class="cls-1" points="2017.73 1067.51 1940.03 1067.51 1940.03 1015.3 1961.54 995.54 2017.73 995.54 2017.73 1067.51"/><polygon class="cls-3" points="1939.61 1015.3 1960.84 1015.3 1961.54 995.54 1939.61 1015.3"/><path class="cls-3" d="M1979.16,1002.2a2.56,2.56,0,1,1,2.56,2.55A2.56,2.56,0,0,1,1979.16,1002.2Z"/><polygon class="cls-10" points="1915.19 1067.51 1837.49 1067.51 1837.49 1015.3 1859 995.54 1915.19 995.54 1915.19 1067.51"/><polygon class="cls-11" points="1837.07 1015.3 1858.3 1015.3 1859 995.54 1837.07 1015.3"/><path class="cls-12" d="M1876.62,1002.2a2.56,2.56,0,1,1,2.56,2.55A2.56,2.56,0,0,1,1876.62,1002.2Z"/><polygon class="cls-10" points="2039.66 725.74 1961.95 725.74 1961.95 673.53 1983.47 653.77 2039.66 653.77 2039.66 725.74"/><polygon class="cls-11" points="1961.54 673.53 1982.76 673.53 1983.47 653.77 1961.54 673.53"/><path class="cls-12" d="M2001.09,660.42a2.56,2.56,0,1,1,2.56,2.56A2.55,2.55,0,0,1,2001.09,660.42Z"/><rect class="cls-13" x="1111.14" y="433.02" width="172.47" height="167.33" rx="11.93"/><rect class="cls-14" x="1118.61" y="440.27" width="157.53" height="152.83" rx="10.9"/><path class="cls-15" d="M1193.8,455.54a3.58,3.58,0,1,1,3.57,3.58A3.57,3.57,0,0,1,1193.8,455.54Z"/><path class="cls-15" d="M1222.63,460.59a3.57,3.57,0,1,1,1.39,4.86A3.57,3.57,0,0,1,1222.63,460.59Z"/><path class="cls-15" d="M1247.33,480.22a3.57,3.57,0,1,1-1.07,4.93A3.57,3.57,0,0,1,1247.33,480.22Z"/><path class="cls-15" d="M1259.56,510.59a3.57,3.57,0,1,1-3.57,3.57A3.57,3.57,0,0,1,1259.56,510.59Z"/><path class="cls-15" d="M1253.32,545.83a3.57,3.57,0,1,1-5.06,0A3.58,3.58,0,0,1,1253.32,545.83Z"/><path class="cls-15" d="M1230.88,568.32a3.57,3.57,0,1,1-5.05,0A3.57,3.57,0,0,1,1230.88,568.32Z"/><path class="cls-15" d="M1193.8,579.92a3.58,3.58,0,1,1,3.57,3.57A3.57,3.57,0,0,1,1193.8,579.92Z"/><path class="cls-15" d="M1172,460.59a3.57,3.57,0,1,0-1.38,4.86A3.56,3.56,0,0,0,1172,460.59Z"/><path class="cls-15" d="M1147.31,480.22a3.57,3.57,0,1,0,1.06,4.93A3.57,3.57,0,0,0,1147.31,480.22Z"/><path class="cls-15" d="M1135.07,510.59a3.57,3.57,0,1,0,3.58,3.57A3.57,3.57,0,0,0,1135.07,510.59Z"/><path class="cls-15" d="M1141.32,545.83a3.57,3.57,0,1,0,5,0A3.56,3.56,0,0,0,1141.32,545.83Z"/><path class="cls-15" d="M1163.75,568.32a3.58,3.58,0,1,0,5.06,0A3.59,3.59,0,0,0,1163.75,568.32Z"/><path class="cls-15" d="M1196.41,514.16a3.58,3.58,0,1,1,3.57,3.57A3.57,3.57,0,0,1,1196.41,514.16Z"/><rect class="cls-15" x="1199.5" y="469.53" width="0.98" height="44.63"/><rect class="cls-15" x="1196.32" y="503.34" width="30.08" height="2.93" transform="translate(-53.14 855.89) rotate(-38.14)"/><path class="cls-16" d="M2181.15,1761c-.7,9.6-14.24,9.71-29.61,7.92s-11.29,2.11-32.8,2.41-28.94-6.81-30-9.89c-.93-2.73,9.44-5,20.52-7.72l4.2-1c12.5-3.18,20.78-12.54,31.47-20.71,10.13-7.74,23.2-35.74,23.2-35.74l29.39-1.33s-12.37,25.1-17,35.93c-2.74,6.36-1.57,14.19-.39,20.19A37.54,37.54,0,0,1,2181.15,1761Z"/><path class="cls-17" d="M2151.54,1769c-15.37-1.78-11.29,2.11-32.8,2.41s-28.94-6.81-30-9.89c-.93-2.73,9.44-5,20.52-7.72l.14.2a60.26,60.26,0,0,0,31.57,5.66c14.44-1.45,29.18-7.48,39.14-8.56a37.54,37.54,0,0,1,1,10C2180.45,1770.64,2166.91,1770.75,2151.54,1769Z"/><path class="cls-16" d="M2384.16,1763c-.69,9.59-14.23,9.71-29.6,7.94s-11.28,2.12-32.8,2.44-28.94-6.78-30-9.85c-.93-2.73,9.43-5,20.52-7.75l4.19-1c12.5-3.19,20.77-12.56,31.45-20.74,10.13-7.75,0-53.63,0-53.63l32.34-3.14s-1.56,38.63-1.53,56.19c0,6.93,3.19,13.59,4.39,19.59A37.62,37.62,0,0,1,2384.16,1763Z"/><path class="cls-17" d="M2354.56,1771c-15.37-1.76-11.28,2.12-32.8,2.44s-28.94-6.78-30-9.85c-.93-2.73,9.43-5,20.52-7.75l.13.2a60.25,60.25,0,0,0,31.58,5.63c14.44-1.46,29.17-7.51,39.14-8.6a37.62,37.62,0,0,1,1,10C2383.47,1772.63,2369.93,1772.75,2354.56,1771Z"/><path class="cls-18" d="M2289.81,970.13c-5.56-22.9,2.5-33.56,9.78-39.23,3.45-8.43,7.4-14.5,11.42-16.79,7.35-4.18,16.16-4.63,22.32-4.27-1.59-1.64-4.71-2.23-4.71-2.23,3.82-.57,12.34,3.22,12.34,3.22,53.13-20.47,61.48,57.75,60.36,75.92s-1,39.58,26.68,53.9c52.74,27.32-17.52,130.27-17.52,130.27,1.34-14.68-66.42-92.18-101.78-115.39-8.6-12.67-11.66-35.06-11.89-36.82,1.49,17.75,4.52,27.7,7.24,33.31C2287.93,1037.19,2285.55,1001.58,2289.81,970.13Z"/><path class="cls-16" d="M2310.8,1056.68c-.18.08,17.07,9,30,5.49,12.2-3.33,20.17-19.15,20-19.19-5.17-1-6.66-8.13-6.55-38.64l-2.34.46-39.28,7.78s.9,12.36.92,24C2313.63,1046.36,2313,1055.64,2310.8,1056.68Z"/><path class="cls-19" d="M2312.68,1012.58s.9,12.36.92,24c22-.61,33.6-20.67,38.36-31.78Z"/><path class="cls-20" d="M2152.87,1711.83a9.63,9.63,0,0,0,8.73,12.55l15.35.72,16.23.5a13.06,13.06,0,0,0,10.51-4.8c13-15.9,52.85-68.89,77-145.88.68-2.16,1.4-4.34,2.16-6.56,16-46.59,49.11-105.08,66.57-158,2.78-8.43,5.27-16.37,7.51-23.88.72-2.4,1.42-4.77,2.08-7.09,12.87-44.71,16.59-74.06,20-105.42L2253,1275S2226.48,1481.23,2152.87,1711.83Z"/><path class="cls-1" d="M2270.67,1202.51c.32,60-8.8,85.73-8.8,85.73s54,27.42,118.13,7.23c.75-.23,53.12-12.18,53.12-12.18-1.08-2.43-10.63-42.86-11.67-45.09-13.55-29.08-23.83-41.84-25.44-50.78-3-16.69-3-34-1.56-50.26a403.63,403.63,0,0,1,15.56-78.93c-17.48-4-33.85-11-52-17.79-4.19,5.21-17,10.67-28.08,10.42-12.78-.28-16.92-5.76-16.26-11.73-13.62,7.58-24.48,14.74-24.48,14.74-11.58,20.1-35.05,39.63-36.75,70.46C2252,1131.92,2270.66,1200.83,2270.67,1202.51Z"/><path class="cls-21" d="M2379.09,1209.2c5.51,7.8,16.07,55.2,42.36,61.16-13.55-33.78-23.83-48.6-25.44-59-3-19.39-3-39.45-1.56-58.38-8.8-15.42-15.36-26-15.36-26-.69-2.5-14-43.6-18.25-6.86S2372.93,1200.47,2379.09,1209.2Z"/><path class="cls-16" d="M2305.34,1023.61s52,.85,52-31.54,6.77-54.1-26.43-56-39.66,10.44-42.31,21.25S2291.82,1022.55,2305.34,1023.61Z"/><path class="cls-18" d="M2307.27,935.26s14.24,38,36.09,43.62,31.33-.23,31.33-.23-16.76-13.32-20.24-36.56C2354.45,942.09,2318,917.17,2307.27,935.26Z"/><path class="cls-18" d="M2310.8,938.34s-10.64,8.49-13.23,16.74-3.76,25.23-8.71,24.65c0,0-10.73-25.83,1.33-40.44C2303,923.79,2310.8,938.34,2310.8,938.34Z"/><polygon class="cls-16" points="2223.51 1244.15 2198.95 1319.04 2212.96 1324.65 2253.57 1258.49 2223.51 1244.15"/><path class="cls-12" d="M2289.74,1049.46s-29,11.49-37.35,29.41-21.07,138.11-26.13,150.45-8.85,22.11-8.85,22.11,14.6,12.31,29.29,13.21S2289.74,1049.46,2289.74,1049.46Z"/><path class="cls-12" d="M2313.63,1039.13s-30.09,74.33-31,89.38-3.54,246-3.54,246,1.77,10.62-18.58,6.19-25.66-8.85-25.66-8.85,19.46-142.46,14.15-192,40.71-130.37,40.71-130.37Z"/><path class="cls-22" d="M2177,1725.1l17.62.54a10.19,10.19,0,0,0,8.18-3.69c11.85-14.35,53.17-68.07,78-147,.68-2.16,1.4-4.34,2.16-6.56,16-46.59,49.11-105.08,66.57-158,2.78-8.43,5.27-16.37,7.51-23.88.72-2.4,1.42-4.77,2.08-7.09l-18.56-14.09s-55.74,90.25-73,175.19C2252.51,1614.24,2192.48,1703,2177,1725.1Z"/><path class="cls-20" d="M2338.56,1548.37c-.3,39.08,1.55,126.18,6.31,168.75a7.69,7.69,0,0,0,7.65,6.84h13.15c5.55,0,9.69,0,12.45-.08a5.07,5.07,0,0,0,4.88-4.09c13.08-66.56,22.44-121.86,29.29-169.65,5.74-40,10.84-74.28,14.76-103.8,3.94-29.7,6.69-54.58,7.67-75.59q.22-5,.32-9.66c.07-3.14.08-6.19.06-9.16l-108.93-10.62C2327.54,1413.69,2338.74,1524.37,2338.56,1548.37Z"/><path class="cls-22" d="M2365.67,1724c5,0,8.84,0,11.57-.07a6.14,6.14,0,0,0,5.93-5c13-66.18,22.3-121.21,29.12-168.79,5.74-40,10.84-74.28,14.76-103.8,3.94-29.7,6.69-54.58,7.67-75.59l-40,23.51s25.51,9,15.78,77.13S2379.22,1714.31,2365.67,1724Z"/><path class="cls-12" d="M2360.53,1370.07s7.67,27.73,34.21,24.19,64.3-19.47,64.3-19.47-11.34-35.84-25.45-82.94c-17.08-57-38.22-130.51-48.18-176.87-2.8-13-4.71-23.83-5.42-31.6l-22-42.73s-32.84,73.7-34.61,92.28S2360.53,1370.07,2360.53,1370.07Z"/><path class="cls-16" d="M2387,1130.16,2358,1040.65c.07,0,36.71,10.9,55.14,20.21,0,0,11.51,14.85,18.64,49.11,0,0,7.53,82.25-9.28,112.33,0,0-53.09,10.62-138-18.58v-19.47s92.91,4.87,111.93,7.08Z"/><path class="cls-23" d="M2361.7,1171.86c1.19,30.09,8.27,88.49,71.39,119.75.16.08.33.17.5.24-17.08-57-38.22-130.51-48.18-176.87C2373.82,1132.31,2361.06,1155.3,2361.7,1171.86Z"/><path class="cls-12" d="M2358,1040.65s53.88,3.79,66.86,32.7,17.11,125.06.59,153.38c0,0-22.74,6.47-63-1l-1.49-.28s-12.83-31.41-1.33-37.61c0,0,33.92,1.77,30.38-9.44S2358,1040.65,2358,1040.65Z"/><path class="cls-18" d="M2222.87,1196.28l1.59,5.1,88.41-27.5a3.41,3.41,0,0,0,.6-3.13,2.49,2.49,0,0,0-2.18-2Z"/><polygon class="cls-18" points="2216.47 1201.1 2222.87 1196.28 2224.46 1201.38 2216.47 1201.1"/><path class="cls-16" d="M2202.44,1317s-22.43,12.39-25.38,21.84-.92,29.21,2.64,28.92,8.87-21.25,11.82-22.73,7.08-5.9,7.08-2.65-2.95,9.15-1.47,10,6.2-8.26,9.44-10,4.61-16.37,7.77-20.28S2202.44,1317,2202.44,1317Z"/><path class="cls-16" d="M2284.43,1184.25s-20.06-12.35-28.47-10.45-29.86,17.43-19.55,20.79,18.67-.16,22.64,2.28,6.89,6.91,25.38,6.85S2284.43,1184.25,2284.43,1184.25Z"/><path class="cls-24" d="M707,1051.53c-3.36-6.48,73.36-29.84,74.58,34.17,0,0,143.72-3.54,75.1-83.64-23.76-27.74-21.32-50.67-20.6-72s-14.8-83.39-68-77.14c0,0-13.93-5.67-31.32,3.35C697.17,876.77,608.6,1075.14,707,1051.53Z"/><path class="cls-16" d="M941.92,1123.08s9.35-14.24,16.89-14.52,21.51-4.19,20.39-1.39-9.77,3.07-10.61,4.74,12.84,4.19,16.75,4.47,13.13,0,12.85,2-16.61,10.05-28.13,8.93-25.77,3.35-25.77,3.35Z"/><path class="cls-25" d="M806.62,1127.69a140.67,140.67,0,0,0,14.31,21.64c11.12,13.93,28.26,30,49.78,33.19,10.28,1.51,20.33-.7,29.57-4.81h0c26.14-11.61,45.79-38.29,45.79-38.29,4.61-12.57-2.93-21.09-2.93-21.09s-52.78,11.88-57.81,9.36-34.35-87-41.32-97.6S813.27,1014,813.27,1014Z"/><path class="cls-26" d="M820.93,1149.33c11.12,13.93,28.26,30,49.78,33.19,10.28,1.51,20.33-.7,29.57-4.81-1,.14-27.12,3.36-37.53-15.25-10.61-19-22.09-49.15-37.86-39.1C818.09,1127.7,818.39,1138.48,820.93,1149.33Z"/><path class="cls-17" d="M609.72,1697.41s-16.11,14.7-13,25.14,17.68,17.4,19.64,30.17,9.82,19.72,16.89,19.72H667s5.21-9-7.36-11.69-17.31-17.7-16.53-31.63-1.18-32.48-1.18-32.48l-26.71-6.19Z"/><path class="cls-17" d="M746,1703.65s-5.8,62.26,1.27,65.74l90.49-.18s0-10.45-14.54-12.77-40.06-10.83-44.38-29.78S746,1703.65,746,1703.65Z"/><path class="cls-16" d="M681.54,1257c18.62-41.75,30-53.74,27.84-66.7-1.62-9.65,4.93-179.86,4.93-179.86,2.21-.68,6.64-1.3,9.06-1.83A22.72,22.72,0,0,0,740,994.14c3.17-8.88,5.69-22,5.63-38.41l2.39.47,40.1,7.95s-.91,12.62-.94,24.51V989a23.08,23.08,0,0,0,16.65,22.31c5.06,1.46,9.47,2.71,9.47,2.71s14.73,42,17.54,85.24-26.78,62,.22,148.26C858.59,1335.63,671.26,1280,681.54,1257Z"/><path class="cls-27" d="M788.08,964.15s-.91,12.62-.94,24.51C764.7,988,752.84,967.55,748,956.2Z"/><path class="cls-16" d="M795.58,975.4s-53.1.88-53.14-32.2-6.91-55.23,27-57.19,40.5,10.66,43.2,21.69S809.39,974.32,795.58,975.4Z"/><path class="cls-24" d="M793.61,885.2s-14.54,38.8-36.85,44.54-32-.24-32-.24,17.12-13.6,20.67-37.33C745.44,892.17,782.65,866.73,793.61,885.2Z"/><path class="cls-24" d="M790,888.35s10.78,4,15.22,11.89a53.44,53.44,0,0,1,7.17,30.37s11-26.38-1.35-41.3C798,873.49,790,888.35,790,888.35Z"/><path class="cls-2" d="M784,954.89a13.36,13.36,0,0,0,11,4.47,9.77,9.77,0,0,0,8.18-5.4S792.35,951.35,784,954.89Z"/><path class="cls-25" d="M676.42,1085.7a359.92,359.92,0,0,0,0,41.82c.9,15.12,16.19,35.37,18.36,40.38,5.45,12.57,11.59,14.62,11.59,14.62l47.51,11.64,16.7,4.09,52.68-15.73s24-67,14.36-104.67S813.27,1014,813.27,1014s-43,42.09-99-3.57Z"/><path class="cls-28" d="M690.33,1133.69c.89,15.12,2.28,29.2,4.45,34.21,5.45,12.57,11.59,14.62,11.59,14.62l47.51,11.64,20.63-6.07s-68.88-10.43-61.25-69.7Z"/><path class="cls-23" d="M819.91,1192.68s26.09,81.2,27.76,108.85S797.81,1694.26,795.73,1707c-2,12-16.86,19.66-16.86,19.66s-6.86,4-16.65,1.28c-13.58-3.83-17.87-8.42-17.87-8.42s-20.31-260.38-7.74-353.39a1471.66,1471.66,0,0,0,12.71-173.45Z"/><path class="cls-12" d="M709.38,1190.26s-39.79,53.39-43.5,89.48-5.82,162.88-13.72,198.06-36.95,102.9-36.95,212.65c0,0,3,6.29,12.34,9.64a102.64,102.64,0,0,0,10.85,3,17.07,17.07,0,0,0,19.08-9.06c19.63-39.53,82.17-167,85.38-193.48,2.27-18.72,22-142.67,65.08-215.4,10.34-17.46-6.34-86.9-6.34-86.9Z"/><path class="cls-1" d="M785.2,955.77s.92,3.9,10.62,3.3c0,0,8.14-.51,7.89-4.79C803.71,954.28,795.82,951.23,785.2,955.77Z"/><path class="cls-17" d="M824.08,1180.14s-10.48,8.29-31.28,8.71c-24.85.5-86.43-6.34-86.43-6.34a51.1,51.1,0,0,0-2.62,15.72s75.2,19,118.78,2.77C822.53,1201,828.15,1190.42,824.08,1180.14Z"/><path class="cls-1" d="M787.42,1197.43c0-7.08,5.09-12.83,11.34-12.83s11.34,5.75,11.34,12.83-5.09,12.83-11.34,12.83S787.42,1204.51,787.42,1197.43Zm3.76,0c0,5,3.4,9.08,7.58,9.08s7.58-4.08,7.58-9.08-3.4-9.08-7.58-9.08S791.18,1192.43,791.18,1197.43Z"/><rect class="cls-29" x="658.77" y="1105.72" width="102.17" height="139.85" transform="translate(473.16 2528.43) rotate(-138.95)"/><path class="cls-16" d="M723.75,1195.08s28.23,3.3,28.14,10-7,20.47-10.52,21.08-23-18.61-23-18.61Z"/><path class="cls-25" d="M714.31,1010.4s-37.69,2.64-52.14,37.76-41.86,94.1-41.86,104,15.31,40.5,97.55,58.08c0,0,8.51-8.94,8-16,0,0-51.33-44.09-51.2-49.25.26-9.75,8.42-22.61,53.49-67.7C740.39,1065,714.31,1010.4,714.31,1010.4Z"/><path class="cls-3" d="M1130.74,1770.52h-.36a3.76,3.76,0,0,1-3.75-3.84l5.69-246.54,16.76-2-14.29,248.52A4,4,0,0,1,1130.74,1770.52Z"/><path class="cls-4" d="M1033.1,1770.52h-.36a3.75,3.75,0,0,1-3.75-3.84l5.69-246.54,16.76-2-14.29,248.52A4.06,4.06,0,0,1,1033.1,1770.52Z"/><path class="cls-3" d="M1302.54,1770.52h.36a3.75,3.75,0,0,0,3.75-3.84L1301,1520.14l-16.76-2,14.29,248.52A4,4,0,0,0,1302.54,1770.52Z"/><path class="cls-3" d="M1022,1504.85V1335.9a53.83,53.83,0,0,1,53.82-53.82h121.72a53.83,53.83,0,0,1,53.83,53.82v175.4Z"/><path class="cls-4" d="M1022,1504.85h251.18a0,0,0,0,1,0,0v26.67a0,0,0,0,1,0,0H1037.63a15.63,15.63,0,0,1-15.63-15.63v-11A0,0,0,0,1,1022,1504.85Z"/><rect class="cls-3" x="1111.59" y="1504.85" width="201.7" height="26.67" rx="11.56"/><path class="cls-17" d="M1294.44,1462.75c-17.44,30.35-39.37,42.07-39.37,42.07h-91.24S1307.74,1439.6,1294.44,1462.75Z"/><path class="cls-16" d="M1224.36,1697.57a8.42,8.42,0,0,0-1.5,9,.08.08,0,0,0,0,0c2.18,6,9.37,12.73,17.72,19.44,1.06.86,2,1.64,2.84,2.37l.64.57.49.45c7.79,7.18,4.86,8.82,18.85,23.39,15.95,16.6,26.94,16.89,30.06,15.38,2.64-1.29-2.73-10.09-8.68-20-.29-.48-.57-1-.87-1.45-.79-1.31-1.58-2.65-2.36-4-7-11.91-5.19-17.5-3.53-35.22,1.34-14.4,22.4-80.46,22.4-80.46l-30.57-5.26s-9.21,52.6-19.35,60.7c-5.42,4.31-11.5,4.37-16.71,7.57q-.55.33-1.08.69A39.78,39.78,0,0,0,1224.36,1697.57Z"/><path class="cls-17" d="M1224.36,1697.57a8.42,8.42,0,0,0-1.5,9,.08.08,0,0,0,0,0c2.66,6,9.67,12.69,17.75,19.38,1,.87,2,1.68,2.81,2.43l.64.57.49.45c7.79,7.18,4.86,8.82,18.85,23.39,15.95,16.6,26.94,16.89,30.06,15.38,2.64-1.29-2.73-10.09-8.68-20a68,68,0,0,1-28.44-21c-9.6-12.26-16-28-22.55-37.13q-.55.33-1.08.69A39.78,39.78,0,0,0,1224.36,1697.57Z"/><path class="cls-16" d="M1470.88,1678.47c1.88,9.44,15.34,7.87,30.36,4.19s11.46.7,32.85-1.67,27.87-10.34,28.52-13.52c.59-2.83-10-3.82-21.32-5.13q-2.14-.24-4.29-.51c-12.8-1.61-22.17-9.86-33.8-16.65-11-6.42-27.44-32.6-27.44-32.6l-29.33,2.33s15.39,23.37,21.34,33.54c3.5,6,3.32,13.88,2.88,20A37.46,37.46,0,0,0,1470.88,1678.47Z"/><path class="cls-17" d="M1501.24,1682.66c15-3.67,11.46.7,32.85-1.67s27.87-10.34,28.52-13.52c.59-2.83-10-3.82-21.32-5.13l-.11.22a60.2,60.2,0,0,1-30.63,9.52c-14.51.35-29.88-3.8-39.9-3.64a37.46,37.46,0,0,0,.23,10C1472.76,1687.91,1486.22,1686.34,1501.24,1682.66Z"/><path class="cls-17" d="M1358.46,1490.91,1331,1564.7l-35.8,96.34a57.85,57.85,0,0,1-19-1.74c-8.57-2.47-18.4-9-18.4-9s9.94-103.45,28.49-162.83c4.75-15.24,10.08-27.57,16-34.51C1331,1419,1358.46,1490.91,1358.46,1490.91Z"/><path class="cls-30" d="M1330.59,1373.73c-18-5.8-69.21,1.64-120.68,11.72l-10.77-17.78L1088,1359s-36.69,81.36-16.61,133.19c3,7.62,8.82,12.51,18.82,12.67h1.62l87.66,0c55.28,0,117-38,125-39.6,13.07-2.62,18.29,23.52,31.36,51s122.85,121.53,122.85,121.53,16.87.17,23.84-2.44c7.49-2.81,10.24-6.47,10.24-6.47S1371.1,1386.8,1330.59,1373.73Z"/><path class="cls-17" d="M1194.76,1044c-14.24-7.48-35.91-8.49-39.43-9-42.12-5.66-67.48,55.55-69,74.1-2.75,34.19-20.84,39.4-46.29,60.81-51,42.93-36.08,92.82-8.17,111.36,16.75,11.12,46.27,0,46.27,0,.42.29,80.73-44.9,120.31-66.7C1257.83,1206.14,1231.05,1063,1194.76,1044Z"/><path class="cls-16" d="M1165.3,1196c.18.11-19.48,6.82-32.62,1-12.36-5.46-21.72-25.8-21.54-25.81,5.62-.26,11.8-5.18,16.55-37.44l2.4.86,40.26,14.49s-2.92,12.92-4.8,25.22C1164,1184.67,1163.1,1194.56,1165.3,1196Z"/><path class="cls-19" d="M1170.35,1149.12s-2.92,12.92-4.8,25.22c-23.13-4.16-32.21-27.21-35.46-39.71Z"/><path class="cls-16" d="M1176.35,1161.94s-55.09-7.39-50-41.63,1.48-58.24,36.87-55,40.25,17.36,41.31,29.2S1190.81,1163,1176.35,1161.94Z"/><path class="cls-17" d="M1202.57,1075.78s-35.27,30.39-59.25,32.84-33.07-5.25-33.07-5.25a93.57,93.57,0,0,0,22.64-30.69,16.89,16.89,0,0,1,13.91-9.94C1163.93,1061.26,1196.4,1060.59,1202.57,1075.78Z"/><path class="cls-17" d="M1180.52,1073.06s11.8,11.4,15.51,19.86c3.59,8.17,4.67,27.69,1.81,35.45,0,0,18.38-35.74,8-53.1C1194.78,1056.85,1180.52,1073.06,1180.52,1073.06Z"/><path class="cls-1" d="M1211.69,1277.17c-1.67,111.51-.46,88.21-12.66,98.79-2.93,2.55-11.2,4.06-22.07,4.78-34.2,2.27-94.3-3.36-96.59-9.68-7.88-21.86-2.32-28.66-8.9-62.13-.68-3.56-1.53-7.41-2.53-11.61-5.48-23-10.82-30.81,8.64-67.75,17.65-33.46,36-60.61,37.64-59.63,46.57,27.64,50.32,4.41,50.32,4.41S1212.51,1222.78,1211.69,1277.17Z"/><path class="cls-30" d="M1331,1564.7l-35.8,96.34a57.85,57.85,0,0,1-19-1.74c-8.57-2.47-18.4-9-18.4-9s9.94-103.45,28.49-162.83Z"/><path class="cls-1" d="M1165.55,1174.34s47.92,8.12,53.54,28.75S1257.83,1345,1257.83,1345s-24.36,4.37-35.61-6.88-39.16-104.41-39.16-104.41Z"/><path class="cls-31" d="M1177,1380.74c-34.2,2.27-94.3-3.36-96.59-9.68-7.88-21.86-2.32-28.66-8.9-62.13l16.5-46.44s-2.73,51.71,12.52,65.31,62.44,26.26,69.85,37.63C1173.92,1370.88,1176.27,1376.35,1177,1380.74Z"/><path class="cls-16" d="M1137.78,1359s33.73-7.51,39.18-4.51,18.74,13.89,20.41,17.69-12.12-2.89-16.6-4.09c-2.91-.78-10.55,1.88-14.33,3.14-15.92,5.31-25.68,2.58-25.68,2.58Z"/><path class="cls-1" d="M1115.19,1169.91s-45.3,2.79-61,24.66c-22.07,30.79-65.85,162-40.76,179.49,28.26,19.7,128.62,5.15,128.62,5.15s3.34-15.61-1.31-23.16-80.16-19.75-83.64-23.23,43.56-68,43.56-78.42S1115.19,1169.91,1115.19,1169.91Z"/><path class="cls-16" d="M1178.59,1363.86s7.07,9.12,9.39,10.21a6.91,6.91,0,0,0,3.81.82l-4.76-8.58Z"/><path class="cls-16" d="M1177,1354.48l20.55,10s-.88,1.43-3.41,1.32-8.91-2.45-8.91-2.45Z"/><polygon class="cls-12" points="1187.98 1388.04 1350.53 1388.04 1399.43 1266.44 1237.13 1266.44 1187.98 1388.04"/><polygon class="cls-23" points="1352.44 1383.3 1137.78 1383.3 1137.78 1388.04 1350.53 1388.04 1352.44 1383.3"/><path class="cls-1" d="M1309.5,1327.24c1.22-4.28-1.25-7.74-5.52-7.74a11.07,11.07,0,0,0-10,7.74c-1.23,4.27,1.24,7.74,5.52,7.74S1308.27,1331.51,1309.5,1327.24Z"/><path class="cls-9" d="M2037,1775h.47a5.11,5.11,0,0,0,5-5.37l-7.52-345.2-22.16-2.73,18.9,348A5.5,5.5,0,0,0,2037,1775Z"/><path class="cls-9" d="M1138.59,1775h-.47a5.11,5.11,0,0,1-5-5.37l7.52-345.2,22.16-2.73-18.9,348A5.5,5.5,0,0,1,1138.59,1775Z"/><rect class="cls-9" x="1101.56" y="1389.15" width="976.17" height="41.65" rx="13.6"/><path class="cls-6" d="M909,797.52c-3.58-88.63,70.71-128,146.67-128s158.63,19.68,165.79,137.54c4.61,75.82-35.81,122.48-152.2,122.48-39.25,0-69.76-6.2-93.13-17.24L918,964l28.59-71.46C921.23,869,910.56,835.77,909,797.52Z"/><path class="cls-17" d="M2635.51,1774.65s2.14-16.66,7.09-26.56,36.45-3.6,36.45-3.6,6.3,5.4,7.65,30.61Z"/><path class="cls-17" d="M2528.19,1774.42c7.4-4.52,3.19-38.22,3.19-38.22s-34.49-27.59-39.24-6.47-32.76,30.61-48.71,33.2c-11,1.78-14.43,7.88-15.48,11.49Z"/><path class="cls-32" d="M2599.63,1529.29a156.31,156.31,0,0,0-2.53,18.63c-3.21,62.54-52.65,205.53-61.49,208.87-13.68,5.16-35.23-5.81-46.5-9.41-4.68-1.49-7.83-6.2-6.79-11,24.48-112.55,33.48-274.62,36.76-370.58,1.65-48.33,10-81.71,10-81.71s120.58-32.18,121.29,8.52C2651,1328.64,2610.38,1469.88,2599.63,1529.29Z"/><path class="cls-17" d="M2599.63,1529.29l-80.55-163.47c1.65-48.33,10-81.71,10-81.71s120.58-32.18,121.29,8.52C2651,1328.64,2610.38,1469.88,2599.63,1529.29Z"/><path class="cls-32" d="M2572.8,1292.77l63.74,462s28,6.75,49.77,1.35c0,0,18.66-245.71,17.1-305.11s13.4-158.94-3.41-169.92S2572.8,1292.77,2572.8,1292.77Z"/><path class="cls-25" d="M2712.42,1285.08a8.83,8.83,0,0,1-6.38,9.13c-8.89,2.58-19.14,4.38-38.91,8.48a378.15,378.15,0,0,1-74.26,7.46c-48.83.31-67.31-16.52-67.31-16.52-2.1,0,1.11-10.18,4-58.77,1-16.46,1.92-37.32,2.61-63.69.61-23.72,1-51.91,1.07-85.35.05-40.22,62.31-83.5,63.46-83.5v0c0,5.79,9.13,16.48,23.19,17.4,16.69,1.09,37.16-7.21,37.16-16.82,0-.1,30.16,48.26,40.88,99.78C2703.36,1128.63,2701.17,1127.93,2712.42,1285.08Z"/><path class="cls-25" d="M2596.71,1002.33s-57.9-.5-71.83,19S2480.4,1146,2496.34,1181s45.77-14.47,62.33-35.9S2596.71,1002.33,2596.71,1002.33Z"/><path class="cls-16" d="M2596.12,993.49l0,6s-1.63,18.72,21.42,21.45,40.15-3.49,39.53-17.93c-2.08-11.19-4-22.67-4.16-31.92a65.91,65.91,0,0,1,.82-11.21L2609.1,959,2596,961.11Z"/><path class="cls-33" d="M2596,961.11l.17,32.38a37.85,37.85,0,0,0,16.1,3.55c20.52,0,33.79-15,40.72-26a65.91,65.91,0,0,1,.82-11.21L2609.1,959Z"/><path class="cls-16" d="M2657.18,952.67c-5.18,27.89-41.16,27-56.71,25.22-4.38-.49-7.13-1-7.13-1-4.94-1.31-7.69-9.09-9-19.27-2.54-20.14.67-49.72,4.07-57.28,5.13-11.39,14.78-23.7,51-14.81S2663.83,916.94,2657.18,952.67Z"/><path class="cls-26" d="M2537.51,1080.67s-22.39,49.45-21.74,64.27a77.2,77.2,0,0,1,21.74,2.8C2555,1153,2537.51,1080.67,2537.51,1080.67Z"/><path class="cls-17" d="M2577.32,873.74a120.17,120.17,0,0,0,34.77-9.4c15.27-6.64,34.53.67,40.78,4a9.22,9.22,0,0,0-1.52-3.76s2.81,2,3.22,4.77c.29.22.42.36.34.41s3.19-.58,5.23.34c0,0-1.43-.2-1.94.72a.77.77,0,0,1-.23.25c23.82,11.51,26,49.15,18.35,57.86-9.22,10.48-23.14,34.2-23.14,34.2s-1.17-5.69.51-14.92-6.29-9.22-16.35-13.41-1.68-15.93-10.48-23-41.08-2.94-40.66-8.39C2574.22,899,2577.32,875,2577.32,873.74Z"/><path class="cls-26" d="M2664.48,1173.3c-9.45,38-111.68,57.57-134.91,61.56,1-16.46,1.92-37.32,2.61-63.69Z"/><path class="cls-16" d="M2642,1185.64c1,0,22.73-3.25,26.62-5.2s21.72-27.27,10.05-33.76-43,19.48-43,19.48Z"/><path class="cls-25" d="M2509.75,1193.16s84.12,4.57,140.58-7.52c0,0,1.42-16.31-16.32-23.56,0,0-88-18.65-109.13-13.45S2509.75,1193.16,2509.75,1193.16Z"/><path class="cls-25" d="M2702.94,1127.14c-17.46,21-40.28,38.24-65.44,42.27h0a46.88,46.88,0,0,1-6.23-28.1,56.3,56.3,0,0,1,9.17-25.79,57.18,57.18,0,0,0,4.94-10c13.74-35,11.7-102.62,11.7-102.62s58.34,6.11,76.52,32.08C2744.73,1050.91,2730.53,1093.86,2702.94,1127.14Z"/><path class="cls-33" d="M2600.47,977.89c-4.38-.49-7.13-1-7.13-1-4.94-1.31-7.69-9.09-9-19.27,9.26,2.28,13.49,9.43,15.26,12.48C2600.43,971.42,2600.59,974.49,2600.47,977.89Z"/><path class="cls-16" d="M2577,993.66s-20.15-33.25-4.48-34.69,22,9.15,24.23,13-.59,21.47-.59,21.47Z"/><path class="cls-25" d="M2653.76,1140.19a43,43,0,0,1-3.43,11.54,55.29,55.29,0,0,1-12.83,17.68h0c-52.33-23.62-62.92-104.74-64.69-149.31-.72-17.91,0-29.92,0-29.92,23.6-7.82,30.24,5.76,30.24,5.76s27.87,66.29,42.33,109.61C2650.91,1122.12,2654.47,1135.34,2653.76,1140.19Z"/><path class="cls-26" d="M2702.94,1127.14c-17.46,21-40.28,38.24-65.44,42.27h0c-52.33-23.62-62.92-104.74-64.69-149.31,0,0,24.76,89.82,58.46,121.21,6.1,5.69,12.48,9.45,19.07,10.43,0,0,42.5-12,51.42-23.32A4.76,4.76,0,0,1,2702.94,1127.14Z"/><polygon class="cls-30" points="1749.76 1389.15 1587.2 1389.15 1538.3 1267.55 1700.61 1267.55 1749.76 1389.15"/><polygon class="cls-30" points="1585.3 1384.41 1799.95 1384.41 1799.95 1389.15 1587.2 1389.15 1585.3 1384.41"/><path class="cls-1" d="M1628.24,1328.35c-1.23-4.28,1.24-7.74,5.52-7.74s8.73,3.46,10,7.74-1.25,7.74-5.52,7.74S1629.46,1332.62,1628.24,1328.35Z"/><path class="cls-34" d="M3068.45,1771.94v1a3.23,3.23,0,0,1-3.39,3H83.13a3.22,3.22,0,0,1-3.38-3v-1a3.22,3.22,0,0,1,3.38-3H3065.06A3.23,3.23,0,0,1,3068.45,1771.94Z"/></svg>